<svg xmlns="http://www.w3.org/2000/svg" viewBox="0 0 339.96 333"><title>casa coracao 4</title><g id="Layer_1" data-name="Layer 1"><path d="M331.47,166.57a45.18,45.18,0,0,0,6.28-40.18c-5.15-15.61-16.39-26.32-32.5-31a54.21,54.21,0,0,0-8.92-1.76,49.11,49.11,0,0,0,2.78-33.51c-4.28-15-14.13-25.69-28.47-30.9a45.39,45.39,0,0,0-15.53-2.78q-2.13,0-4.27.21A45.17,45.17,0,0,0,219.22,1.18,50.4,50.4,0,0,0,209,.09c-12.13,0-23.48,4.75-32.8,13.73a54.15,54.15,0,0,0-6.11,7A49.12,49.12,0,0,0,142.31,1.53,50,50,0,0,0,130.24,0h0a44.5,44.5,0,0,0-28.93,10.78A45,45,0,0,0,89.23,26.63q-2.17-.2-4.36-.2A45,45,0,0,0,51.29,41.32C40.35,53.59,36.71,68.68,40.76,84.94a54.26,54.26,0,0,0,2.9,8.55A48.9,48.9,0,0,0,13.3,107.9C2.45,119.12-1.87,133,.8,148a45,45,0,0,0,7.69,18.41A45.17,45.17,0,0,0,2.2,206.61c5.15,15.61,16.39,26.32,32.5,31a54.18,54.18,0,0,0,8.92,1.76,49.11,49.11,0,0,0-2.78,33.51c4.28,15,14.13,25.69,28.47,30.9a45.39,45.39,0,0,0,15.53,2.78q2.13,0,4.27-.21a45.18,45.18,0,0,0,31.63,25.53A50.4,50.4,0,0,0,131,332.91c12.13,0,23.48-4.75,32.8-13.73a54.18,54.18,0,0,0,6.11-7,49.12,49.12,0,0,0,27.74,19.28A49.94,49.94,0,0,0,209.72,333a44.5,44.5,0,0,0,28.92-10.78,45,45,0,0,0,12.09-15.86q2.17.2,4.36.2a45,45,0,0,0,33.58-14.88c10.94-12.27,14.58-27.36,10.53-43.63a54.28,54.28,0,0,0-2.9-8.55,48.9,48.9,0,0,0,30.36-14.41C337.5,213.88,341.83,200,339.16,185A45,45,0,0,0,331.47,166.57Z" fill="#4a8841"/><path d="M201.86,216a6,6,0,0,1,.83.06c3.62.5,7.2,1,10.76,1.54,13.35,2,26.65,4.32,39.57,8.07a84.74,84.74,0,0,1,15.39,5.75c8.3,4.3,13.14,11.64,15.35,20.51,2.66,10.66.68,20.62-7,29.21a28.92,28.92,0,0,1-21.71,9.56,31.2,31.2,0,0,1-11.7-2.29c-1.35-.55-2.66-1.21-4.2-1.92-.05.73-.09,1.35-.14,2-.61,8.54-3.88,15.94-10.64,21.63a28.34,28.34,0,0,1-18.68,7A33.91,33.91,0,0,1,201.5,316c-13.25-3.31-23.69-15.71-24.65-29.2-.38-5.31.73-10.53,2-15.71,3.58-15.1,9-29.66,14.66-44.14l2.84-7.25a6,6,0,0,1,5.55-3.78" fill="#88b75c"/><path d="M209,16a34.32,34.32,0,0,1,7,.75c12.11,2.52,21.22,12.69,23,25.32.2,1.45.28,2.91.43,4.6l1.78-.87a31.84,31.84,0,0,1,14-3.4,29.39,29.39,0,0,1,10.1,1.83c9.78,3.55,15.84,10.59,18.61,20.32,3.75,13.13-1.79,28.37-13,35.94-4.41,3-9.49,4.63-14.59,6.15-14.87,4.43-30.19,7-45.57,9.33l-7.7,1.16a6,6,0,0,1-6.42-3.67c-1.37-3.39-2.73-6.73-4-10.1C187.63,90.77,183,78.1,179.77,65a84.76,84.76,0,0,1-2.7-16.21c-.41-9.34,3.53-17.19,10.12-23.54,6.22-6,13.49-9.28,21.78-9.28" fill="#66956a"/><path d="M137.87,215.82a6,6,0,0,1,5.53,3.74c1.37,3.39,2.73,6.73,4,10.1,4.9,12.58,9.56,25.25,12.76,38.32a84.75,84.75,0,0,1,2.7,16.21c.41,9.34-3.53,17.19-10.12,23.54-6.22,6-13.49,9.28-21.78,9.28a34.31,34.31,0,0,1-7-.75c-12.11-2.52-21.22-12.69-23-25.32-.2-1.45-.28-2.91-.43-4.6l-1.78.87a31.83,31.83,0,0,1-14,3.4,29.4,29.4,0,0,1-10.1-1.82C65,285.23,58.9,278.19,56.12,268.46c-3.75-13.13,1.79-28.37,13-35.94,4.41-3,9.49-4.63,14.59-6.15,14.87-4.43,30.19-7,45.57-9.33l7.7-1.16a6,6,0,0,1,.89-.07" fill="#66956a"/><path d="M130.24,15.9A33.89,33.89,0,0,1,138.46,17c13.25,3.31,23.69,15.71,24.65,29.2.38,5.31-.73,10.53-2,15.71-3.58,15.1-9,29.66-14.66,44.14l-2.84,7.25A6,6,0,0,1,138.1,117a6,6,0,0,1-.83-.06c-3.62-.5-7.2-1-10.76-1.54-13.35-2-26.65-4.32-39.57-8.07a84.77,84.77,0,0,1-15.39-5.75C63.24,97.31,58.4,90,56.19,81.1c-2.66-10.66-.68-20.62,7-29.21a28.92,28.92,0,0,1,21.71-9.56,31.2,31.2,0,0,1,11.7,2.29c1.35.55,2.66,1.21,4.2,1.92.05-.73.09-1.35.14-2,.61-8.54,3.88-15.94,10.64-21.63a28.34,28.34,0,0,1,18.68-7" fill="#88b75c"/><path d="M48.59,109.15a31.43,31.43,0,0,1,13.76,3.08c4.79,2.33,8.76,5.9,12.62,9.56,11.28,10.66,21.18,22.62,30.88,34.78l4.85,6.08a6,6,0,0,1,0,7.39c-2.25,2.88-4.47,5.73-6.72,8.55-8.44,10.54-17.08,20.91-26.79,30.22a84.76,84.76,0,0,1-12.69,10.45,28.25,28.25,0,0,1-15.47,4.51,36.08,36.08,0,0,1-10-1.48c-10.56-3-18.19-9.73-21.8-20.65-3.88-11.75.37-24.72,10.42-32.56,1.15-.9,2.38-1.69,3.77-2.68l-1.64-1.11c-7.09-4.81-11.86-11.34-13.4-20-1.82-10.24,1.25-19,8.28-26.29a33.44,33.44,0,0,1,23.86-9.8" fill="#547269"/><path d="M290.89,109.25a36.06,36.06,0,0,1,10,1.48c10.56,3,18.19,9.73,21.8,20.65,3.88,11.75-.37,24.72-10.42,32.56-1.15.9-2.38,1.69-3.77,2.68l1.64,1.11c7.09,4.81,11.86,11.34,13.4,20,1.82,10.24-1.25,19-8.28,26.29a33.44,33.44,0,0,1-23.86,9.8,31.43,31.43,0,0,1-13.76-3.08c-4.79-2.33-8.76-5.9-12.62-9.56-11.28-10.66-21.18-22.62-30.88-34.78l-4.85-6.08a6,6,0,0,1,0-7.39c2.25-2.88,4.47-5.73,6.72-8.54,8.44-10.54,17.08-20.91,26.79-30.22a84.73,84.73,0,0,1,12.69-10.45,28.24,28.24,0,0,1,15.47-4.51" fill="#547269"/><path d="M309.29,166.34c6.5,4.56,11.1,10.05,13.22,17.27,7.63,26-16.12,44-37.86,39.75-10.36-2-17.08-8.55-23.76-15.6-5.17-5.46-10.5-10.78-15.41-16.46-5.68-6.56-11.09-13.36-16.41-20.21a7.24,7.24,0,0,1,.25-9.84c11.9-13.6,23.65-27.36,36-40.59,7-7.58,16.27-12.49,26.75-11.81,11,.71,21,4.63,27.23,14.92,7.7,12.79,6.2,27.31-4.42,38.77C313.49,164,311.55,164.81,309.29,166.34ZM244,166c5.94,7.1,11,13.41,16.35,19.46,5,5.68,10.18,11.27,15.64,16.53,4.8,4.62,10.42,7.72,17.58,6.94a16.54,16.54,0,0,0,14.55-11.41c2-5.55,1.19-11.43-3.88-15.24-6-4.51-12.54-8.28-18.76-12.5a5,5,0,0,1-2.09-3c-.12-.82.85-2.12,1.69-2.7,4.54-3.13,9.25-6,13.77-9.16a36.58,36.58,0,0,0,7.05-5.79c7.67-8.94-.83-23.43-10.59-24.8-7.69-1.08-13.34.8-18.34,6.17Zm60.39-46.79-.49,1.34,7,3.64.82-1.6C310.63,118.82,307.42,119.21,304.43,119.18Zm-1.29,55.41-.34-5.06c-1.79.73-3.28,1-4.2,1.85-.52.49-.09,2-.09,3.21Z" fill="#fff"/><path d="M100.43,46.27c1.22-15,8.71-25.08,21-28.87,14.78-4.56,30.68,2.06,38.49,16.22,6,10.8,4.34,21.3,1.06,31.84-5,16-10.66,31.76-16.12,47.6-2,5.87-7,4.7-11.21,4-15-2.64-30.1-5.12-44.93-8.61a68.14,68.14,0,0,1-21.22-8.75c-4.33-2.82-7.83-8.2-9.75-13.19-3.85-10-3.88-20.41,2-30,4-6.5,9.72-11.86,17.23-12.83C84.68,42.67,93.07,40.3,100.43,46.27Zm14.09,1.5c.38,5.93.84,12,1.13,18.06.11,2.24-3.22,3.79-5.36,2.65-6.22-3.3-12.42-6.65-18.68-9.89-4.37-2.26-9.16-2.42-13.09.22-5,3.33-9.45,8-8.81,14.48.8,8,4.18,15,12.95,17.32,13.67,3.58,27.34,7.2,41.13,10.27,9,2,9.18,1.62,11.49-3.84.53-1.25.29-2.8.72-4.11q5.6-17.08,11.32-34.12c2.43-7.26,2.53-14.31-2.34-20.65s-15-10-21.81-5.13c-4.4,3.19-7.85,7.05-7.47,13.61l-3.83-2.44L111,45.52Zm-45.6,7.69L63,64.19C68.2,64.36,70.93,60.4,68.92,55.47Z" fill="#fff"/><path d="M30.93,166.17c-18.28-10.51-20.16-38.58-2.29-51,12.49-8.66,27.47-10,40.12.28,10.53,8.57,19.15,19.52,28.38,29.63,5,5.5,9.58,11.42,14.23,17.24,2.32,2.9,2.39,6.07-.11,8.92-11.65,13.32-23,26.95-35.21,39.73-7,7.36-15.45,13.83-26.68,12.92-16-1.3-26.17-5.13-31.47-21.73C13.32,187.83,16,177.81,30.93,166.17Zm65.31-.24c-11.51-12.42-22.49-24.54-33.8-36.34a18.38,18.38,0,0,0-16-5.92,18.65,18.65,0,0,0-15.38,13.47c-1.38,4.82,2.11,12.53,7.34,15.94,6.16,4,12.37,8,19,12.23-.92,1.2-1.65,2.84-2.92,3.7-5.83,4-12.05,7.39-17.65,11.65-6.75,5.12-7.88,13.56-3.11,20.13,6.53,9,16.23,10.39,22.47,6.38a84.31,84.31,0,0,0,15.39-13.29C79.78,185.21,87.39,176,96.25,165.92ZM60.34,116.27l-10.56-1.71-.71,1.2c1.82,1.37,3.51,3.49,5.52,3.86C56,119.89,57.88,117.8,60.34,116.27Zm16.11,81.06-1.17-.69c-1.87,2-3.84,3.92-5.53,6.06-.48.61-.16,1.86-.21,2.81,1.1-.17,2.81,0,3.18-.57A77.84,77.84,0,0,0,76.45,197.33Z" fill="#fff"/><path d="M238.85,286.94a24.5,24.5,0,0,1-6.72,19.32c-5.26,5.82-11.44,9.86-19.83,10.58A32.22,32.22,0,0,1,184.75,306a31.57,31.57,0,0,1-8.12-27.55c3.62-20.4,11.53-39.47,18.66-58.77,2.05-5.56,6.73-4.68,10.65-4.08,12.34,1.88,24.7,3.83,36.85,6.65,8.46,2,16.66,5.2,24.84,8.25,15.78,5.87,22,31.83,13.25,45.21-8,12.25-22.7,18-38.61,12.49C241.41,287.92,240.57,287.58,238.85,286.94Zm-31.38-56.1c-2.7,7.25-5.18,13.51-7.37,19.88-2.24,6.53-4.07,13.21-6.33,19.74-1.36,4-3.21,7.74-4.79,11.62a2.4,2.4,0,0,0-.13,1.8c2.29,3.78,4.7,7.49,7,11.24a15.26,15.26,0,0,0,14.19,7c5.74-.32,11.47-3.56,12.77-9.88,1.55-7.52,2.73-15.37,2.27-23-.26-4.18,1.17-4.57,3.47-4.85,7.77,4,15.57,7.46,23.52,10.61,5.7,2.26,10.48-.56,14-4.5,8.8-9.91,1.9-25.79-8.77-28.64-5.93-1.59-11.7-3.89-17.69-5.16C228.94,234.51,218.14,232.78,207.47,230.84ZM227.63,291c4.28-.93,9.63-5.89,9.94-9.37.08-.84-1.13-1.8-2-3.14C232.6,282.89,226.85,284.74,227.63,291Z" fill="#fff"/><path d="M98.76,286.15c-3,1.62-5.12,3.44-7.48,3.9-13.8,2.67-29.44-4.42-34.1-19.3-5.38-17.2,0-30,12.35-39.17,5.55-4.09,13.21-5.68,20.16-7.43,11.78-3,23.74-5.27,35.67-7.6,3.92-.76,8-.59,12-1.11,4.24-.56,6.29,1.79,7.6,5.23,6.77,17.83,14.18,35.48,17.64,54.35C166,293.65,159,309.09,140.9,315.2c-14.53,4.9-27,.57-36.43-13.25a6.65,6.65,0,0,1-.92-2.06c-1-3.86-1.77-7.78-2.93-11.59C100.29,287.19,99,286.37,98.76,286.15Zm34.3-55.23c-5.07.35-9.18.16-13.08,1-9.9,2.16-19.69,4.84-29.55,7.19-8.57,2-16,5.41-19.63,14.31a15.67,15.67,0,0,0,9.57,20.9c2.06.73,4.33,1,4.53,4.4.14,2.38,4.39,2.77,6,.8l-1.47-3.39c6.72-4,13.15-8,19.72-11.71a5.47,5.47,0,0,1,4.36-.22c.8.37,1.11,2.32,1.22,3.6.72,8.06.55,16.28,2.19,24.14,1.59,7.59,8.79,10.92,17.24,9.6,5.85-.92,13.48-9.46,13.87-14.93.58-8.1-1.42-15.72-3.89-23.23C140.55,252.33,136.66,241.38,133.06,230.92Zm-30.62,42.5c-.46,1.18-1.85,3.35-1.4,3.84,1.61,1.77,3.85,3,5.85,4.41.33-.91,1.2-2.24.88-2.64A70.93,70.93,0,0,0,102.44,273.42Z" fill="#fff"/><path d="M240.07,45.91c10.34-5.18,20.69-4.69,30.63.65,7.51,4,11.44,11,13.54,19.13,3.9,15.12-5,34-21.51,39.33a267,267,0,0,1-44.51,10.2c-4.59.67-9.32.87-13.73,2.18s-7.21-.28-8.54-4c-6-16.48-12.37-32.86-17.1-49.7-2.79-9.92-4.24-20.65,1.63-30.65C191.1,15,212.67,9.9,230.09,23.79,235,27.69,239.1,37.35,240.07,45.91Zm-4.3,58.34,1.12-.86c-.14-2.6-2.78-5.93,2-7.06,5.08-1.2,10.1-2.69,15.19-3.85,8.24-1.88,13.47-6.72,15.4-15,1.31-5.61.46-10.57-3.5-15.13-4.24-4.88-9.78-6.34-15.17-4.42-7,2.5-13.42,6.68-20.16,10a5.22,5.22,0,0,1-3.79.45c-.74-.3-1.17-2-1.24-3.17-.42-7-.11-14.16-1.2-21.08-.85-5.37-3.8-10.09-9.6-12.16-6.39-2.29-11.92-.63-16.82,3.51-5.9,5-7.9,11.61-6.1,19,3.74,15.23,8,30.35,14.74,44.58.55,1.15,2,2.85,2.8,2.75a139.32,139.32,0,0,0,18.66-3.11c3.25-.86,4.05.21,5,2.69C233.61,102.48,234.87,103.29,235.77,104.25Zm8.81-54.69-.22,2,8.54,1.35c.1-1.41.73-3.76.2-4.06C250.22,47.25,247.12,46.65,244.58,49.56Zm31.46,41,1.09-7.34c-1.47.18-3.56-.19-4.29.64C270.57,86.4,272.36,88.21,276,90.51Z" fill="#fff"/><path d="M191.15,194.13l5.13,4.18c-.4.49-.61.92-.74.89-7.29-1.41-9.51,4.21-12.17,9-3.11,5.52-5.74,11.32-8.94,16.78-2.61,4.46-6.84,4.09-9.25-.44-3.63-6.81-7.33-13.59-11-20.37-2.79-5.11-6.48-6.24-12.23-5.63a199.58,199.58,0,0,1-22.52.78c-3.38,0-4.85-4.28-2.82-7.63,4.48-7.39,8.83-14.87,13.73-22,1.7-2.46,1.53-4.07.22-6.23-4.31-7.13-8.72-14.21-12.81-21.46-1.06-1.87-2.13-4.84-1.34-6.32s3.9-2.38,6-2.38c8,0,16,.47,23.93.85,3.52.17,5.71-1.25,7.39-4.43q5.84-11.05,12.28-21.79c2.87-4.8,6.16-4.46,8.92.52,4,7.29,8.32,14.46,12.2,21.84,1.9,3.61,4.81,4,8.21,3.83,7.68-.32,15.36-.79,23-.82,1.84,0,4.68,1.05,5.28,2.41.73,1.66.17,4.49-.84,6.22-4.19,7.2-8.92,14.08-13.07,21.31a7.15,7.15,0,0,0-.06,6c4.06,7.45,8.67,14.6,12.8,22,1,1.76,1.68,4.49,1,6.1-.55,1.25-3.46,1.81-5.39,2a86.13,86.13,0,0,1-9.45.08c-3.29,0-6.43.7-8.46-3.67-.92-2-5.14-2.42-7.87-3.56Z" fill="#fff"/><path d="M157.93,150.84l-2.86-2.33c.22-.27.34-.51.41-.5,4.06.79,5.29-2.34,6.77-5,1.73-3.07,3.19-6.3,5-9.34,1.45-2.48,3.81-2.27,5.15.24,2,3.79,4.08,7.56,6.13,11.33,1.55,2.84,3.6,3.47,6.8,3.13a111,111,0,0,1,12.53-.44c1.88,0,2.7,2.38,1.57,4.24-2.49,4.11-4.91,8.27-7.64,12.22a2.72,2.72,0,0,0-.12,3.46c2.4,4,4.85,7.9,7.13,11.94.59,1,1.18,2.69.75,3.52s-2.17,1.32-3.33,1.32c-4.44,0-8.88-.26-13.31-.47a4,4,0,0,0-4.11,2.46q-3.25,6.15-6.83,12.12c-1.6,2.67-3.43,2.48-5-.29-2.25-4.06-4.63-8-6.78-12.15-1.05-2-2.67-2.21-4.57-2.13-4.27.18-8.54.44-12.82.46-1,0-2.6-.59-2.94-1.34a4.43,4.43,0,0,1,.47-3.46c2.33-4,5-7.83,7.27-11.85a4,4,0,0,0,0-3.31c-2.26-4.14-4.82-8.12-7.12-12.24a4.46,4.46,0,0,1-.54-3.39c.31-.69,1.93-1,3-1.11a47.91,47.91,0,0,1,5.26,0c1.83,0,3.57-.39,4.71,2,.51,1.1,2.86,1.34,4.38,2Z" fill="#4a8841"/></g></svg>