<svg xmlns="http://www.w3.org/2000/svg" viewBox="0 0 455.94 111.01"><title>casa coracao 4</title><g id="Layer_1" data-name="Layer 1"><path d="M131.63,63.8a22.57,22.57,0,0,0,1.45-4,7.57,7.57,0,0,1,.26-1.2,13.26,13.26,0,0,0,1.2-2.48c.09-.17.17-.34.26-.34a17.1,17.1,0,0,0,1.71-3.25c.51-.68.85-1.37,1.37-2.05.26-.17.34-.51.51-.77a5.71,5.71,0,0,1,1.11-1.8l.34-.43a19.31,19.31,0,0,1,1.71-2.39,7.38,7.38,0,0,1,1.54-1.71,1.86,1.86,0,0,1,.6-.77c.85-.6,1.71-1.45,2.56-2a2.56,2.56,0,0,1,.94-.6,1.8,1.8,0,0,1,.51-.34,2.17,2.17,0,0,1,1.2-.68,6.43,6.43,0,0,0,1.37-.34,1.44,1.44,0,0,1,.6-.09,2,2,0,0,0,.94-.17,2.38,2.38,0,0,1,.77.09l1.8,1.11a4.82,4.82,0,0,1,1.11.68,2.47,2.47,0,0,1,1,1.28,5.93,5.93,0,0,1,.09,2.74l-.09.85c-.09.85-.43,1.62-.6,2.48v.17a1.6,1.6,0,0,1-.17.6,18.74,18.74,0,0,1-1.45,4.19v.26c-.34.43-.34.94-.77,1.45A5.73,5.73,0,0,0,153,55.6a6.06,6.06,0,0,1-.85,1.2,1.63,1.63,0,0,1-.94.6,10.1,10.1,0,0,0-1.54.34.31.31,0,0,1-.26.09,1.27,1.27,0,0,1-.77-.17,8.1,8.1,0,0,1-.85-.85,2.1,2.1,0,0,1-.43-1.45v-.26a9.16,9.16,0,0,0,.6-1.62.38.38,0,0,1,.26-.34,31.76,31.76,0,0,1,1.62-2.91,10.38,10.38,0,0,0,1-3,1.63,1.63,0,0,1,.26-.77l.26-.77a13.16,13.16,0,0,0,.51-2,.47.47,0,0,0-.26-.43.65.65,0,0,0-.34-.09,1.22,1.22,0,0,0-.51.17,2.55,2.55,0,0,0-.94.6,7.88,7.88,0,0,0-2.39,2.65c-.34.26-.34.68-.77.94l-.6.68a.78.78,0,0,0-.34.68,5.76,5.76,0,0,0-.77,1.2,22.32,22.32,0,0,0-1.62,2.31,1.36,1.36,0,0,1-.26.68c-.34.51-.85,1.11-1.2,1.71-.43.77-.77,1.54-1.28,2.31L139.24,60a23.6,23.6,0,0,0-1.45,3.68c-.17.09-.17.17-.17.26v.26a1.78,1.78,0,0,0-.26,1.11,2.17,2.17,0,0,0-.17.6,2.28,2.28,0,0,0-.26,1,4.1,4.1,0,0,0,0,1,8.36,8.36,0,0,1,.09,1.37c-.09.17.09.34.17.51a.57.57,0,0,0,.6.34h1a2.4,2.4,0,0,0,1.28-.51,25.89,25.89,0,0,0,3.68-2.14,21.65,21.65,0,0,1,2.74-1.8L148,64.66a25,25,0,0,0,2.22-1.8L153.43,60c.17-.17.51-.43.51-.68a3.48,3.48,0,0,1,.85-.77c.09-.09,5.81-5,5.9-5,.17.26-5.3,5.21-5.21,5.38,0,.34,5-4.19,5.3-4.19v.34c0,.09,0,.09-.09.17-.26.43-5.13,5.73-5.3,6.16a2.18,2.18,0,0,1-.77.77.08.08,0,0,0,.09.09l.09.09c.34,0,.77-.68,1-.85,0-.09,3.93-4,4-4s-3.93,4.79-3.93,4.87l-.17.26a6,6,0,0,0-.51.77c-.26.34-.6.51-.6.85s-.34.34-.51.51a1.77,1.77,0,0,0-.17.51,4.72,4.72,0,0,1-.43.68,2,2,0,0,0-.77.94V67l-.26.17a7.48,7.48,0,0,1-.94.77,8.59,8.59,0,0,1-2.39,1.71L147.44,71a25.24,25.24,0,0,1-2.65,1.88c-.17.09-.34.26-.51.26a13.22,13.22,0,0,0-2.05.85,6.2,6.2,0,0,1-2.48.6,2.37,2.37,0,0,1-.77.09,1.55,1.55,0,0,1-.85-.17c-.17,0-.43-.09-.34-.17h-.6a5.4,5.4,0,0,1-2.65-.85c-.17-.09-.34-.26-.51-.26l-1.45-1.37a2,2,0,0,1-.6-1.11,2,2,0,0,0-.34-1.54Z" fill="#fff"/><path d="M181.89,74.32a12.15,12.15,0,0,1-1.62-.09,1.44,1.44,0,0,1-.6-.09A2,2,0,0,0,179,74h-.51l-1.37-.43-.85-.68-2.39-2.65a6.91,6.91,0,0,1-.85-1.54c0-.17-.09-.43-.09-.6.09-.51-.17-1-.09-1.54l-.09-.51a2.35,2.35,0,0,1-.17-1.71v-.77a.3.3,0,0,0-.17-.09c0-.09-.09,0-.09,0l-.26.26-1.11,1.2-1.37,1.54-.17.34a2.79,2.79,0,0,1-.94,1.28c-.43.43-.94.85-1.37,1.37a1,1,0,0,1-.43.43l-2,1.11a2.63,2.63,0,0,1-1.11.26c-.43,0-.85-.09-1.28-.09a.72.72,0,0,1-.6-.17,1.71,1.71,0,0,0-.68-.34,2.51,2.51,0,0,1-.85-.17,1.41,1.41,0,0,1-1-.43,1.7,1.7,0,0,1-.94-1.2c0-.51-.09-.94-.09-1.54a.72.72,0,0,0-.17-.6c0-.09-.09-.17-.17-.26a1,1,0,0,1-.17-.68,12.63,12.63,0,0,1,1-4,12.85,12.85,0,0,1,1.2-3,2,2,0,0,1,.51-.94c.51-1,1.2-2,1.62-3,.17-.09.17-.09.17-.17a29.58,29.58,0,0,0,1.71-2.74l.6-1.11.26-.34c.51-.85,1.11-1.71,1.71-2.56l.34-.43a5.69,5.69,0,0,1,1.11-1.8c.51-.68,1-1.37,1.45-2.05a3.25,3.25,0,0,1,.94-.94l.77-.6a2.23,2.23,0,0,1,.77-.43.74.74,0,0,0,.51-.26,3,3,0,0,1,1.45-.77,2.18,2.18,0,0,0,.6-.17h.34l2.82,1a1.22,1.22,0,0,0,.51.17,2.53,2.53,0,0,1,1.28.6.71.71,0,0,1,.26.68.52.52,0,0,1,.09.34c.09.09.09.09.17.09h.09l1.11-.94c.09-.17.17-.26.26-.26h.09a.45.45,0,0,1,.34.17c.17,0,.26.09.34.09a1.89,1.89,0,0,0,.68.09.78.78,0,0,1,.6.26A1.13,1.13,0,0,0,184,43a.68.68,0,0,1,.68.43,1.77,1.77,0,0,0,.34.51c.34.43.51.68.51.94l-.26.77-1.2,3L183.17,51c-.6,1.45-1,3-1.54,4.45-.26.85-.68,1.62-.94,2.48a5.42,5.42,0,0,0-.51,1.54c-.17.51-.26,1-.51,1.62A28.89,28.89,0,0,0,178.9,64a1.61,1.61,0,0,1-.17.68,5,5,0,0,0-.17,1.11l-.09.43.17,1.54c-.09.17-.09.26,0,.34a3.88,3.88,0,0,1,.26,1.37l.34.51a1.22,1.22,0,0,0,.51.17H180c.17-.09.26-.17.43-.17a.64.64,0,0,1,.34-.17c.09,0,.17.09.26.09s.34,0,.34-.09a7.48,7.48,0,0,1,1.54-.94,1.26,1.26,0,0,0,.51-.43l1.2-1a1.53,1.53,0,0,1,.6-.43,6.45,6.45,0,0,0,1.37-1.28.92.92,0,0,1,.43-.34,19.13,19.13,0,0,0,2.31-2.91c.51-.77,1-1.54,1.45-2.31A17.65,17.65,0,0,0,192.06,58l.26-.6A25.75,25.75,0,0,0,194,54.49l.34-1c.51-1.11,1.11-2.14,1.71-3.16l.34-.34c.34-.26.51-.6.85-.68a.32.32,0,0,1,.26.09c.17.26.09.68.17.94a9.43,9.43,0,0,0,.17,1.62l-.17,1.54c0,.17,0,.34.17.43l.09.68a.66.66,0,0,0,.17.68.57.57,0,0,1,.09.51.65.65,0,0,1-.09.34,3.48,3.48,0,0,1-.43.77,15,15,0,0,0-.77,1.71,2,2,0,0,0-.17.68v.34c-.09.09,0,.17,0,.26s-.09.17-.09.26a23.42,23.42,0,0,1-1.45,2.48,5.19,5.19,0,0,0-.94,1.8,4.56,4.56,0,0,1-.43.94c-.51.6-1.11,1.2-1.62,1.88a48.55,48.55,0,0,1-4.27,4.1,30.2,30.2,0,0,1-2.91,2.05l-1.2.6a3.35,3.35,0,0,1-1.54.34ZM162.74,66v.09c-.09.09-.09.09,0,.09a.66.66,0,0,0,.26-.09,2.78,2.78,0,0,0,.77-.68l.43-.51a16,16,0,0,0,2.14-2.05l1.62-1.8a38.08,38.08,0,0,0,2.74-3.76l1.54-1.8,2.31-3.59a5.3,5.3,0,0,0,.94-1.45l.68-1.28L178.21,46l.26-.6v-.09a.31.31,0,0,0-.09-.26,1.28,1.28,0,0,0-.6-.26l-1-.17a.77.77,0,0,0-.43-.09,1.57,1.57,0,0,0-.6.17c-.17.17-.43.26-.6.51l-.43.51a10.63,10.63,0,0,0-1.62,1.8l-1.37,1.88a6.87,6.87,0,0,0-1.11,1.62,1.14,1.14,0,0,1-.43.51L169,53.63a4,4,0,0,1-.6,1l-1.88,3a.47.47,0,0,1-.26.43,2.65,2.65,0,0,1-.51,1.11,35.35,35.35,0,0,0-2.48,4.7,8,8,0,0,0-.34,1.37A2.49,2.49,0,0,0,162.74,66Z" fill="#fff"/><path d="M212.23,54.91c-.43.43-1,.6-1.54,1a.6.6,0,0,0-.43.34l-.17.34a.27.27,0,0,0,.17.09l1.62-.94a3.31,3.31,0,0,0,.94-.43,20.85,20.85,0,0,1,4.36-2.48.86.86,0,0,1,.09.26c-.26.17-.34.51-.6.68-.34.51-3.25,2.31-3.51,2.82a1.89,1.89,0,0,1-.94,1.2l-2.31,2a1.57,1.57,0,0,1-1.11.77h-.17c-.09,0-.09.09-.17.17s-1.2.77-1.2.85c-.34.26-.51.34-.6.6a.65.65,0,0,0,.09.34,4.09,4.09,0,0,1,.34,1.54c-.09.85-.17,1.8-.17,2.74l-.09.17a4.6,4.6,0,0,0-.51,1.54,8.16,8.16,0,0,1-1.11,1.71c-.6.51-1,1.11-1.54,1.62a22.92,22.92,0,0,0-2.82,2.22c-.68.17-1,.51-1.54.6l-2.91,1.11a23.1,23.1,0,0,1-3.5.85h-.51a13.25,13.25,0,0,1-1.62-.17c-.09,0-.17-.26-.43-.34-.09-.51-.43-.77-.85-1.11a.27.27,0,0,1-.26-.26c-.09-.17-.26-.26-.34-.43l.26-.17a.93.93,0,0,1,.09-.43v-.43a3.45,3.45,0,0,1,0-.94v-.77a8.05,8.05,0,0,1,.43-1.54,3.53,3.53,0,0,1,.94-1c.34-.51.68-1.28,1-1.71a14.3,14.3,0,0,0,2.05-1.62s.09,0,.09-.17c.77-.17,1.28-.85,1.88-1.37.85-.68,2-.77,2.91-1.45l.51-.34c1.11-.85,1.71-.94,1.8-1.11s-.26-.34-.85-.94a15,15,0,0,0-2.56-2.05c-.68-.6-1.54-1.11-2.39-1.8a10,10,0,0,1-2.39-3.25,4.71,4.71,0,0,1-.09-1.88,3,3,0,0,1,.17-.85A5.92,5.92,0,0,1,194.46,47l.68-1c.09-.09.17-.26.34-.34,1.11-.94,2.05-2.05,3.16-2.82s1.88-1.45,2.74-2.14c2-1.37,4.1-2.48,6.15-3.93H208a3.76,3.76,0,0,1,2.56-.77h.68a6.42,6.42,0,0,0,1.37-.09,1.65,1.65,0,0,1,.85-.26,2.46,2.46,0,0,1,1.2.34c.09,0,.09,0,.26.34.09.09,0,.43.09.68.26,0,.6.09.68.34.34.17.34.43.51.6a2.53,2.53,0,0,0,.51,1.54c.09,0,.09.17.09.17-.26.43-.77.6-1,.94-.94,0-1.71.68-2.74.68-.17,0-.34.09-.51.09-1,.77-2.48,1-3.42,1.62a.32.32,0,0,1-.26.09h-.09c-1.11,1.11-2.91,1.28-3.93,2.48-.09.26-.6.43-.85.68a7.85,7.85,0,0,0-2.31,1.37A15.51,15.51,0,0,0,198,51c-.26.09-.34.17-.34.43,0,.09-.17.17-.17.26a.65.65,0,0,0,.17.34c.43.34.77.94,1.2,1.2a18,18,0,0,1,3.08,2.31L205,58.42c.09.09.09.17.17.17s.17-.09.26-.09a4.58,4.58,0,0,0,1.11-.6,14.72,14.72,0,0,1,2.65-1.62c.77-.51,1.2-1,2-1.54.34-.09,3.42-1.62,3.93-1.8a.08.08,0,0,1,.09-.09.65.65,0,0,1,.34.17A31.66,31.66,0,0,1,212.23,54.91ZM201.89,65.68l-.09-.09c-.09,0-.51,0-.6-.09l-.17.17a35.55,35.55,0,0,1-5,3.25l-1.88,2c-.51.17-.6.43-.6.6v.17c-.09.34.26.51.51.51.09-.09.09-.17.17-.17a.3.3,0,0,0,.17.09,26.85,26.85,0,0,0,4.19-2.48c.34-.26.68-.34.77-.6a11,11,0,0,0,2.31-2.65C201.72,66.2,201.89,65.94,201.89,65.68Zm14-13.25H216v.26l-.34.26Z" fill="#fff"/><path d="M236.17,74.32a12.15,12.15,0,0,1-1.62-.09,1.44,1.44,0,0,1-.6-.09,2,2,0,0,0-.68-.17h-.51l-1.37-.43-.85-.68-2.39-2.65a6.91,6.91,0,0,1-.85-1.54c0-.17-.09-.43-.09-.6.09-.51-.17-1-.09-1.54L227,66a2.35,2.35,0,0,1-.17-1.71v-.77a.3.3,0,0,0-.17-.09c0-.09-.09,0-.09,0l-.26.26-1.11,1.2-1.37,1.54-.17.34a2.8,2.8,0,0,1-.94,1.28c-.43.43-.94.85-1.37,1.37a1,1,0,0,1-.43.43L219,71a2.63,2.63,0,0,1-1.11.26c-.43,0-.85-.09-1.28-.09A.72.72,0,0,1,216,71a1.71,1.71,0,0,0-.68-.34,2.51,2.51,0,0,1-.85-.17,1.41,1.41,0,0,1-1-.43,1.7,1.7,0,0,1-.94-1.2c0-.51-.09-.94-.09-1.54a.72.72,0,0,0-.17-.6c0-.09-.09-.17-.17-.26a1,1,0,0,1-.17-.68,12.63,12.63,0,0,1,1-4,12.85,12.85,0,0,1,1.2-3,2,2,0,0,1,.51-.94c.51-1,1.2-2,1.62-3,.17-.09.17-.09.17-.17a29.58,29.58,0,0,0,1.71-2.74l.6-1.11.26-.34c.51-.85,1.11-1.71,1.71-2.56l.34-.43a5.68,5.68,0,0,1,1.11-1.8c.51-.68,1-1.37,1.45-2.05a3.25,3.25,0,0,1,.94-.94l.77-.6a2.23,2.23,0,0,1,.77-.43.74.74,0,0,0,.51-.26,3,3,0,0,1,1.45-.77,2.18,2.18,0,0,0,.6-.17H229l2.82,1a1.22,1.22,0,0,0,.51.17,2.53,2.53,0,0,1,1.28.6.71.71,0,0,1,.26.68.52.52,0,0,1,.09.34c.09.09.09.09.17.09h.09l1.11-.94c.09-.17.17-.26.26-.26h.09a.45.45,0,0,1,.34.17c.17,0,.26.09.34.09a1.89,1.89,0,0,0,.68.09.78.78,0,0,1,.6.26,1.13,1.13,0,0,0,.68.26.68.68,0,0,1,.68.43,1.77,1.77,0,0,0,.34.51c.34.43.51.68.51.94l-.26.77-1.2,3L237.45,51c-.6,1.45-1,3-1.54,4.45-.26.85-.68,1.62-.94,2.48a5.44,5.44,0,0,0-.51,1.54c-.17.51-.26,1-.51,1.62a28.89,28.89,0,0,0-.77,2.91,1.6,1.6,0,0,1-.17.68,5,5,0,0,0-.17,1.11l-.09.43.17,1.54c-.09.17-.09.26,0,.34a3.87,3.87,0,0,1,.26,1.37l.34.51a1.22,1.22,0,0,0,.51.17h.26c.17-.09.26-.17.43-.17a.64.64,0,0,1,.34-.17c.09,0,.17.09.26.09s.34,0,.34-.09a7.49,7.49,0,0,1,1.54-.94,1.26,1.26,0,0,0,.51-.43l1.2-1a1.53,1.53,0,0,1,.6-.43,6.45,6.45,0,0,0,1.37-1.28.92.92,0,0,1,.43-.34,19.17,19.17,0,0,0,2.31-2.91c.51-.77,1-1.54,1.45-2.31A17.65,17.65,0,0,0,246.34,58l.26-.6a25.75,25.75,0,0,0,1.71-2.91l.34-1c.51-1.11,1.11-2.14,1.71-3.16l.34-.34c.34-.26.51-.6.85-.68a.32.32,0,0,1,.26.09c.17.26.09.68.17.94a9.43,9.43,0,0,0,.17,1.62L252,53.46c0,.17,0,.34.17.43l.09.68a.66.66,0,0,0,.17.68.57.57,0,0,1,.09.51.65.65,0,0,1-.09.34,3.48,3.48,0,0,1-.43.77,15,15,0,0,0-.77,1.71,2,2,0,0,0-.17.68v.34c-.09.09,0,.17,0,.26s-.09.17-.09.26a23.51,23.51,0,0,1-1.45,2.48,5.18,5.18,0,0,0-.94,1.8,4.54,4.54,0,0,1-.43.94c-.51.6-1.11,1.2-1.62,1.88a48.55,48.55,0,0,1-4.27,4.1,30.13,30.13,0,0,1-2.91,2.05l-1.2.6a3.35,3.35,0,0,1-1.54.34ZM217,66v.09c-.09.09-.09.09,0,.09a.66.66,0,0,0,.26-.09,2.77,2.77,0,0,0,.77-.68l.43-.51a16,16,0,0,0,2.14-2.05l1.62-1.8A38.08,38.08,0,0,0,225,57.31l1.54-1.8,2.31-3.59a5.3,5.3,0,0,0,.94-1.45l.68-1.28L232.49,46l.26-.6v-.09a.31.31,0,0,0-.09-.26,1.28,1.28,0,0,0-.6-.26l-1-.17a.77.77,0,0,0-.43-.09,1.57,1.57,0,0,0-.6.17c-.17.17-.43.26-.6.51l-.43.51a10.65,10.65,0,0,0-1.62,1.8L226,49.44a6.85,6.85,0,0,0-1.11,1.62,1.14,1.14,0,0,1-.43.51l-1.2,2.05a4,4,0,0,1-.6,1l-1.88,3a.47.47,0,0,1-.26.43,2.65,2.65,0,0,1-.51,1.11,35.35,35.35,0,0,0-2.48,4.7,8,8,0,0,0-.34,1.37A2.49,2.49,0,0,0,217,66Z" fill="#fff"/><path d="M262.67,63.8a22.57,22.57,0,0,0,1.45-4,7.57,7.57,0,0,1,.26-1.2,13.26,13.26,0,0,0,1.2-2.48c.09-.17.17-.34.26-.34a17.1,17.1,0,0,0,1.71-3.25c.51-.68.85-1.37,1.37-2.05.26-.17.34-.51.51-.77a5.71,5.71,0,0,1,1.11-1.8l.34-.43a19.31,19.31,0,0,1,1.71-2.39,7.37,7.37,0,0,1,1.54-1.71,1.86,1.86,0,0,1,.6-.77c.85-.6,1.71-1.45,2.56-2a2.56,2.56,0,0,1,.94-.6,1.8,1.8,0,0,1,.51-.34,2.17,2.17,0,0,1,1.2-.68,6.43,6.43,0,0,0,1.37-.34,1.44,1.44,0,0,1,.6-.09,2,2,0,0,0,.94-.17,2.38,2.38,0,0,1,.77.09l1.8,1.11a4.82,4.82,0,0,1,1.11.68,2.47,2.47,0,0,1,1,1.28,5.93,5.93,0,0,1,.09,2.74l-.09.85c-.09.85-.43,1.62-.6,2.48v.17a1.6,1.6,0,0,1-.17.6,18.74,18.74,0,0,1-1.45,4.19v.26c-.34.43-.34.94-.77,1.45A5.73,5.73,0,0,0,284,55.6a6.06,6.06,0,0,1-.85,1.2,1.63,1.63,0,0,1-.94.6,10.1,10.1,0,0,0-1.54.34.31.31,0,0,1-.26.09,1.27,1.27,0,0,1-.77-.17,8.1,8.1,0,0,1-.85-.85,2.1,2.1,0,0,1-.43-1.45v-.26a9.11,9.11,0,0,0,.6-1.62.38.38,0,0,1,.26-.34,31.9,31.9,0,0,1,1.62-2.91,10.38,10.38,0,0,0,1-3,1.63,1.63,0,0,1,.26-.77l.26-.77a13.16,13.16,0,0,0,.51-2,.47.47,0,0,0-.26-.43.65.65,0,0,0-.34-.09,1.22,1.22,0,0,0-.51.17,2.55,2.55,0,0,0-.94.6,7.88,7.88,0,0,0-2.39,2.65c-.34.26-.34.68-.77.94l-.6.68a.78.78,0,0,0-.34.68,5.76,5.76,0,0,0-.77,1.2,22.32,22.32,0,0,0-1.62,2.31,1.36,1.36,0,0,1-.26.68c-.34.51-.85,1.11-1.2,1.71-.43.77-.77,1.54-1.28,2.31L270.28,60a23.54,23.54,0,0,0-1.45,3.68c-.17.09-.17.17-.17.26v.26a1.78,1.78,0,0,0-.26,1.11,2.17,2.17,0,0,0-.17.6,2.28,2.28,0,0,0-.26,1,4.1,4.1,0,0,0,0,1,8.36,8.36,0,0,1,.09,1.37c-.09.17.09.34.17.51a.57.57,0,0,0,.6.34h1a2.4,2.4,0,0,0,1.28-.51,25.89,25.89,0,0,0,3.68-2.14,21.61,21.61,0,0,1,2.74-1.8L279,64.66a25,25,0,0,0,2.22-1.8L284.47,60c.17-.17.51-.43.51-.68a3.49,3.49,0,0,1,.85-.77c.09-.09,5.81-5,5.9-5,.17.26-5.3,5.21-5.21,5.38,0,.34,5-4.19,5.3-4.19v.34c0,.09,0,.09-.09.17-.26.43-5.13,5.73-5.3,6.16a2.18,2.18,0,0,1-.77.77.08.08,0,0,0,.09.09l.09.09c.34,0,.77-.68,1-.85,0-.09,3.93-4,4-4s-3.93,4.79-3.93,4.87l-.17.26a6,6,0,0,0-.51.77c-.26.34-.6.51-.6.85s-.34.34-.51.51a1.77,1.77,0,0,0-.17.51,4.72,4.72,0,0,1-.43.68,2,2,0,0,0-.77.94V67l-.26.17a7.48,7.48,0,0,1-.94.77,8.6,8.6,0,0,1-2.39,1.71L278.48,71a25.24,25.24,0,0,1-2.65,1.88c-.17.09-.34.26-.51.26a13.22,13.22,0,0,0-2.05.85,6.2,6.2,0,0,1-2.48.6,2.37,2.37,0,0,1-.77.09,1.55,1.55,0,0,1-.85-.17c-.17,0-.43-.09-.34-.17h-.6a5.4,5.4,0,0,1-2.65-.85c-.17-.09-.34-.26-.51-.26l-1.45-1.37a2,2,0,0,1-.6-1.11,2,2,0,0,0-.34-1.54Z" fill="#fff"/><path d="M289.51,66c.09-.94.17-1.71.26-2.56l.09-1.28a1.09,1.09,0,0,0,.09-.51l.09-1.11.17-.51a8.19,8.19,0,0,1,.26-.94,1,1,0,0,0,.34-.77c0-.17.26-.17.34-.51.26-.85.68-1.62.94-2.31,0-.43,0-.6.43-.77.09,0,.17-.34.17-.43a.91.91,0,0,0,.17-.51.64.64,0,0,1,.09-.43c.34-.17.51-.34.51-.68a.63.63,0,0,1,.26-.26c.51-.17.77-.43.77-.77.17-.34.34-.68.6-.68h.09c.09,0,.09-.17.09-.17l.09-.09c0-.26,1.11-1.28,3.59-3.5l.09.09c.26,0,.77-.77,1.11-.77h.68c.77,0,1.45,1,2.39,2.05a.5.5,0,0,0,.09.34c-.26,0-.26.09-.26.17l-.09.17c.17.17.09.77.43.77a.3.3,0,0,1,.17.09c.09.17,0,.09,0,.09a.77.77,0,0,0-.43.09v.17c-.17.43-.17.43-.6.43a2.38,2.38,0,0,0-.77-.09c-.43.17-.6.51-.85.77a.27.27,0,0,0-.26.26c-.6.09-.85.6-1.11.85s-.51.43-.6.6.09.09.09.17-.09.26-.17.26l-.09.68c-.43.77-.85,1.28-1.37,2.14a10.24,10.24,0,0,0-.94,1.71A24.58,24.58,0,0,0,295,62.69c-.09.17-.17.26-.17.34v.34a.65.65,0,0,1,.09.34l-.17,1a1.27,1.27,0,0,1-.17.77v.09c0,.26.09.51.09.68l.09,1.71v.6c0,.26,0,.34.17.34a.93.93,0,0,0,.43-.09c.34-.17.68-.09.77-.17h.26a.65.65,0,0,0,.34-.09h.09c.09-.43.6-.43.85-.43l1.28-1.54c.34,0,.26-.43.6-.43h.09c.09,0,.17-.17.17-.17v-.34c.09-.43.43-.6.68-1a1.25,1.25,0,0,1,.34-.17c.09,0,.09.09.17.09.26,0,.34-.26.43-.68a1.86,1.86,0,0,0,.51-.6c.09-.09.09-.17.17-.17a.26.26,0,0,1,.17.09c.09,0,.17,0,.17-.09.17-.17.43-.26.43-.43.09-.43.17-.68.34-.77a.31.31,0,0,0,.09-.26v-.26c.17-.26.26-.77.51-.94v-.09a.08.08,0,0,1,.09-.09l.17-.09V60c.09-.43.34-.51.51-.94l.43-.6c0-.09.17-.26.17-.43s0-.17,0-.26v-.43c.43-.51.43-1.2.68-1.71a12.29,12.29,0,0,0,.85-3.16,14.55,14.55,0,0,0,.34-1.88l.09-.77c0-1-.51-1.45-.85-2.22a1.44,1.44,0,0,0-.6-.77c-.34-.34-.51-.77-.85-.85l-.34-.43c-.09-.09-.17-.17-.26-.17s-.09.17-.09.26l-.09.17a.3.3,0,0,1-.17-.09c0-.17-.09-.26-.26-.34s-.09-.26-.17-.26-.09.09-.17.17a.3.3,0,0,0-.17-.09c.09-.26.09-.77.34-.77a.86.86,0,0,1,.26-.09h.09a.31.31,0,0,0,.26.09c.09,0,.09-.09.17-.17l.34-.26L304.3,44h-.09c-.17,0-.17-.09-.17-.09,0-.17.17-.34.17-.43a.3.3,0,0,1,.17-.09.08.08,0,0,0,.09.09c.17,0,.26.09.34.09.26,0,.43-.09.77-.43.09.17.09.17.17.17.43,0,.77-.43,1-.6h.34a8.81,8.81,0,0,0,2.05-.43,8.57,8.57,0,0,1,2.22-.85.31.31,0,0,1,.26-.09H312a1.14,1.14,0,0,0,.68-.26h.26a4.05,4.05,0,0,0,1.11-.94c.17-.34.51-.09.6-.43l1.88-1.2c.68-.34.94-.94,1.37-1.28.17-.09.17-.26.26-.26a.3.3,0,0,0,.17.09h.09c.09,0,.09,0,.09-.09.17-.26.43-.26.43-.51v-.09a.39.39,0,0,1,.26-.26c.09.09.09.09.17.09.26,0,.43-.43.68-.43s.26-.26.34-.34a.85.85,0,0,1,.34-.09.3.3,0,0,0,.09.17l.09-.26c.09-.34.09-.6.17-.6a.3.3,0,0,1,.17.09c.17,0,.09-.26.34-.43a2,2,0,0,0,1.11-.94c.09-.34.43-.34.43-.43a.68.68,0,0,0,.51-.68v-.43c.17-.68.51-.85.85-1.37a.86.86,0,0,1,.26-.09l-.09.09-.09.26V31h-.09c-.26.09-.6.26-.6.51,0,.09.09.09.09.17A1.94,1.94,0,0,0,324,32a6.32,6.32,0,0,0,.43-.77v.51l.17-.26.09-.94.17-.34v-.09l.68-.6.6-1.11c-.09,0-.09-.09-.09-.17s0-.09.09-.17a1.09,1.09,0,0,0,.34.51l-.09.34c.17,0,.26,0,.34-.09a1.32,1.32,0,0,0,.26-.51c0-.09-.09-.17-.17-.34l.09-.26c.09,0,.17-.17.17-.09.17.26.26.43.43.51l.17.17c.09,0,.09-.09.17-.17a5.91,5.91,0,0,1,1.28-.6c.17-.17.26-.17.34-.17a.65.65,0,0,1,.34.09l1.11.77a2,2,0,0,1,.94.94c.09.09.17.17.17.26a.71.71,0,0,0-.26.68c-.26.43-.51,1.11-.77,1.45A13.77,13.77,0,0,0,329.6,34a14.44,14.44,0,0,1-1.11,2.65,9.52,9.52,0,0,0-1.11,2.05,2,2,0,0,0-.26.6,19.68,19.68,0,0,1-1.54,3.68c-.34.77-.6,1.71-1,2.48l-.94,2.74A19.34,19.34,0,0,0,322,51.75c-.34.85-.68,1.62-.94,2.48v.09a.3.3,0,0,1-.17-.09l-.09.94c-.51,1.28-.77,2.48-1.28,3.85v.43c0,.09,0,.17.09.17v.26a4.14,4.14,0,0,0-.6,1.54c0,.09.09.09.17.17l.17-.17c.17-.43.43-.68.6-1.11v-.09s.17.17.17.09v-.09a1.13,1.13,0,0,1,.26-.6l.34-.51c0-.17.26-.26.26-.51s.34-.43.51-.6a5,5,0,0,0,.51-.34,11,11,0,0,1,.94-2.05l.26-.43c.34-.09.51-.09.51-.26v-.17l.17-.34H324c.17,0,.17-.09.17-.17l.09-.51.17-.26a1.86,1.86,0,0,0,.85-.94l.51-.43V52a.27.27,0,0,1,.09-.17l.09-.34.26.26.09-.26c.09,0,.17-.09.26-.09s.17-.09.17-.26-.09-.17-.09-.26-.09,0-.09-.09a.66.66,0,0,0,.17-.43c.43-.09.68-.43,1-.85a.65.65,0,0,0,.17-.34c.26-.17.09-.43.34-.43s.17-.34.34-.6c.34-.34.43-.77.85-.85a1.23,1.23,0,0,1,.51-.6,5.13,5.13,0,0,0,.94-1c0-.17,0-.26.09-.26s.17.09.26.26h.09c.09,0,.09,0,.09-.09v-.17c.26-.17.43-.43.51-.43.26,0,.17-.43.34-.6a.67.67,0,0,1,.6-.26.88.88,0,0,0,.51-.43c.26-.26.43-.43.68-.43a.26.26,0,0,1,.17.09l-.09.09h-.09c-.17.17-.43.17-.43.26l.09.09V44h.09c.17-.17.43-.17.43-.51l.09-.17c0-.17.09-.17.09-.17s.17.17.26.17.09,0,.17-.26.26-.26.34-.34h.26c0,.09,0,.09-.17.17a.31.31,0,0,1-.09.26h.34a.46.46,0,0,0,.26-.34v-.09c.09-.17.17-.26.26-.26s.09.09.17.09.09.09.17.09a1.46,1.46,0,0,0,.43-.17c.26-.17.51,0,.68-.34a.31.31,0,0,1,.26-.09.92.92,0,0,1,.51.17h.6a3.37,3.37,0,0,1,1.71.43c.26.09.34.09.34.34V43a.3.3,0,0,1,.17-.09.75.75,0,0,1,.43.34c-.09.26.26.26.43.51.34.17.6.34.51.85.09.09.17.26.26.26a1.9,1.9,0,0,1,.09.77l-.09.34c-.09.09-.09.09-.09.17v.09a2.21,2.21,0,0,0-.34.85v.09c0,.09,0,.09-.09.09h-.09l-.09-.09c-.09,0-.09.09-.09.26-.26-.09-.34-.17-.43-.17s-.09,0-.17.09-.17.26-.26.26-.17-.09-.26-.26c-.26-.17-.34-.34-.51-.34a.31.31,0,0,0-.26.09.49.49,0,0,1-.85,0,.08.08,0,0,1-.09-.09.08.08,0,0,1-.09-.09c-.09.09-.09.09-.09.17s-.09.09-.17.09h-.09a.64.64,0,0,1-.09-.43c-.09-.09-.09-.09-.17-.09s-.17,0-.17.09a.86.86,0,0,0-.26-.09c.09-.09,0-.09-.09-.09a25.58,25.58,0,0,0-2.22,1.28.08.08,0,0,0-.09.09.08.08,0,0,1-.09-.09l-.09-.09c-.09,0-.09.09-.17.34-.09.51-.68.68-1.11.85.09.09-.09,0,0,.09-.6.85-1.28.94-1.54,1.45a4.28,4.28,0,0,1-.85,1.2L330,53.8l-.51.85-.09.09h-.09a.18.18,0,0,0-.17.17l-.51.6a.58.58,0,0,0-.26.51c-.09.26-.17.26-.26.26s-.17,0-.17.09l-.09.26c0,.17-.26.09-.43.26a.85.85,0,0,1,.09.26c-.17.17-.09.43-.34.43h-.26V58c-.17.09-.26.17-.26.34l-.85,1.37h-.09c0,.17-.34.09-.34.26a.32.32,0,0,0,.09.26c-.17.26-.43.34-.43.51l-.6.77a2.62,2.62,0,0,1-.34.77l-.26.68a2,2,0,0,1-.6.85c-.51,1.11-1.11,2.39-1.71,3.42a3.33,3.33,0,0,1-.17.51c-.17.17-.34.26-.34.34s.09.09.17.17v.09a.3.3,0,0,1-.09.17l-1,1.62a3.33,3.33,0,0,1-.51.94,10.82,10.82,0,0,1-1.11,2.22,6.19,6.19,0,0,1-.94,1.62c-.17.17-.51.17-.68.34s-.17.26-.26.26h-.34a2.75,2.75,0,0,0-1.54.51l-.09.09c-.09,0-.17,0-.09-.17-.09-.26-.17-.34-.26-.34s-.09,0-.17.09-.17.17-.26.17a.08.08,0,0,1-.09-.09l-.43-.26a.65.65,0,0,1-.09-.34c.09-.43-.43-.6-.51-.94a.64.64,0,0,0-.34-.17h-.09c.09,0,.09-.09.17-.09l-.17-.6a1.7,1.7,0,0,1-.09-.94c0-.09.09-.09.09-.17s-.17-.26-.43-.26v-.09c.34-.34.34-.43.34-.6l.17-1.54a.65.65,0,0,1,.09-.34c.09-.26,0-.26,0-.51l.77-4.1a18.79,18.79,0,0,1,.43-2.14v-.26c-.09,0-.17,0-.17-.09a.08.08,0,0,1-.09.09l-.17.26v-.26a2.24,2.24,0,0,1,.26-.68A1,1,0,0,0,314,61c0-.17-.09-.43,0-.6a.52.52,0,0,1-.09-.34c0-.09,0-.17.17-.34s.17-.77.51-.94a.91.91,0,0,0,.17-.51c0-.09.09-.26,0-.26a.55.55,0,0,1-.17-.43.31.31,0,0,1,.09-.26.47.47,0,0,0,.26-.43v-.43a4.35,4.35,0,0,1,.6-1.45c-.09,0,0-.09.17-.09s.26-.17.26-.26a.52.52,0,0,0-.09-.34v-.26a6.39,6.39,0,0,1,.43-1.37,13.54,13.54,0,0,0,1.11-2.91l.77-1.88a27.4,27.4,0,0,0,1.37-3.33V44.4c0-.17.17-.34.26-.6a3.72,3.72,0,0,0,.43-1l.09-.09h.09l.26-.26-.09-.26h-.34q-1.15.26-1.28,1.8c0,.09-.09.17-.26.26l-.09.09a.12.12,0,0,1,0-.17,1.27,1.27,0,0,0,.09-.6l.09-.43h-.26c-.26.26-.68.77-1,.85a18.84,18.84,0,0,0-1.71.94.91.91,0,0,1-.51.17c-.09,0-.26,0-.26-.09l-.17.09a.26.26,0,0,1,.09.17c0,.09-.26,0-.34.17a1.85,1.85,0,0,1-.6.51l-.09.09c-.09,0-.17-.09-.17-.26h-.09a2,2,0,0,1-1.28.6c-.43.17-.6.26-.68.43a1.71,1.71,0,0,0,.26.68,1.78,1.78,0,0,1,.09.94v.17c0,.17.17.43.09.6-.09,0-.09.09-.09.17s0,.43.09.51c-.09.09,0,.26,0,.34,0,.34-.26.68-.26,1.11v.43a2.16,2.16,0,0,1,.17,1l-.26,1.11a13,13,0,0,1-.94,3.25c-.09.17-.17.26-.17.43v.09a1.23,1.23,0,0,1-.17.6c-.26.51-.26,1.37-1,1.88v.26a6.11,6.11,0,0,1-.85,2c-.17,0-.26.34-.26.51-.26.51-.51,1.2-.85,1.8a10.73,10.73,0,0,1-.68,1c-.34.43-.34,1.2-1,1.54-.09.51-.43.68-.68,1l-1.45,2.05-.43.43h-.43v.17c-.09.26-.17.26-.34.43a8.06,8.06,0,0,1-2,1.71,3.59,3.59,0,0,1-1.88.68h-.17c-.09.17-.09.17-.09.26a1.89,1.89,0,0,1-.68.09c-.51.17-1.37.17-1.62.26l-.43-.17-.26-.17a.66.66,0,0,0-.26-.09H295c-.09,0-.09.09-.17.09a.46.46,0,0,1-.34-.26.08.08,0,0,0-.09-.09h-.17s-.26,0-.34-.09c-.09-.6-.68-.68-.77-.94-.26-.09-.34-.17-.43-.17s-.09.09-.17.26a.08.08,0,0,1-.09.09c-.09,0-.09,0-.09-.09-.34-.43-.6-1.2-1.11-1.2-.26-.09-.26-.34-.43-.34a1.9,1.9,0,0,1-.26-.68c-.09,0-.09-.26-.17-.43l-.77-3.16Zm34.87-33.93-.09.26-.09.17v-.43l.26-.34Z" fill="#fff"/><path d="M359.43,74.32a12.15,12.15,0,0,1-1.62-.09,1.44,1.44,0,0,1-.6-.09,2,2,0,0,0-.68-.17H356l-1.37-.43-.85-.68-2.39-2.65a6.91,6.91,0,0,1-.85-1.54c0-.17-.09-.43-.09-.6.09-.51-.17-1-.09-1.54l-.09-.51a2.35,2.35,0,0,1-.17-1.71v-.77a.3.3,0,0,0-.17-.09c0-.09-.09,0-.09,0l-.26.26-1.11,1.2-1.37,1.54-.17.34a2.8,2.8,0,0,1-.94,1.28c-.43.43-.94.85-1.37,1.37a1,1,0,0,1-.43.43l-2,1.11a2.63,2.63,0,0,1-1.11.26c-.43,0-.85-.09-1.28-.09a.72.72,0,0,1-.6-.17,1.71,1.71,0,0,0-.68-.34,2.51,2.51,0,0,1-.85-.17,1.41,1.41,0,0,1-1-.43,1.7,1.7,0,0,1-.94-1.2c0-.51-.09-.94-.09-1.54a.72.72,0,0,0-.17-.6c0-.09-.09-.17-.17-.26a1,1,0,0,1-.17-.68,12.63,12.63,0,0,1,1-4,12.85,12.85,0,0,1,1.2-3,2,2,0,0,1,.51-.94c.51-1,1.2-2,1.62-3,.17-.09.17-.09.17-.17a29.58,29.58,0,0,0,1.71-2.74l.6-1.11.26-.34c.51-.85,1.11-1.71,1.71-2.56l.34-.43a5.68,5.68,0,0,1,1.11-1.8c.51-.68,1-1.37,1.45-2.05a3.25,3.25,0,0,1,.94-.94l.77-.6a2.23,2.23,0,0,1,.77-.43.74.74,0,0,0,.51-.26,3,3,0,0,1,1.45-.77,2.18,2.18,0,0,0,.6-.17h.34l2.82,1a1.22,1.22,0,0,0,.51.17,2.53,2.53,0,0,1,1.28.6.71.71,0,0,1,.26.68.52.52,0,0,1,.09.34c.09.09.09.09.17.09h.09l1.11-.94c.09-.17.17-.26.26-.26h.09a.45.45,0,0,1,.34.17c.17,0,.26.09.34.09a1.89,1.89,0,0,0,.68.09.78.78,0,0,1,.6.26,1.13,1.13,0,0,0,.68.26.68.68,0,0,1,.68.43,1.77,1.77,0,0,0,.34.51c.34.43.51.68.51.94l-.26.77-1.2,3L360.71,51c-.6,1.45-1,3-1.54,4.45-.26.85-.68,1.62-.94,2.48a5.44,5.44,0,0,0-.51,1.54c-.17.51-.26,1-.51,1.62a28.89,28.89,0,0,0-.77,2.91,1.6,1.6,0,0,1-.17.68,5,5,0,0,0-.17,1.11l-.09.43.17,1.54c-.09.17-.09.26,0,.34a3.87,3.87,0,0,1,.26,1.37l.34.51a1.22,1.22,0,0,0,.51.17h.26c.17-.09.26-.17.43-.17a.64.64,0,0,1,.34-.17c.09,0,.17.09.26.09s.34,0,.34-.09a7.49,7.49,0,0,1,1.54-.94,1.26,1.26,0,0,0,.51-.43l1.2-1a1.53,1.53,0,0,1,.6-.43,6.45,6.45,0,0,0,1.37-1.28.92.92,0,0,1,.43-.34,19.17,19.17,0,0,0,2.31-2.91c.51-.77,1-1.54,1.45-2.31A17.65,17.65,0,0,0,369.6,58l.26-.6a25.75,25.75,0,0,0,1.71-2.91l.34-1c.51-1.11,1.11-2.14,1.71-3.16L374,50c.34-.26.51-.6.85-.68a.32.32,0,0,1,.26.09c.17.26.09.68.17.94a9.43,9.43,0,0,0,.17,1.62l-.17,1.54c0,.17,0,.34.17.43l.09.68a.66.66,0,0,0,.17.68.57.57,0,0,1,.09.51.65.65,0,0,1-.09.34,3.48,3.48,0,0,1-.43.77,15,15,0,0,0-.77,1.71,2,2,0,0,0-.17.68v.34c-.09.09,0,.17,0,.26s-.09.17-.09.26a23.51,23.51,0,0,1-1.45,2.48,5.18,5.18,0,0,0-.94,1.8,4.54,4.54,0,0,1-.43.94c-.51.6-1.11,1.2-1.62,1.88a48.55,48.55,0,0,1-4.27,4.1,30.13,30.13,0,0,1-2.91,2.05l-1.2.6a3.35,3.35,0,0,1-1.54.34ZM340.28,66v.09c-.09.09-.09.09,0,.09a.66.66,0,0,0,.26-.09,2.77,2.77,0,0,0,.77-.68l.43-.51a16,16,0,0,0,2.14-2.05l1.62-1.8a38.08,38.08,0,0,0,2.74-3.76l1.54-1.8,2.31-3.59a5.3,5.3,0,0,0,.94-1.45l.68-1.28L355.76,46l.26-.6v-.09a.31.31,0,0,0-.09-.26,1.28,1.28,0,0,0-.6-.26l-1-.17a.77.77,0,0,0-.43-.09,1.57,1.57,0,0,0-.6.17c-.17.17-.43.26-.6.51l-.43.51a10.65,10.65,0,0,0-1.62,1.8l-1.37,1.88a6.85,6.85,0,0,0-1.11,1.62,1.14,1.14,0,0,1-.43.51l-1.2,2.05a4,4,0,0,1-.6,1l-1.88,3a.47.47,0,0,1-.26.43,2.65,2.65,0,0,1-.51,1.11,35.35,35.35,0,0,0-2.48,4.7,8,8,0,0,0-.34,1.37A2.49,2.49,0,0,0,340.28,66Z" fill="#fff"/><path d="M366.78,63.8a22.57,22.57,0,0,0,1.45-4,7.57,7.57,0,0,1,.26-1.2,13.26,13.26,0,0,0,1.2-2.48c.09-.17.17-.34.26-.34a17.1,17.1,0,0,0,1.71-3.25c.51-.68.85-1.37,1.37-2.05.26-.17.34-.51.51-.77a5.71,5.71,0,0,1,1.11-1.8l.34-.43a19.31,19.31,0,0,1,1.71-2.39,7.38,7.38,0,0,1,1.54-1.71,1.86,1.86,0,0,1,.6-.77c.85-.6,1.71-1.45,2.56-2a2.56,2.56,0,0,1,.94-.6,1.8,1.8,0,0,1,.51-.34A2.17,2.17,0,0,1,384,39a6.43,6.43,0,0,0,1.37-.34,1.44,1.44,0,0,1,.6-.09,2,2,0,0,0,.94-.17,2.38,2.38,0,0,1,.77.09l1.8,1.11a4.82,4.82,0,0,1,1.11.68,2.47,2.47,0,0,1,1,1.28,5.93,5.93,0,0,1,.09,2.74l-.09.85c-.09.85-.43,1.62-.6,2.48v.17a1.6,1.6,0,0,1-.17.6,18.74,18.74,0,0,1-1.45,4.19v.26c-.34.43-.34.94-.77,1.45a5.73,5.73,0,0,0-.51,1.28,6.06,6.06,0,0,1-.85,1.2,1.63,1.63,0,0,1-.94.6,10.1,10.1,0,0,0-1.54.34.31.31,0,0,1-.26.09,1.27,1.27,0,0,1-.77-.17,8.1,8.1,0,0,1-.85-.85,2.1,2.1,0,0,1-.43-1.45v-.26a9.16,9.16,0,0,0,.6-1.62.38.38,0,0,1,.26-.34A31.76,31.76,0,0,1,385,50.21a10.38,10.38,0,0,0,1-3,1.63,1.63,0,0,1,.26-.77l.26-.77a13.16,13.16,0,0,0,.51-2,.47.47,0,0,0-.26-.43.65.65,0,0,0-.34-.09,1.22,1.22,0,0,0-.51.17,2.55,2.55,0,0,0-.94.6,7.88,7.88,0,0,0-2.39,2.65c-.34.26-.34.68-.77.94l-.6.68a.78.78,0,0,0-.34.68,5.76,5.76,0,0,0-.77,1.2,22.32,22.32,0,0,0-1.62,2.31,1.36,1.36,0,0,1-.26.68c-.34.51-.85,1.11-1.2,1.71-.43.77-.77,1.54-1.28,2.31L374.39,60a23.6,23.6,0,0,0-1.45,3.68c-.17.09-.17.17-.17.26v.26a1.78,1.78,0,0,0-.26,1.11,2.17,2.17,0,0,0-.17.6,2.28,2.28,0,0,0-.26,1,4.1,4.1,0,0,0,0,1,8.36,8.36,0,0,1,.09,1.37c-.09.17.09.34.17.51a.57.57,0,0,0,.6.34h1a2.4,2.4,0,0,0,1.28-.51,25.89,25.89,0,0,0,3.68-2.14,21.65,21.65,0,0,1,2.74-1.8l1.45-1.11a25,25,0,0,0,2.22-1.8L388.58,60c.17-.17.51-.43.51-.68a3.48,3.48,0,0,1,.85-.77c.09-.09,5.81-5,5.9-5,.17.26-5.3,5.21-5.21,5.38,0,.34,5-4.19,5.3-4.19v.34c0,.09,0,.09-.09.17-.26.43-5.13,5.73-5.3,6.16a2.18,2.18,0,0,1-.77.77.08.08,0,0,0,.09.09l.09.09c.34,0,.77-.68,1-.85,0-.09,3.93-4,4-4s-3.93,4.79-3.93,4.87l-.17.26a6,6,0,0,0-.51.77c-.26.34-.6.51-.6.85s-.34.34-.51.51a1.77,1.77,0,0,0-.17.51,4.72,4.72,0,0,1-.43.68,2,2,0,0,0-.77.94V67l-.26.17a7.48,7.48,0,0,1-.94.77,8.59,8.59,0,0,1-2.39,1.71L382.6,71a25.24,25.24,0,0,1-2.65,1.88c-.17.09-.34.26-.51.26a4.85,4.85,0,0,0-1,.34.08.08,0,0,1,.09.09c.34.34.68.6.68,1.2.09.17-.09.51.26.6.09.09.09.34.09.43a3,3,0,0,0-.17.85,4.79,4.79,0,0,0,0,1.11c.17.17.17.17.17.26a2.63,2.63,0,0,1-.43,1c-.43.6-.85,1.28-1.37,1.88L376,83.46a2.28,2.28,0,0,1-.51.85h.09l-1,1.11-.09.09c-.17,0-.26-.09-.34-.09a2.8,2.8,0,0,0-1.2.51,5.05,5.05,0,0,1-1,.17,2.37,2.37,0,0,1-.77-.09,7.44,7.44,0,0,1-2.65-.85.66.66,0,0,0-.26-.09c.09-.43-.34-.51-.68-.68a1.41,1.41,0,0,1-.43-1l.09-.51a10.74,10.74,0,0,1,1.11-2l.43-.17v.17a10.12,10.12,0,0,0,0,1.62.92.92,0,0,0,.17.51c.26.09.51.09.68.26s.34.09.43.17.17.09.34.09l.17-.17h1.71c.34-.09.77-.26.77-.51l.51-2.82a6.5,6.5,0,0,1,.51-2.14c0-.17.43-.43.43-.6s-.34-.34-.26-.68a1.45,1.45,0,0,1-.09-.6l.17-.85.09-.51h-.26a1.55,1.55,0,0,1-.85-.17c-.17,0-.43-.09-.34-.17h-.6a5.4,5.4,0,0,1-2.65-.85c-.17-.09-.34-.26-.51-.26l-1.45-1.37a2,2,0,0,1-.6-1.11,2,2,0,0,0-.34-1.54Z" fill="#fff"/><path d="M417,74.32a12.15,12.15,0,0,1-1.62-.09,1.44,1.44,0,0,1-.6-.09,2,2,0,0,0-.68-.17h-.51l-1.37-.43-.85-.68L409,70.21a6.91,6.91,0,0,1-.85-1.54c0-.17-.09-.43-.09-.6.09-.51-.17-1-.09-1.54L407.9,66a2.35,2.35,0,0,1-.17-1.71v-.77a.3.3,0,0,0-.17-.09c0-.09-.09,0-.09,0l-.26.26-1.11,1.2-1.37,1.54-.17.34a2.79,2.79,0,0,1-.94,1.28c-.43.43-.94.85-1.37,1.37a1,1,0,0,1-.43.43l-2,1.11a2.63,2.63,0,0,1-1.11.26c-.43,0-.85-.09-1.28-.09a.72.72,0,0,1-.6-.17,1.71,1.71,0,0,0-.68-.34,2.51,2.51,0,0,1-.85-.17,1.41,1.41,0,0,1-1-.43,1.7,1.7,0,0,1-.94-1.2c0-.51-.09-.94-.09-1.54a.72.72,0,0,0-.17-.6c0-.09-.09-.17-.17-.26a1,1,0,0,1-.17-.68,12.63,12.63,0,0,1,1-4,12.85,12.85,0,0,1,1.2-3,2,2,0,0,1,.51-.94c.51-1,1.2-2,1.62-3,.17-.09.17-.09.17-.17A29.58,29.58,0,0,0,399,51.92l.6-1.11.26-.34c.51-.85,1.11-1.71,1.71-2.56l.34-.43a5.69,5.69,0,0,1,1.11-1.8c.51-.68,1-1.37,1.45-2.05a3.25,3.25,0,0,1,.94-.94l.77-.6a2.23,2.23,0,0,1,.77-.43.74.74,0,0,0,.51-.26,3,3,0,0,1,1.45-.77,2.18,2.18,0,0,0,.6-.17h.34l2.82,1a1.22,1.22,0,0,0,.51.17,2.53,2.53,0,0,1,1.28.6.71.71,0,0,1,.26.68.52.52,0,0,1,.09.34c.09.09.09.09.17.09h.09l1.11-.94c.09-.17.17-.26.26-.26h.09a.45.45,0,0,1,.34.17c.17,0,.26.09.34.09a1.89,1.89,0,0,0,.68.09.78.78,0,0,1,.6.26,1.13,1.13,0,0,0,.68.26.68.68,0,0,1,.68.43,1.77,1.77,0,0,0,.34.51c.34.43.51.68.51.94l-.26.77-1.2,3L418.33,51c-.6,1.45-1,3-1.54,4.45-.26.85-.68,1.62-.94,2.48a5.42,5.42,0,0,0-.51,1.54c-.17.51-.26,1-.51,1.62a28.89,28.89,0,0,0-.77,2.91,1.61,1.61,0,0,1-.17.68,5,5,0,0,0-.17,1.11l-.09.43.17,1.54c-.09.17-.09.26,0,.34a3.88,3.88,0,0,1,.26,1.37l.34.51a1.22,1.22,0,0,0,.51.17h.26c.17-.09.26-.17.43-.17a.64.64,0,0,1,.34-.17c.09,0,.17.09.26.09s.34,0,.34-.09a7.48,7.48,0,0,1,1.54-.94,1.26,1.26,0,0,0,.51-.43l1.2-1a1.53,1.53,0,0,1,.6-.43,6.45,6.45,0,0,0,1.37-1.28.92.92,0,0,1,.43-.34,19.13,19.13,0,0,0,2.31-2.91c.51-.77,1-1.54,1.45-2.31A17.65,17.65,0,0,0,427.22,58l.26-.6a25.75,25.75,0,0,0,1.71-2.91l.34-1c.51-1.11,1.11-2.14,1.71-3.16l.34-.34c.34-.26.51-.6.85-.68a.32.32,0,0,1,.26.09c.17.26.09.68.17.94a9.43,9.43,0,0,0,.17,1.62l-.17,1.54c0,.17,0,.34.17.43l.09.68a.66.66,0,0,0,.17.68.57.57,0,0,1,.09.51.65.65,0,0,1-.09.34,3.48,3.48,0,0,1-.43.77,15,15,0,0,0-.77,1.71,2,2,0,0,0-.17.68v.34c-.09.09,0,.17,0,.26s-.09.17-.09.26a23.42,23.42,0,0,1-1.45,2.48,5.19,5.19,0,0,0-.94,1.8,4.56,4.56,0,0,1-.43.94c-.51.6-1.11,1.2-1.62,1.88a48.55,48.55,0,0,1-4.27,4.1,30.2,30.2,0,0,1-2.91,2.05L419,74a3.35,3.35,0,0,1-1.54.34ZM397.9,66v.09c-.09.09-.09.09,0,.09a.66.66,0,0,0,.26-.09,2.78,2.78,0,0,0,.77-.68l.43-.51a16,16,0,0,0,2.14-2.05l1.62-1.8a38.08,38.08,0,0,0,2.74-3.76l1.54-1.8,2.31-3.59a5.3,5.3,0,0,0,.94-1.45l.68-1.28L413.37,46l.26-.6v-.09a.31.31,0,0,0-.09-.26,1.28,1.28,0,0,0-.6-.26l-1-.17a.77.77,0,0,0-.43-.09,1.57,1.57,0,0,0-.6.17c-.17.17-.43.26-.6.51l-.43.51a10.63,10.63,0,0,0-1.62,1.8l-1.37,1.88a6.87,6.87,0,0,0-1.11,1.62,1.14,1.14,0,0,1-.43.51l-1.2,2.05a4,4,0,0,1-.6,1l-1.88,3a.47.47,0,0,1-.26.43,2.65,2.65,0,0,1-.51,1.11,35.35,35.35,0,0,0-2.48,4.7,8,8,0,0,0-.34,1.37A2.49,2.49,0,0,0,397.9,66Zm22.39-31.2h-.6c-3.33,0-5.56-3.76-6.84-3.76.09-.77-1.37-1.54-2-1.8l-.68-.43c-.09,0-.17-.17-.17-.17v-.09l-.6-.17c-1.8.85-3.5,3.68-4.7,3.68-.68,0-2.31-.51-2.22-1.45.17-1.8,5.3-4.7,5.9-4.7a5.14,5.14,0,0,1,1.88.77l.77.43h.09c.51.17,2.14,1,2.14,1.28-.17,1.37,3.85,3.5,5.21,3.5.85,0,2.74-3.5,3.16-4.36l-.17-.34a4.05,4.05,0,0,0,1-1.62c.17,0,.26,0,.26.26s-.6.85-.6.85l.09.17-.34.68h.34a4.7,4.7,0,0,0,.68-1.28c.34.51.85,1,.77,1.71a.55.55,0,0,1-.17.43c.26,0,.34.17.26.43-1.62,2.56-.94,5.64-3.68,5.64Zm1.28-6.41a5.16,5.16,0,0,0-.34.51l.09.09a1.36,1.36,0,0,0,.77-1,.31.31,0,0,0-.17-.43c0,.26-.26.43-.51.68Z" fill="#fff"/><path d="M450.47,56.79c-.34,0-1.11.51-1.62.51-.09-.09-.68,0-.77-.17a1.93,1.93,0,0,0-.6-.09,2.23,2.23,0,0,0-.77.43l-.09.68-.26,2c-.09.68-.51,1.54-.77,2.56-.26.26-.34.6-.85,1.2v.51a1.09,1.09,0,0,1-.34.51l-.17.34a2.9,2.9,0,0,1-.85,1.37c0,.09-.09.17-.09.26V67c-.09.17-.09.34-.26.43a20,20,0,0,1-1.45,2.22l-.77.85c-.09.26-.34.43-.68.68l-.09.17a4.46,4.46,0,0,0-1.71,1.45,9.76,9.76,0,0,1-2.48,1.28c-.77.17-1,.51-1.45.6a1.59,1.59,0,0,1-.6.17c-.17,0-.26-.09-.34-.09l-1-.17a4.72,4.72,0,0,1-1.54-.17L429.52,74c-.17-.09-.34-.09-.51-.26-.17-.34-.6-.43-.6-.6a5.6,5.6,0,0,1-1-1.45A3.32,3.32,0,0,1,426.28,70c-.09-.17,0-.51-.09-.85a23,23,0,0,1-.43-2.74v-.43c.17-.17.17-.43.26-.94a.72.72,0,0,1,0-.6l.09-.68c0-.34.17-.85.17-1v-.51l.17-.68a8.5,8.5,0,0,1,.43-1.37V60l.6-2.05.6-1.28c.09-.34.26-.43.26-.6a15.23,15.23,0,0,1,1-2.05c0-.09,0-.17.26-.43l2.91-5.13c.6-.51,1.11-1.45,1.71-2,.26-.09.26-.34.43-.51l1.2-1.54A15.57,15.57,0,0,0,437,43.2a.78.78,0,0,0,.09-.43.8.8,0,0,1,.6-.43c.09,0,.17,0,.26-.17l.34-.43a.63.63,0,0,1,.51-.17h1.37a.3.3,0,0,1,.17-.09,3.69,3.69,0,0,0,.43.09.31.31,0,0,0,.26.09.51.51,0,0,1,.34-.09,1.07,1.07,0,0,1,.51.09h.26a.57.57,0,0,1,.43.34l.17.43-.09.17c0,.17.09.34.09.51v.09a3.85,3.85,0,0,0-.26.94,2.76,2.76,0,0,0-.85,1.45c-.26.34-.51.51-.51.85v.09h.09c.17,0,.26-.09.34-.09a.3.3,0,0,0,.09-.17.31.31,0,0,1,.26-.09c.09,0,.09,0,.26.09a1.12,1.12,0,0,0,.85.26h.43c.09.17.34.17.51.17a1.3,1.3,0,0,0,.68-.17c.09,0,.09,0,.17.09l.43.34a2.15,2.15,0,0,1,1.45,1.71c.17.26.09.6.43.68a1.29,1.29,0,0,0,.17.68.08.08,0,0,0-.09.09c.17.51,0,1.11.26,1.54V52a.31.31,0,0,0,.09.26l-.09.34c.09.26.09.68.6.68.26,0,.51,0,.6.09.26.09.34.6.77.6a4.66,4.66,0,0,1,1.71.34h.51a3,3,0,0,1,.77-.09,3.85,3.85,0,0,0,1-.09l.51.09h.85c.17,0,.51-.6.6-.6l.43.26c.09,0,.17.09.09.26s.09.34.09.51v.17l-.43.77c-.09.17-.43.34-.51.43s-.34.17-.51.17c0,.17-.34.34-.34.34-.17,0-.43-.09-.51-.09a2.2,2.2,0,0,0-.6.17,1.71,1.71,0,0,1-.77.17Zm-19.57,9.66a3,3,0,0,0-.17.85c0,.34-.09.6.17.77v.43a3.65,3.65,0,0,0,.43,1.54c.09.17.17.26.26.26a1.08,1.08,0,0,0,.51-.09c.34-.26.68-.17.94-.34a3.91,3.91,0,0,1,1.37-.94,12.79,12.79,0,0,0,1.71-1.88l1.28-1.2.51-.68,1.62-2.39c.43-.34.51-1.2,1.11-1.88a9.57,9.57,0,0,0,.68-2.05c.17-.26.26-.94.43-1.28l.09-.43a1.22,1.22,0,0,1,.26-.85l.09-1.28a1.5,1.5,0,0,0-.09-.51,1.81,1.81,0,0,0-.68-1c-.43-.26-.6-.85-.94-1.28a1.61,1.61,0,0,1-.6-1.2c.09-.43-.09-.51-.26-.6l-.26-.26.17-.26a.27.27,0,0,0-.26-.26c-.26,0-.34,0-.34.17l-.43.26-.43.68-2,2.74v.09l-.43.77-.77,1.45V56a10.93,10.93,0,0,1-1.2,2c-.09.09,0,.26,0,.34a.86.86,0,0,1-.09.26l-.26.43c-.09.34-.34.51-.43.85V60a.47.47,0,0,0-.17.43l-.09.43a2.39,2.39,0,0,0-.77,1.54v.17c-.17.26-.26.68-.51,1.11-.09.09,0,.17,0,.26a.74.74,0,0,1-.26.51Z" fill="#fff"/><path d="M110.5,55.53a15.06,15.06,0,0,0,2.09-13.39,15.4,15.4,0,0,0-10.83-10.32,18.07,18.07,0,0,0-3-.59,16.37,16.37,0,0,0,.93-11.17,14.86,14.86,0,0,0-9.49-10.3A15.13,15.13,0,0,0,85,8.83q-.71,0-1.42.07A15.06,15.06,0,0,0,73.08.39,16.8,16.8,0,0,0,69.66,0,15.58,15.58,0,0,0,58.72,4.61a18.05,18.05,0,0,0-2,2.33A16.37,16.37,0,0,0,47.44.51a16.65,16.65,0,0,0-4-.51h0a14.83,14.83,0,0,0-9.64,3.59,15,15,0,0,0-4,5.29q-.72-.07-1.45-.07a15,15,0,0,0-11.19,5,15.4,15.4,0,0,0-3.51,14.54,18.09,18.09,0,0,0,1,2.85A16.3,16.3,0,0,0,4.43,36,14.85,14.85,0,0,0,.27,49.34a15,15,0,0,0,2.56,6.14A15.06,15.06,0,0,0,.73,68.87,15.4,15.4,0,0,0,11.57,79.19a18.06,18.06,0,0,0,3,.59,16.37,16.37,0,0,0-.93,11.17,14.86,14.86,0,0,0,9.49,10.3,15.13,15.13,0,0,0,5.18.93q.71,0,1.42-.07a15.06,15.06,0,0,0,10.54,8.51,16.8,16.8,0,0,0,3.42.36A15.58,15.58,0,0,0,54.6,106.4a18.06,18.06,0,0,0,2-2.33,16.37,16.37,0,0,0,9.25,6.43,16.65,16.65,0,0,0,4,.51,14.83,14.83,0,0,0,9.64-3.59,15,15,0,0,0,4-5.29q.72.07,1.45.07a15,15,0,0,0,11.19-5,15.4,15.4,0,0,0,3.51-14.54,18.09,18.09,0,0,0-1-2.85A16.3,16.3,0,0,0,108.89,75a15.23,15.23,0,0,0,1.61-19.51Z" fill="#4a8841"/><path d="M67.29,72l.28,0c1.21.17,2.4.33,3.59.51a102.8,102.8,0,0,1,13.19,2.69,28.25,28.25,0,0,1,5.13,1.92A10.05,10.05,0,0,1,94.59,84a10.19,10.19,0,0,1-2.32,9.74A9.64,9.64,0,0,1,85,96.9a10.4,10.4,0,0,1-3.9-.76c-.45-.18-.89-.4-1.4-.64l0,.66a10,10,0,0,1-3.55,7.21,9.45,9.45,0,0,1-6.23,2.35,11.31,11.31,0,0,1-2.74-.35A11.16,11.16,0,0,1,59,95.62a17.4,17.4,0,0,1,.65-5.24,110.56,110.56,0,0,1,4.89-14.71l.95-2.42A2,2,0,0,1,67.29,72" fill="#88b75c"/><path d="M69.66,5.33A11.44,11.44,0,0,1,72,5.58,9.89,9.89,0,0,1,79.65,14c.07.48.09,1,.14,1.53l.59-.29A10.61,10.61,0,0,1,85,14.13a9.8,9.8,0,0,1,3.37.61,9.62,9.62,0,0,1,6.2,6.77,11.16,11.16,0,0,1-4.33,12,17.4,17.4,0,0,1-4.86,2,110.58,110.58,0,0,1-15.19,3.11L67.66,39l-.3,0a2,2,0,0,1-1.84-1.25c-.46-1.13-.91-2.25-1.34-3.37a102.8,102.8,0,0,1-4.25-12.77,28.26,28.26,0,0,1-.9-5.4A10.05,10.05,0,0,1,62.4,8.43a10.24,10.24,0,0,1,7.26-3.09" fill="#66956a"/><path d="M46,71.94a2,2,0,0,1,1.84,1.25c.46,1.13.91,2.25,1.34,3.37A102.78,102.78,0,0,1,53.4,89.33a28.25,28.25,0,0,1,.9,5.4,10.05,10.05,0,0,1-3.37,7.85,10.24,10.24,0,0,1-7.26,3.09,11.44,11.44,0,0,1-2.34-.25A9.89,9.89,0,0,1,33.67,97c-.07-.48-.09-1-.14-1.53l-.59.29a10.61,10.61,0,0,1-4.65,1.13,9.8,9.8,0,0,1-3.37-.61,9.62,9.62,0,0,1-6.2-6.77,11.16,11.16,0,0,1,4.34-12,17.39,17.39,0,0,1,4.86-2A110.56,110.56,0,0,1,43.1,72.35L45.66,72l.3,0" fill="#66956a"/><path d="M43.42,5.3a11.3,11.3,0,0,1,2.74.35,11.16,11.16,0,0,1,8.22,9.74,17.4,17.4,0,0,1-.65,5.24,110.57,110.57,0,0,1-4.89,14.71l-.95,2.42A2,2,0,0,1,46,39l-.28,0c-1.21-.17-2.4-.33-3.59-.51A102.8,102.8,0,0,1,29,35.79a28.26,28.26,0,0,1-5.13-1.92A10.05,10.05,0,0,1,18.73,27a10.19,10.19,0,0,1,2.32-9.74,9.64,9.64,0,0,1,7.24-3.19,10.4,10.4,0,0,1,3.9.76c.45.18.89.4,1.4.64l0-.66a10,10,0,0,1,3.55-7.21A9.45,9.45,0,0,1,43.42,5.3" fill="#88b75c"/><path d="M16.2,36.39a10.48,10.48,0,0,1,4.59,1A17.4,17.4,0,0,1,25,40.6,110.57,110.57,0,0,1,35.29,52.19l1.62,2a2,2,0,0,1,0,2.46c-.75,1-1.49,1.91-2.24,2.85a102.81,102.81,0,0,1-8.93,10.07,28.26,28.26,0,0,1-4.23,3.48,9.42,9.42,0,0,1-5.16,1.5A12,12,0,0,1,13,74.1a10.19,10.19,0,0,1-7.27-6.88A9.89,9.89,0,0,1,9.24,56.36c.38-.3.79-.56,1.26-.89L10,55.09a10,10,0,0,1-4.47-6.68,9.62,9.62,0,0,1,2.76-8.76,11.15,11.15,0,0,1,8-3.27" fill="#547269"/><path d="M97,36.42a12,12,0,0,1,3.32.49,10.19,10.19,0,0,1,7.27,6.88,9.89,9.89,0,0,1-3.47,10.85c-.38.3-.79.56-1.26.89l.55.37a10,10,0,0,1,4.47,6.68,9.62,9.62,0,0,1-2.76,8.76,11.15,11.15,0,0,1-8,3.27,10.48,10.48,0,0,1-4.59-1,17.39,17.39,0,0,1-4.21-3.19A110.56,110.56,0,0,1,78,58.82l-1.62-2a2,2,0,0,1,0-2.46c.75-1,1.49-1.91,2.24-2.85A102.8,102.8,0,0,1,87.58,41.4a28.24,28.24,0,0,1,4.23-3.48A9.42,9.42,0,0,1,97,36.42" fill="#547269"/><path d="M103.1,55.45a10.63,10.63,0,0,1,4.41,5.76c2.54,8.66-5.37,14.68-12.62,13.25-3.45-.68-5.69-2.85-7.92-5.2-1.72-1.82-3.5-3.59-5.14-5.49-1.89-2.19-3.7-4.45-5.47-6.74a2.41,2.41,0,0,1,.08-3.28c4-4.53,7.88-9.12,12-13.53a11.2,11.2,0,0,1,8.92-3.94c3.66.24,7,1.54,9.08,5a10.36,10.36,0,0,1-1.47,12.92A11,11,0,0,1,103.1,55.45Zm-21.75-.12c2,2.37,3.67,4.47,5.45,6.49s3.39,3.76,5.21,5.51a7.11,7.11,0,0,0,5.86,2.31,5.51,5.51,0,0,0,4.85-3.8,4.22,4.22,0,0,0-1.29-5.08c-2-1.5-4.18-2.76-6.26-4.17a1.68,1.68,0,0,1-.7-1c0-.27.28-.71.56-.9,1.51-1,3.08-2,4.59-3.05A12.19,12.19,0,0,0,102,49.7c2.56-3-.28-7.81-3.53-8.27a6.4,6.4,0,0,0-6.11,2.06Zm20.13-15.6-.16.45,2.32,1.21.27-.53C103.55,39.61,102.48,39.74,101.48,39.73ZM101,58.2l-.11-1.69a4.89,4.89,0,0,0-1.4.62c-.17.16,0,.66,0,1.07Z" fill="#fff"/><path d="M33.48,15.42c.41-5,2.9-8.36,7-9.62A11,11,0,0,1,53.3,11.21c2,3.6,1.45,7.1.35,10.61C52,27.15,50.1,32.41,48.28,37.69c-.67,2-2.33,1.57-3.74,1.32-5-.88-10-1.71-15-2.87a22.72,22.72,0,0,1-7.07-2.92,9.45,9.45,0,0,1-3.25-4.4,10.93,10.93,0,0,1,.66-10c1.33-2.17,3.24-4,5.75-4.28S31,13.44,33.48,15.42Zm4.7.5c.13,2,.28,4,.38,6,0,.75-1.07,1.26-1.79.88-2.07-1.1-4.14-2.22-6.23-3.3a4.18,4.18,0,0,0-4.36.07c-1.65,1.11-3.15,2.67-2.94,4.83.27,2.67,1.39,5,4.32,5.78,4.56,1.19,9.11,2.4,13.71,3.42,3,.67,3.06.54,3.83-1.28.18-.42.1-.93.24-1.37q1.87-5.69,3.78-11.37c.81-2.42.84-4.77-.78-6.89s-5-3.35-7.27-1.71c-1.47,1.06-2.62,2.35-2.49,4.54l-1.28-.81-.29.44ZM23,18.49,21,21.4A2,2,0,0,0,23,18.49Z" fill="#fff"/><path d="M10.31,55.39c-6.09-3.5-6.72-12.86-.76-17,4.16-2.89,9.16-3.33,13.37.09,3.51,2.86,6.39,6.51,9.46,9.88,1.67,1.83,3.19,3.81,4.74,5.75a2.14,2.14,0,0,1,0,3c-3.88,4.44-7.66,9-11.74,13.24-2.35,2.45-5.15,4.61-8.89,4.31C11.12,74.21,7.74,72.94,6,67.4,4.44,62.61,5.35,59.27,10.31,55.39Zm21.77-.08c-3.84-4.14-7.5-8.18-11.27-12.12a6.13,6.13,0,0,0-5.33-2,6.22,6.22,0,0,0-5.13,4.49c-.46,1.61.7,4.18,2.45,5.31,2.05,1.34,4.12,2.65,6.35,4.08a5.15,5.15,0,0,1-1,1.23c-1.94,1.32-4,2.46-5.89,3.88a4.7,4.7,0,0,0-1,6.71c2.18,3,5.41,3.46,7.49,2.13a28.11,28.11,0,0,0,5.13-4.43C26.59,61.74,29.13,58.69,32.08,55.31Zm-12-16.55-3.52-.57-.24.4c.61.46,1.17,1.16,1.84,1.29C18.67,40,19.29,39.27,20.11,38.76Zm5.37,27-.39-.23c-.62.67-1.28,1.31-1.84,2-.16.2-.05.62-.07.94.37-.06.94,0,1.06-.19A26,26,0,0,0,25.49,65.78Z" fill="#fff"/><path d="M79.62,95.65a8.17,8.17,0,0,1-2.24,6.44,9.76,9.76,0,0,1-6.61,3.53,10.74,10.74,0,0,1-9.18-3.6,10.52,10.52,0,0,1-2.71-9.18c1.21-6.8,3.84-13.16,6.22-19.59.68-1.85,2.24-1.56,3.55-1.36,4.11.63,8.23,1.28,12.28,2.22a68.49,68.49,0,0,1,8.28,2.75c5.26,2,7.33,10.61,4.42,15.07a10.67,10.67,0,0,1-12.87,4.16ZM69.16,76.95c-.9,2.42-1.73,4.5-2.46,6.63s-1.36,4.4-2.11,6.58c-.45,1.32-1.07,2.58-1.6,3.87a.8.8,0,0,0,0,.6c.76,1.26,1.57,2.5,2.35,3.75A5.09,5.09,0,0,0,70,100.73a4.35,4.35,0,0,0,4.26-3.29A29.55,29.55,0,0,0,75,89.78c-.09-1.39.39-1.52,1.16-1.62,2.59,1.32,5.19,2.49,7.84,3.54,1.9.75,3.49-.19,4.66-1.5,2.93-3.3.63-8.6-2.92-9.55-2-.53-3.9-1.3-5.9-1.72C76.32,78.17,72.72,77.6,69.16,76.95ZM75.88,97c1.43-.31,3.21-2,3.31-3.12,0-.28-.38-.6-.68-1C77.54,94.3,75.62,94.92,75.88,97Z" fill="#fff"/><path d="M32.92,95.39a10.83,10.83,0,0,1-2.49,1.3c-4.6.89-9.82-1.47-11.37-6.43-1.79-5.73,0-10,4.12-13.06,1.85-1.36,4.4-1.89,6.72-2.48,3.93-1,7.91-1.76,11.89-2.53,1.31-.25,2.67-.2,4-.37a2.22,2.22,0,0,1,2.53,1.74C50.58,79.5,53,85.39,54.2,91.68S53,103,47,105.07c-4.85,1.63-9,.19-12.14-4.42a2.22,2.22,0,0,1-.31-.69c-.33-1.29-.59-2.59-1-3.86C33.43,95.73,33,95.46,32.92,95.39ZM44.35,77a32.72,32.72,0,0,0-4.36.34c-3.3.72-6.56,1.61-9.85,2.4-2.86.68-5.35,1.8-6.54,4.77a5.22,5.22,0,0,0,3.19,7c.69.24,1.44.34,1.51,1.47,0,.79,1.46.92,2,.27L29.82,92c2.24-1.34,4.38-2.66,6.57-3.9a1.82,1.82,0,0,1,1.45-.07c.27.12.37.77.41,1.2a69.73,69.73,0,0,0,.73,8c.53,2.53,2.93,3.64,5.75,3.2,1.95-.31,4.49-3.15,4.62-5a20.05,20.05,0,0,0-1.3-7.75C46.85,84.11,45.55,80.46,44.35,77ZM34.15,91.14c-.15.39-.62,1.12-.47,1.28a11.61,11.61,0,0,0,2,1.47c.11-.3.4-.75.29-.88A23.64,23.64,0,0,0,34.15,91.14Z" fill="#fff"/><path d="M80,15.3a10.57,10.57,0,0,1,10.21.22,9.41,9.41,0,0,1,4.51,6.38A11.3,11.3,0,0,1,87.58,35a89,89,0,0,1-14.84,3.4,32.56,32.56,0,0,0-4.58.73,2,2,0,0,1-2.85-1.32c-2-5.49-4.12-11-5.7-16.57-.93-3.31-1.41-6.88.54-10.22C63.7,5,70.9,3.3,76.7,7.93,78.33,9.23,79.7,12.45,80,15.3ZM78.59,34.75l.37-.29c0-.87-.93-2,.67-2.35s3.37-.9,5.07-1.28a6.28,6.28,0,0,0,5.14-5,5.32,5.32,0,0,0-1.17-5,4.47,4.47,0,0,0-5.06-1.47,65.26,65.26,0,0,0-6.72,3.34,1.74,1.74,0,0,1-1.26.15c-.25-.1-.39-.68-.41-1.06-.14-2.34,0-4.72-.4-7a4.87,4.87,0,0,0-3.2-4.06A5.38,5.38,0,0,0,66,11.83a6,6,0,0,0-2,6.32A76.92,76.92,0,0,0,68.89,33c.18.38.66,1,.93.92a46.44,46.44,0,0,0,6.22-1c1.08-.29,1.35.07,1.68.9C77.87,34.16,78.3,34.43,78.59,34.75Zm2.94-18.23-.07.68,2.85.45c0-.47.24-1.25.07-1.35C83.41,15.75,82.38,15.55,81.53,16.52ZM92,30.17l.36-2.45c-.49.06-1.19-.06-1.43.21C90.2,28.8,90.79,29.4,92,30.17Z" fill="#fff"/><path d="M63.72,64.71l1.71,1.39c-.13.16-.2.31-.25.3-2.43-.47-3.17,1.4-4.06,3-1,1.84-1.91,3.77-3,5.59-.87,1.49-2.28,1.36-3.08-.15-1.21-2.27-2.44-4.53-3.67-6.79-.93-1.7-2.16-2.08-4.08-1.88a66.53,66.53,0,0,1-7.51.26c-1.13,0-1.62-1.43-.94-2.54,1.49-2.46,2.94-5,4.58-7.32a1.63,1.63,0,0,0,.07-2.08c-1.44-2.38-2.91-4.74-4.27-7.15-.35-.62-.71-1.61-.45-2.11a2.58,2.58,0,0,1,2-.79c2.66,0,5.32.16,8,.28a2.4,2.4,0,0,0,2.46-1.48q1.95-3.68,4.09-7.26c1-1.6,2.06-1.49,3,.18,1.35,2.43,2.77,4.82,4.07,7.28a2.51,2.51,0,0,0,2.74,1.28c2.56-.11,5.12-.26,7.68-.27a2.23,2.23,0,0,1,1.76.8,2.65,2.65,0,0,1-.28,2.07c-1.4,2.4-3,4.7-4.36,7.1a2.38,2.38,0,0,0,0,2c1.35,2.48,2.89,4.87,4.27,7.34a2.67,2.67,0,0,1,.32,2c-.18.42-1.15.6-1.8.67a28.71,28.71,0,0,1-3.15,0c-1.1,0-2.14.23-2.82-1.22-.31-.66-1.71-.81-2.62-1.19Z" fill="#fff"/><path d="M52.65,50.28l-1-.78c.07-.09.11-.17.14-.17,1.35.26,1.76-.78,2.26-1.66s1.06-2.1,1.66-3.11c.48-.83,1.27-.76,1.72.08.67,1.26,1.36,2.52,2,3.78a2,2,0,0,0,2.27,1A37,37,0,0,1,66,49.33c.63,0,.9.79.52,1.41-.83,1.37-1.64,2.76-2.55,4.07a.91.91,0,0,0,0,1.15c.8,1.32,1.62,2.63,2.38,4,.2.35.39.9.25,1.17a1.44,1.44,0,0,1-1.11.44c-1.48,0-3-.09-4.44-.16a1.33,1.33,0,0,0-1.37.82q-1.08,2-2.28,4c-.53.89-1.14.83-1.65-.1-.75-1.35-1.54-2.68-2.26-4a1.4,1.4,0,0,0-1.52-.71c-1.42.06-2.85.15-4.27.15a1.24,1.24,0,0,1-1-.45A1.48,1.48,0,0,1,46.78,60c.78-1.33,1.65-2.61,2.42-4a1.33,1.33,0,0,0,0-1.1c-.75-1.38-1.61-2.71-2.37-4.08a1.49,1.49,0,0,1-.18-1.13c.1-.23.64-.34,1-.37a16,16,0,0,1,1.75,0c.61,0,1.19-.13,1.57.68.17.37,1,.45,1.46.66Z" fill="#4a8841"/></g></svg>