<?xml version="1.0" encoding="utf-8"?>
<!-- Generator: Adobe Illustrator 21.0.0, SVG Export Plug-In . SVG Version: 6.00 Build 0)  -->
<svg version="1.1" id="Layer_1" xmlns="http://www.w3.org/2000/svg" xmlns:xlink="http://www.w3.org/1999/xlink" x="0px" y="0px"
	 viewBox="0 0 401.8 257.2" style="enable-background:new 0 0 401.8 257.2;" xml:space="preserve">
<style type="text/css">
	.st0{fill:#C9D6A6;}
	.st1{filter:url(#Adobe_OpacityMaskFilter);}
	.st2{fill:#FFFFFF;}
	.st3{mask:url(#SVGID_3_);}
	.st4{fill:#56455A;}
	.st5{fill:#CB5E4E;}
	.st6{fill:#7FB4E2;}
	.st7{fill:#4C6994;}
	.st8{fill:#5E8F81;}
	.st9{fill:#B6295D;}
	.st10{fill:#913A89;}
	.st11{fill:#D4761A;}
	.st12{filter:url(#Adobe_OpacityMaskFilter_1_);}
	.st13{mask:url(#SVGID_4_);}
	.st14{fill:#709658;}
	.st15{fill:#A5C174;}
	.st16{fill:#86A37F;}
	.st17{fill:#6F837C;}
	.st18{fill:#C0B998;}
	.st19{fill:#615A3C;}
	.st20{fill:#6A705A;}
	.st21{fill:#CCC293;}
	.st22{fill:#8E775F;}
	.st23{fill:#5C493E;}
	.st24{fill:#887B53;}
	.st25{fill:#744D3E;}
	.st26{fill:#AD4C3B;}
	.st27{fill:#09090A;}
	.st28{fill:#787158;}
	.st29{fill:#DAD39B;}
	.st30{fill:#4F4B37;}
	.st31{fill:#CC5548;}
	.st32{fill:#6F864E;}
	.st33{fill:#5C3637;}
	.st34{fill:#DE453B;}
	.st35{fill:#F48E28;}
	.st36{fill:#654D4C;}
	.st37{fill:#D3770B;}
	.st38{fill:#687E49;}
	.st39{fill:#841B09;}
	.st40{fill:#E0481D;}
	.st41{fill:#D88515;}
	.st42{fill:#F7C600;}
	.st43{fill:#9A2C31;}
	.st44{fill:#E18C36;}
	.st45{fill:#EABD26;}
	.st46{fill:#38668D;}
	.st47{fill:#5194B5;}
	.st48{fill:#B6D7D7;}
	.st49{fill:#73B8BD;}
	.st50{fill:#73170A;}
	.st51{fill:#464C5E;}
	.st52{fill:#95989D;}
	.st53{fill:#CFD8D3;}
	.st54{fill:#929B9B;}
	.st55{fill:#9B7E73;}
	.st56{fill:#CA4C3B;}
	.st57{fill:#B4E6D7;}
	.st58{fill:#A3322F;}
	.st59{fill:#C22821;}
	.st60{fill:#ED6B00;}
	.st61{fill:#574728;}
	.st62{fill:#7A6043;}
	.st63{fill:#A2A29B;}
	.st64{fill:#D1CCC3;}
	.st65{fill:#DDEDE7;}
	.st66{fill:#DEDBD3;}
	.st67{fill:#737B7B;}
	.st68{fill:#ABA69C;}
	.st69{fill:#CBC6BD;}
	.st70{fill:#E3E66F;}
</style>
<g>
	<path class="st30" d="M281.4,83c4.2-5.8,5.3-13.2,3.1-20c-2.4-7.6-8.5-13.4-16.2-15.4c-1.5-0.4-2.9-0.7-4.4-0.9
		c2.4-5.2,2.9-11.1,1.4-16.7c-1.9-7.2-7.2-13-14.2-15.4c-2.5-0.9-5.1-1.4-7.7-1.4c-0.7,0-1.4,0-2.1,0.1c-2.9-6.5-8.8-11.2-15.7-12.7
		c-1.7-0.4-3.4-0.5-5.1-0.5c-6.1,0-12,2.5-16.3,6.8c-1.1,1.1-2.1,2.2-3,3.5c-3.3-4.7-8.2-8.1-13.9-9.6c-2-0.5-4-0.8-6-0.8l0,0
		c-5.3,0-10.4,1.9-14.4,5.4c-2.6,2.2-4.6,4.9-6,7.9c-0.7-0.1-1.4-0.1-2.2-0.1c-6.4,0-12.5,2.7-16.7,7.4c-5.4,5.9-7.4,14.1-5.2,21.8
		c0.4,1.5,0.8,2.9,1.4,4.3c-5.7,0.5-11.1,3.1-15.1,7.2c-5.3,5.2-7.6,12.7-6.2,20c0.6,3.3,1.9,6.4,3.8,9.2c-4.2,5.8-5.3,13.2-3.1,20
		c2.4,7.6,8.5,13.4,16.2,15.4c1.5,0.4,2.9,0.7,4.4,0.9c-2.4,5.2-2.9,11.1-1.4,16.7c1.9,7.2,7.2,13,14.2,15.4
		c2.5,0.9,5.1,1.4,7.7,1.4c0.7,0,1.4,0,2.1-0.1c2.9,6.5,8.8,11.2,15.8,12.7c1.7,0.4,3.4,0.5,5.1,0.5c6.1,0,12-2.5,16.3-6.8
		c1.1-1.1,2.1-2.2,3-3.5c3.3,4.7,8.2,8.1,13.9,9.6c2,0.5,4,0.8,6,0.8c5.3,0,10.4-1.9,14.4-5.4c2.6-2.2,4.6-4.9,6-7.9
		c0.7,0.1,1.4,0.1,2.2,0.1c6.4,0,12.5-2.7,16.7-7.4c5.4-5.9,7.4-14.1,5.2-21.7c-0.4-1.5-0.8-2.9-1.4-4.3c5.7-0.5,11.1-3.1,15.1-7.2
		C286.8,104.3,287.8,92,281.4,83L281.4,83z"/>
	<g>
		<path class="st31" d="M216.8,107.6c0.1,0,0.3,0,0.4,0c1.8,0.2,3.6,0.5,5.4,0.8c6.7,0.9,13.2,2.3,19.7,4c2.6,0.7,5.2,1.7,7.7,2.9
			c4.1,2.1,6.5,5.8,7.6,10.2c1.5,5.1,0.2,10.6-3.5,14.6c-2.8,3.1-6.7,4.8-10.8,4.8c-2,0-4-0.4-5.8-1.1c-0.7-0.3-1.3-0.6-2.1-0.9
			l-0.1,1c-0.2,4.2-2.1,8.1-5.3,10.8c-2.6,2.3-5.9,3.5-9.3,3.5c-1.4,0-2.8-0.2-4.1-0.5c-6.7-1.8-11.6-7.6-12.3-14.6
			c-0.1-2.6,0.3-5.3,1-7.8c1.9-7.5,4.4-14.8,7.3-22l1.4-3.6C214.5,108.4,215.6,107.6,216.8,107.6"/>
		<path class="st31" d="M220.3,8c1.2,0,2.3,0.1,3.5,0.4c6.1,1.4,10.7,6.4,11.4,12.6c0.1,0.7,0.1,1.4,0.2,2.3l0.9-0.4
			c2.2-1.1,4.5-1.7,7-1.7c1.7,0,3.4,0.3,5,0.9c4.6,1.6,8.1,5.4,9.2,10.2c1.8,6.7-0.8,13.9-6.5,17.9c-2.3,1.4-4.7,2.4-7.3,3.1
			c-7.5,2.1-15,3.6-22.7,4.6l-3.8,0.6c-1.4,0.2-2.7-0.6-3.2-1.8c-0.7-1.7-1.4-3.4-2-5c-2.5-6.2-4.7-12.6-6.4-19.1
			c-0.7-2.6-1.2-5.3-1.3-8.1c-0.2-4.6,1.8-8.6,5-11.7C212.3,9.7,216.3,8,220.3,8"/>
		<path class="st31" d="M184.9,107.5c1.2,0,2.3,0.7,2.8,1.8c0.7,1.7,1.4,3.4,2,5c2.5,6.2,4.7,12.6,6.4,19.1c0.7,2.6,1.2,5.3,1.3,8.1
			c0.2,4.6-1.8,8.6-5,11.7c-2.9,2.9-6.8,4.6-10.8,4.6c-1.2,0-2.3-0.1-3.5-0.4c-6.1-1.4-10.7-6.4-11.5-12.6c-0.1-0.7-0.1-1.4-0.2-2.3
			l-0.9,0.4c-2.2,1.1-4.5,1.7-7,1.7c-1.7,0-3.4-0.3-5-0.9c-4.6-1.6-8.1-5.4-9.2-10.2c-1.8-6.7,0.8-13.9,6.5-17.9
			c2.3-1.4,4.7-2.4,7.3-3.1c7.5-2.1,15-3.6,22.7-4.6l3.8-0.6C184.6,107.5,184.8,107.5,184.9,107.5"/>
		<path class="st31" d="M181.1,7.9c1.4,0,2.8,0.2,4.1,0.5c6.7,1.8,11.6,7.6,12.3,14.6c0.1,2.6-0.2,5.3-0.9,7.8
			c-1.9,7.5-4.4,14.8-7.4,22l-1.4,3.6c-0.5,1.1-1.6,1.9-2.8,1.8c-0.1,0-0.3,0-0.4,0c-1.8-0.2-3.6-0.5-5.4-0.8
			c-6.7-0.9-13.2-2.3-19.7-4c-2.6-0.7-5.2-1.7-7.7-2.9c-4.1-2.1-6.5-5.8-7.6-10.2c-1.5-5.1-0.1-10.6,3.5-14.5
			c2.8-3.1,6.7-4.8,10.8-4.8c2,0,4,0.4,5.8,1.1c0.7,0.3,1.3,0.6,2.1,0.9l0.1-1c0.2-4.2,2.1-8.1,5.3-10.8
			C174.4,9.1,177.7,7.9,181.1,7.9"/>
		<path class="st31" d="M140.4,54.4c2.4,0,4.7,0.5,6.9,1.5c2.3,1.3,4.4,2.9,6.3,4.8c5.5,5.4,10.7,11.2,15.4,17.3l2.4,3
			c0.9,1.1,0.9,2.6,0,3.7c-1.1,1.4-2.2,2.9-3.4,4.3c-4.1,5.3-8.6,10.3-13.4,15.1c-1.9,1.9-4.1,3.7-6.3,5.2c-2.3,1.5-5,2.3-7.7,2.2
			c-1.7,0-3.4-0.3-5-0.7c-5.2-1.3-9.3-5.2-10.8-10.3c-1.9-6,0.2-12.5,5.2-16.2c0.6-0.4,1.2-0.8,1.8-1.3l-0.8-0.6
			c-3.5-2.2-6-5.9-6.7-10c-0.9-4.8,0.6-9.7,4.1-13.1C131.7,56.1,136,54.4,140.4,54.4"/>
		<path class="st31" d="M261.2,54.4c1.7,0,3.4,0.3,5,0.7c5.2,1.3,9.3,5.2,10.8,10.3c1.9,6-0.2,12.5-5.2,16.2
			c-0.6,0.4-1.2,0.8-1.8,1.3l0.8,0.6c3.5,2.2,6,5.9,6.7,10c0.9,4.8-0.6,9.7-4.1,13.1c-3.1,3.2-7.4,4.9-11.9,4.9
			c-2.4,0-4.7-0.5-6.9-1.5c-2.3-1.2-4.5-2.8-6.3-4.7c-5.5-5.4-10.7-11.2-15.4-17.4l-2.4-3c-0.9-1.1-0.9-2.6,0-3.7
			c1.1-1.4,2.2-2.9,3.4-4.3c4.1-5.3,8.6-10.3,13.3-15.1c1.9-1.9,4.1-3.7,6.3-5.2C255.8,55.2,258.5,54.4,261.2,54.4"/>
	</g>
	<g>
		<path class="st0" d="M270.3,82.9c3.1,2,5.5,5.1,6.6,8.6c3.8,12.9-8,21.9-18.9,19.8c-5.2-1-8.5-4.3-11.8-7.8
			c-2.6-2.7-5.2-5.4-7.7-8.2c-2.8-3.3-5.5-6.7-8.2-10.1c-1.2-1.4-1.2-3.6,0.1-4.9c5.9-6.8,11.8-13.6,17.9-20.2
			c3.5-3.8,8.1-6.2,13.3-5.9c5.5,0.4,10.5,2.3,13.6,7.4c3.8,6.4,3.1,13.6-2.2,19.3C272.2,81.7,271.3,82.3,270.3,82.9z M237.8,82.7
			c3,3.5,5.5,6.7,8.1,9.7c2.5,2.8,5.1,5.6,7.8,8.2c2.4,2.3,5.2,3.8,8.8,3.5c3.3-0.2,6.2-2.5,7.2-5.7c1-2.8,0.6-5.7-1.9-7.6
			c-3-2.2-6.3-4.1-9.4-6.2c-0.5-0.3-0.9-0.9-1-1.5c-0.1-0.4,0.4-1.1,0.8-1.3c2.3-1.6,4.6-3,6.9-4.6c1.3-0.8,2.5-1.8,3.5-2.9
			c3.8-4.5-0.4-11.7-5.3-12.4c-3.8-0.5-6.6,0.4-9.1,3.1L237.8,82.7z M267.9,59.4l-0.2,0.6l3.5,1.8l0.4-0.8
			C271,59.2,269.4,59.4,267.9,59.4L267.9,59.4z M267.3,87l-0.2-2.5c-0.7,0.2-1.5,0.5-2.1,0.9c-0.3,0.2,0,1,0,1.6H267.3z"/>
		<path class="st0" d="M166.3,23.1c0.6-7.5,4.3-12.5,10.5-14.4c7.5-2.2,15.5,1.1,19.2,8.1c3,5.4,2.2,10.6,0.5,15.9
			c-2.5,8-5.3,15.8-8,23.7c-1,2.9-3.5,2.3-5.5,2c-7.5-1.3-15-2.5-22.4-4.3c-3.7-0.8-7.3-2.3-10.6-4.4c-2.2-1.7-3.9-4-4.9-6.6
			c-1.9-5-1.9-10.2,1-14.9c2-3.2,4.8-5.9,8.6-6.4C158.3,21.3,162.6,20.1,166.3,23.1z M173.3,23.8c0.2,3,0.4,6,0.6,9
			c0.1,1.1-1.6,1.8-2.7,1.3c-3.1-1.6-6.2-3.3-9.3-4.9c-2-1.2-4.5-1.1-6.5,0.1c-2.5,1.7-4.7,4-4.4,7.2c0.4,4,2.1,7.5,6.5,8.6
			c6.8,1.8,13.6,3.6,20.5,5.1c4.5,1,4.6,0.8,5.7-1.9c0.3-0.6,0.1-1.4,0.4-2c1.8-5.7,3.7-11.3,5.6-17c1.2-3.6,1.3-7.1-1.2-10.3
			s-7.5-5-10.9-2.6c-2.2,1.6-3.9,3.5-3.7,6.8L172,22l-0.4,0.7L173.3,23.8z M150.6,27.6l-2.9,4.3C150.2,32.1,151.6,30.1,150.6,27.6z"
			/>
		<path class="st0" d="M131.6,82.8c-9.1-5.2-10-19.2-1.1-25.4c6.2-4.3,13.7-5,20,0.1c5.2,4.3,9.5,9.7,14.1,14.8
			c2.5,2.8,4.8,5.7,7.1,8.6c1.2,1.3,1.1,3.2-0.1,4.4c-5.8,6.6-11.4,13.4-17.5,19.8c-3.5,3.7-7.7,6.9-13.3,6.5
			c-8-0.6-13-2.6-15.7-10.8C122.9,93.6,124.2,88.6,131.6,82.8z M164.2,82.7c-5.7-6.2-11.2-12.2-16.8-18.1c-2-2.2-5-3.3-8-3
			c-3.7,0.5-6.7,3.2-7.7,6.7c-0.7,2.4,1.1,6.2,3.7,7.9c3,2,6.1,4,9.4,6.1c-0.4,0.7-0.9,1.3-1.5,1.8c-2.9,2-6,3.7-8.8,5.8
			c-3.2,2.2-4,6.6-1.7,9.8c0.1,0.1,0.1,0.2,0.2,0.3c3.3,4.5,8.1,5.2,11.2,3.2c2.8-1.9,5.4-4.1,7.7-6.6
			C155.9,92.3,159.8,87.7,164.2,82.7z M146.3,57.9l-5.3-0.8l-0.4,0.6c0.9,0.7,1.7,1.7,2.8,1.9C144.1,59.7,145.1,58.7,146.3,57.9z
			 M154.3,98.3l-0.6-0.3c-0.9,1-1.9,2-2.8,3c-0.2,0.3-0.1,0.9-0.1,1.4c0.5-0.1,1.4,0,1.6-0.3C153.1,100.9,153.8,99.6,154.3,98.3z"/>
		<path class="st0" d="M235.2,143c0.3,3.5-0.9,7.1-3.3,9.6c-2.6,2.9-5.7,4.9-9.9,5.3c-5.2,0.5-10.3-1.5-13.7-5.4
			c-3.5-3.7-5-8.8-4-13.7c1.8-10.2,5.7-19.7,9.3-29.3c1-2.8,3.4-2.3,5.3-2c6.1,0.9,12.3,1.9,18.4,3.3c4.2,1.1,8.3,2.5,12.4,4.1
			c7.9,2.9,11,15.9,6.6,22.5c-4,6.1-11.3,9-19.2,6.2C236.5,143.4,236.1,143.3,235.2,143z M219.6,115c-1.3,3.6-2.6,6.7-3.7,9.9
			c-1.1,3.2-2,6.6-3.2,9.8c-0.7,2-1.6,3.9-2.4,5.8c-0.1,0.3-0.2,0.6-0.1,0.9c1.1,1.8,2.3,3.7,3.5,5.6c1.5,2.4,4.2,3.8,7.1,3.5
			c2.9-0.2,5.7-1.8,6.4-4.9c0.9-3.7,1.3-7.6,1.1-11.4c-0.1-2.1,0.6-2.3,1.7-2.4c3.9,2,7.8,3.7,11.7,5.3c2.8,1.1,5.2-0.3,7-2.2
			c4.4-4.9,0.9-12.8-4.4-14.3c-3-0.8-5.8-1.9-8.8-2.6C230.3,116.8,224.9,116,219.6,115z M229.6,145c2.1-0.5,4.8-2.9,4.9-4.7
			c0-0.4-0.6-0.9-1-1.6C232.1,140.9,229.2,141.9,229.6,145z"/>
		<path class="st0" d="M165.4,142.6c-1.5,0.8-2.5,1.7-3.7,1.9c-6.9,1.3-14.7-2.2-17-9.6c-2.7-8.6,0-15,6.2-19.5
			c2.8-2,6.6-2.8,10-3.7c5.9-1.5,11.8-2.6,17.8-3.8c1.9-0.4,4-0.3,6-0.6c2-0.3,3.1,0.9,3.8,2.6c3.4,8.9,7.1,17.7,8.8,27.1
			c1.7,9.4-1.8,17-10.9,20c-7.2,2.4-13.5,0.3-18.1-6.6c-0.2-0.3-0.4-0.7-0.5-1c-0.5-1.9-0.9-3.9-1.5-5.8
			C166.2,143.1,165.5,142.7,165.4,142.6z M182.5,115c-2.2,0-4.4,0.2-6.5,0.5c-4.9,1.1-9.8,2.4-14.7,3.6c-4.3,1-8,2.7-9.8,7.1
			c-1.6,4,0.2,8.5,4.2,10.2c0.2,0.1,0.4,0.1,0.5,0.2c1,0.4,2.2,0.5,2.3,2.2c0.1,1.2,2.2,1.4,3,0.4l-0.7-1.7c3.4-2,6.5-4,9.8-5.8
			c0.7-0.3,1.5-0.4,2.2-0.1c0.4,0.2,0.6,1.2,0.6,1.8c0.4,4,0.3,8.1,1.1,12c0.8,3.9,4.4,5.4,8.6,4.8c2.9-0.5,6.7-4.7,6.9-7.4
			c0.3-4-0.7-7.8-1.9-11.6C186.3,125.7,184.3,120.3,182.5,115z M167.3,136.2c-0.2,0.6-0.9,1.7-0.7,1.9c0.9,0.8,1.9,1.6,2.9,2.2
			c0.2-0.5,0.6-1.1,0.4-1.3C169.1,138,168.2,137.1,167.3,136.2z"/>
		<path class="st0" d="M235.8,22.9c4.8-2.5,10.6-2.4,15.3,0.3c3.7,2,5.7,5.5,6.7,9.5c1.9,7.5-2.5,16.9-10.7,19.6
			c-7.2,2.3-14.6,4-22.2,5.1c-2.3,0.2-4.6,0.6-6.8,1.1c-2.2,0.7-3.6-0.1-4.3-2c-3-8.2-6.2-16.4-8.5-24.8c-1.4-5-2.1-10.3,0.8-15.3
			c5.3-9,16-11.6,24.7-4.6C233.3,13.8,235.3,18.6,235.8,22.9z M233.7,51.9l0.6-0.4c-0.1-1.3-1.4-3,1-3.5c2.5-0.6,5-1.3,7.6-1.9
			c4.1-0.9,6.7-3.4,7.7-7.5c0.8-2.6,0.1-5.5-1.7-7.5c-1.8-2.3-4.8-3.2-7.6-2.2c-3.5,1.2-6.7,3.3-10,5c-0.6,0.3-1.2,0.4-1.8,0.2
			c-0.4-0.1-0.6-1-0.6-1.6c-0.2-3.5-0.1-7.1-0.6-10.5c-0.3-2.8-2.2-5.1-4.8-6.1c-3.2-1.1-5.9-0.3-8.4,1.7c-2.8,2.2-4,6-3,9.4
			c1.8,7.6,4,15.1,7.4,22.2c0.3,0.6,1,1.4,1.4,1.4c3.1-0.3,6.2-0.8,9.3-1.6c1.6-0.4,2,0.1,2.5,1.3C232.6,51.1,233.3,51.5,233.7,51.9
			z M238.1,24.7l-0.1,1l4.3,0.7c0-0.7,0.4-1.8,0.1-2C240.9,23.5,239.3,23.2,238.1,24.7z M253.8,45.1l0.5-3.7
			c-0.7,0.1-1.8-0.1-2.1,0.3C251,43,252,44,253.8,45.1L253.8,45.1z"/>
		<path class="st0" d="M211.5,96.7l2.6,2.1c-0.2,0.2-0.3,0.5-0.4,0.4c-3.6-0.7-4.7,2.1-6.1,4.5c-1.6,2.8-2.9,5.6-4.5,8.4
			c-1.3,2.2-3.4,2-4.6-0.2c-1.8-3.4-3.7-6.8-5.5-10.2c-1.4-2.5-3.2-3.1-6.1-2.8c-3.7,0.3-7.5,0.5-11.2,0.4c-1.7,0-2.4-2.1-1.4-3.8
			c2.2-3.7,4.4-7.4,6.8-10.9c0.8-0.9,0.8-2.2,0.1-3.1c-2.2-3.6-4.3-7.1-6.4-10.7c-0.5-0.9-1.1-2.4-0.7-3.1s1.9-1.2,3-1.2
			c4,0,7.9,0.2,11.9,0.4c1.6,0.2,3.1-0.7,3.7-2.2c1.9-3.7,4-7.3,6.1-10.9c1.4-2.4,3.1-2.2,4.5,0.3c2,3.6,4.1,7.2,6.1,10.9
			c0.9,1.8,2.4,2,4.1,1.9c3.8-0.2,7.7-0.4,11.5-0.4c0.9,0,2.3,0.5,2.6,1.2c0.3,1,0.1,2.2-0.4,3.1c-2.1,3.6-4.4,7-6.5,10.6
			c-0.4,0.9-0.4,2,0,3c2,3.7,4.3,7.3,6.4,11c0.6,0.9,0.7,2,0.5,3c-0.3,0.6-1.7,0.9-2.7,1c-1.6,0.1-3.1,0.1-4.7,0
			c-1.6,0-3.2,0.4-4.2-1.8c-0.5-1-2.6-1.2-3.9-1.8L211.5,96.7z"/>
	</g>
	<path class="st32" d="M194.9,75.2l-1.4-1.2c0.1-0.1,0.2-0.2,0.2-0.2c2,0.4,2.6-1.2,3.4-2.5c0.9-1.5,1.6-3.1,2.5-4.6
		c0.7-1.2,1.9-1.1,2.6,0.1c1,1.8,2,3.8,3.1,5.6c0.8,1.4,1.8,1.7,3.4,1.6c2.1-0.2,4.2-0.3,6.2-0.2c0.9,0,1.3,1.2,0.8,2.1
		c-1.2,2-2.4,4.1-3.8,6.1c-0.4,0.5-0.5,1.2-0.1,1.7c1.2,2,2.4,3.9,3.6,5.9c0.3,0.5,0.6,1.3,0.4,1.8c-0.4,0.4-1,0.7-1.7,0.7
		c-2.2,0-4.4-0.1-6.6-0.2c-0.9-0.1-1.7,0.4-2,1.2c-1.1,2-2.2,4.1-3.4,6c-0.8,1.3-1.7,1.2-2.5-0.1c-1.1-2-2.3-4-3.4-6
		c-0.4-0.8-1.3-1.3-2.2-1.1c-2.1,0.1-4.3,0.2-6.4,0.2c-0.6,0-1.1-0.2-1.5-0.7c-0.2-0.6-0.1-1.2,0.2-1.7c1.2-2,2.5-3.9,3.6-5.9
		c0.2-0.5,0.2-1.1,0-1.7c-1.1-2.1-2.4-4-3.5-6.1c-0.3-0.5-0.4-1.1-0.3-1.7c0.2-0.3,0.9-0.5,1.5-0.6c0.9,0,1.7,0,2.6,0
		c0.9,0,1.8-0.2,2.3,1c0.3,0.5,1.4,0.7,2.2,1L194.9,75.2z"/>
	<g>
		<g>
			<path class="st0" d="M342.9,203.1c0-0.7-0.1-1.5-0.1-2.2c0-1.1,1.5-1.7,3.2-1.3c0.8,0.2,1.6,0.5,2.3,0.8c1.1,0.4,2,0.3,2.9-0.2
				c0.2-0.1,0.4-0.4,0.7-0.3c0.4,0.1,0.3,0.4,0.3,0.6c-0.2,0.9,0.5,1.8-0.6,2.6C348.8,203.1,345.8,203.1,342.9,203.1z"/>
			<path class="st0" d="M288.1,227.9c0,6.6,0,13.2,0,19.8c0,1,0,1-1,1c-0.9,0-1.8,0-2.7,0c-0.7,0-0.9-0.2-0.9-0.9
				c0-3.3,0-6.5,0-9.8c0-0.6-0.1-1-0.5-1.5c-3.7-4.6-8.5-6.9-14.5-6.3c-1.6,0.2-1.6,0.2-1.4,1.8c0.3,2.5,0.7,5,0.7,7.5
				c0,1.3-0.2,2.6-0.6,3.8c-1.1,3.1-3.9,5.1-7.2,5.3c-4.3,0.2-7.5-1.8-10.2-4.9c-2-2.4-3.6-5.1-5.3-7.8c-0.9-1.4-1.8-2.8-3-4
				c-0.3-0.3-0.7-0.6-1-0.9c-1.4-1.1-2.9-1.5-4.6-0.4c-2.6,1.6-2.7,1.5-2.7,4.5c0,4.2,0,8.4,0,12.6c0,1,0,1-1,1c-1,0-2,0-3,0
				c-0.6,0-0.8-0.2-0.7-0.8c0-0.2,0-0.4,0-0.6c0-13.1,0-26.1,0-39.2c0-0.2,0-0.3,0-0.5c-0.1-0.6,0.2-0.9,0.8-0.8c0.3,0,0.6,0,0.9,0
				c4.4,0,8.8-0.1,13.2,0c3.8,0.1,7.1,1.6,9.4,4.8c2.3,3.3,2.2,8.4-0.1,11.4c-1.2,1.6-2.9,2.5-4.7,3.3c-1.1,0.4-2.3,0.8-3.4,1.2
				c-0.3,0.1-0.7,0.2-0.2,0.6c2.3,2.1,3.8,4.8,5.4,7.5c1.1,1.8,2.2,3.7,3.6,5.3c1.4,1.7,3.1,3,5.4,3.1c2.9,0.2,4.3-1,4.4-3.7
				c0.1-3.1-0.4-6.1-0.8-9.1c-0.5-3.6-1-7.2-0.4-10.9c0.9-5.9,4.3-9.7,9.8-11.7c2.7-1,5.6-1.4,8.5-1.6c2.3-0.2,4.6-0.1,6.8-0.1
				c0.9,0,0.9,0,0.9,1C288.1,214.6,288.1,221.2,288.1,227.9z M283.4,230.3c0.2-0.3,0.1-0.6,0.1-0.8c0-5.6,0-11.1,0-16.7
				c0-1.3,0-1.3-1.3-1.2c-2.8,0.1-5.6,0.3-8.3,1.2c-3.8,1.2-6.3,3.6-7.2,7.6c-0.3,1.5-0.4,3.1-0.3,4.7c0,1,0,1,1,0.8
				c4.4-0.7,8.5-0.1,12.4,2C281.1,228.6,282.3,229.4,283.4,230.3z M233.2,219.2c0,2.4,0,4.7,0,7.1c0,0.3-0.1,0.8,0.5,0.5
				c2.7-1.4,5.7-2.1,8.6-2.9c1.7-0.5,3.4-1,4.9-1.9c3.2-2,3.4-6.7,0.3-8.9c-1.6-1.1-3.4-1.5-5.3-1.5c-2.7,0-5.5,0-8.2,0
				c-0.6,0-0.8,0.2-0.8,0.8C233.2,214.6,233.2,216.9,233.2,219.2z"/>
			<path class="st0" d="M221.4,227.8c0,4.3-0.8,8.4-2.8,12.2c-2.9,5.4-7.3,8.6-13.4,9.3c-5.2,0.6-10-0.4-14-4
				c-2.8-2.5-4.6-5.7-5.7-9.3c-1.8-6.4-1.7-12.8,0.9-19c2.5-6,7-9.8,13.5-10.8c5.9-0.9,11.3,0.3,15.5,4.8c3.1,3.2,4.7,7.1,5.5,11.4
				C221.3,224.2,221.4,226,221.4,227.8z M216.7,227.7c0-3.1-0.5-6.2-1.8-9.1c-3.8-8.6-12.7-9.6-18.5-6.5c-3.3,1.8-5.2,4.7-6.4,8.2
				c-1.3,4-1.5,8-0.7,12.1c0.6,3.1,1.8,5.9,3.9,8.3c2.7,2.9,6,4.1,10,4c4.4-0.1,7.8-2,10.3-5.6C215.9,235.7,216.7,231.8,216.7,227.7
				z"/>
			<path class="st0" d="M401.8,227.4c0,4.6-0.8,8.7-2.7,12.4c-2.9,5.5-7.4,8.7-13.5,9.5c-4.9,0.6-9.4-0.3-13.4-3.5
				c-3.2-2.6-5.2-6-6.3-9.9c-1.8-6.4-1.7-12.8,0.9-19c2.5-6,7-9.8,13.5-10.8c5.9-0.9,11.3,0.4,15.5,4.8c3.1,3.2,4.7,7.1,5.5,11.4
				C401.7,224.2,401.8,226,401.8,227.4z M397.1,227.8c0-3.1-0.5-6.2-1.8-9.1c-2.4-5.6-7.7-8.7-13.6-8c-5.1,0.6-8.5,3.4-10.6,8
				c-2,4.5-2.3,9.1-1.3,13.9c0.6,3.1,1.8,5.8,3.9,8.2c2.7,2.9,6,4.1,10,4c4.4-0.1,7.9-2,10.3-5.7
				C396.3,235.7,397.1,231.8,397.1,227.8z"/>
			<path class="st0" d="M358.3,227.9c0,6.5,0,13,0,19.5c0,1.6,0,1.3-1.4,1.3c-0.8,0-1.6,0-2.4,0c-0.7,0-0.9-0.2-0.9-0.9
				c0-2.9,0-5.9,0-8.8c0-0.6-0.1-1-0.4-1.5c-2.4-3.8-6-5.9-10.4-6.7c-1.3-0.2-2.6-0.3-3.9-0.4c-0.5,0-0.5,0.2-0.5,0.6
				c0.4,2.4,0.7,4.9,0.8,7.4c0.2,6.1-3.6,9.4-8.9,10.2c-2.3,0.3-2.1,0.4-2.1-1.8c0-0.6,0-1.2,0-1.7c-0.1-0.7,0.2-0.9,0.9-0.9
				c0.9,0,1.8-0.1,2.7-0.4c1.8-0.6,2.7-1.7,2.8-3.6c0.1-2.8-0.2-5.7-0.6-8.5c-0.5-3.2-0.9-6.4-0.6-9.7c0.3-3.6,1.2-7,3.8-9.8
				c2-2.1,4.5-3.3,7.2-4.1c3.5-1,7-1.2,10.6-1.2c0.9,0,1.8,0,2.7,0c0.5,0,0.7,0.2,0.7,0.6c0,0.2,0,0.5,0,0.7
				C358.3,214.8,358.3,221.4,358.3,227.9z M353.6,221.1c0-2.8,0-5.5,0-8.3c0-1.3,0-1.3-1.3-1.3c-2.5,0-4.9,0.3-7.2,1
				c-3.7,1.2-6,3.6-6.8,7.4c-0.4,1.7-0.4,3.5-0.4,5.2c0,0.4,0.2,0.5,0.6,0.5c1.6-0.1,3.1-0.1,4.7,0.2c3.7,0.6,7,2.1,9.9,4.4
				c0.2,0.1,0.3,0.4,0.5,0.3c0.2-0.1,0.1-0.4,0.1-0.6C353.6,227.1,353.6,224.1,353.6,221.1z"/>
			<path class="st0" d="M312.3,249.4c-0.6,0-1.2,0-1.7,0c-0.3,0-0.7,0-0.7,0.4c0,0.4,0.4,0.3,0.6,0.3c1.7,0.1,3,1.2,3.3,2.8
				c0.3,1.6-0.3,3.2-1.7,3.9c-1.2,0.6-2.4,0.5-3.6-0.2c-0.2-0.1-0.4-0.2-0.3-0.4c0.1-0.7,0.3-1.4,0.5-2c0.1-0.4,0.4-0.2,0.7-0.1
				c0.4,0.1,0.9,0.4,1.3,0c0.5-0.4,0.5-1.3,0.2-1.8c-0.3-0.4-1.1-0.6-1.6-0.2c-0.8,0.8-1.6,0.2-2.4,0.1c-0.4,0-0.3-0.4-0.2-0.7
				c0.2-0.7,0.4-1.4,0.6-2.1c0.1-0.4,0-0.6-0.4-0.7c-6.3-2-9.9-6.6-11.7-12.6c-2-6.7-1.8-13.4,0.9-19.8c2.4-5.9,6.8-9.4,13.2-10.2
				c3.3-0.4,6.4-0.1,9.3,1.8c3.2,2.1,5,5.1,5.6,8.8c0.5,2.6,0.3,5.2-1,7.6c-2.5,4.6-9.8,6.2-13.7,1.3c-0.5-0.6-0.6-1.1-0.1-1.7
				c0.6-0.8,1.2-1.6,1.7-2.5c0.3-0.4,0.4-0.4,0.7,0c1,1.9,2.7,2.8,4.6,2.4c1.9-0.4,3.2-1.9,3.4-4c0.3-3.3-1.6-8.5-7-9.1
				c-4.6-0.5-8.4,1-11.1,4.9c-1.7,2.4-2.5,5-2.8,7.9c-0.5,3.9-0.4,7.9,0.9,11.7c1.4,4.2,3.9,7.4,8.1,8.9c5.8,2,11.9,0,15.6-4.9
				c0.7-1,0.7-1,1.3,0.1c0.5,1,1,2,1.5,3c0.2,0.3,0.2,0.6-0.1,0.9c-3,3.5-6.7,5.6-11.3,6.2C314.1,249.4,313.2,249.4,312.3,249.4z"/>
			<path class="st0" d="M64.3,227.8c0,6.6,0,13.2,0,19.8c0,1.1,0,1.1-1.1,1.1c-0.9,0-1.8,0-2.7,0c-0.6,0-0.8-0.2-0.8-0.8
				c0-3,0-5.9,0-8.9c0-0.5-0.1-1-0.4-1.5c-3.4-5.1-8.1-7.4-14.2-7.2c-0.5,0-0.6,0.2-0.5,0.7c0.4,2.5,0.8,5.1,0.8,7.7
				c0,5.2-2.9,8.7-8,9.7c-0.8,0.1-1.5,0.3-2.3,0.3c-0.4,0-0.6-0.2-0.6-0.6c0-1.2,0-2.3-0.1-3.5c0-0.5,0.3-0.6,0.7-0.6
				c0.9-0.1,1.7-0.1,2.6-0.4c2-0.6,3-2,3.1-4c0.1-2.7-0.2-5.4-0.7-8.1c-0.5-3.2-0.9-6.4-0.6-9.6c0.3-3.6,1.2-7,3.7-9.7
				c2-2.1,4.5-3.4,7.2-4.1c2.9-0.8,5.9-1.1,9-1.1c1.4,0,2.8,0,4.3,0c0.6,0,0.8,0.2,0.8,0.8c0,0.2,0,0.4,0,0.6
				C64.3,214.9,64.3,221.3,64.3,227.8z M59.6,221.1c0-2.7,0-5.5,0-8.2c0-1.3,0-1.3-1.3-1.3c-2.5,0-4.9,0.3-7.2,1.1
				c-3.1,1-5.3,2.9-6.4,6c-0.7,2.1-0.8,4.3-0.8,6.5c0,0.5,0.2,0.6,0.6,0.6c1.1,0,2.3-0.1,3.4,0c4.2,0.4,7.8,2,11.1,4.6
				c0.2,0.1,0.3,0.4,0.5,0.3c0.2-0.1,0.1-0.4,0.1-0.6C59.6,227,59.6,224.1,59.6,221.1z"/>
			<path class="st0" d="M130.8,227.8c0,6.6,0,13.2,0,19.8c0,1.1,0,1.1-1.1,1.1c-0.9,0-1.8,0-2.7,0c-0.6,0-0.8-0.2-0.8-0.8
				c0-3,0-5.9,0-8.9c0-0.5-0.1-1-0.4-1.5c-3.4-5.1-8.1-7.4-14.2-7.2c-0.5,0-0.6,0.2-0.5,0.7c0.4,2.5,0.8,5.1,0.8,7.7
				c0,5.2-2.9,8.7-8,9.7c-0.8,0.1-1.5,0.3-2.3,0.3c-0.4,0-0.6-0.1-0.6-0.5c-0.1-1.2-0.1-2.4-0.1-3.6c0-0.5,0.4-0.5,0.7-0.5
				c0.9-0.1,1.8-0.2,2.6-0.4c1.9-0.6,2.9-1.9,3-4c0.1-2.8-0.2-5.5-0.7-8.2c-0.5-3.2-0.9-6.4-0.6-9.6c0.3-3.6,1.2-7,3.7-9.7
				c2-2.1,4.5-3.4,7.2-4.1c3.6-1,7.2-1.2,10.9-1.2c0.8,0,1.6,0,2.4,0c0.5,0,0.7,0.2,0.7,0.7c0,0.6,0,1.3,0,1.9
				C130.8,215.7,130.8,221.8,130.8,227.8z M126.2,221.2c0-2.7,0-5.4,0-8.2c0-1.4,0-1.4-1.4-1.4c-2.4,0-4.8,0.3-7.1,1
				c-3.7,1.2-6,3.6-6.8,7.4c-0.4,1.6-0.4,3.3-0.4,4.9c0,0.6,0.2,0.8,0.8,0.8c1.1,0,2.2-0.1,3.2,0c4.2,0.4,7.8,2.1,11.1,4.6
				c0.2,0.1,0.3,0.4,0.5,0.3c0.2-0.1,0.1-0.4,0.1-0.5C126.2,227.1,126.2,224.1,126.2,221.2z"/>
			<path class="st0" d="M84.7,249.5c-4-0.1-7.9-0.9-11.2-3.3c-4.4-3.2-5.3-9.2-1.9-13.2c2-2.4,4.7-3.1,7.7-2.9
				c2.9,0.3,5.4,1.4,7.8,3c0.4,0.3,0.5,0.6,0.3,1.1c-0.4,1.1-0.8,2.2-1.2,3.2c-0.2,0.5-0.4,0.6-0.8,0.2c-1.5-1.3-3-2.3-5-2.7
				c-1.3-0.3-2.7-0.3-3.9,0.3c-2.5,1.3-3.1,4.2-1.3,6.3c0.9,1,2,1.7,3.3,2.2c3.4,1.2,6.9,1.5,10.4,0.5c3.7-1.1,5.9-3.9,5.7-7.5
				c-0.1-2.7-1.4-4.9-3.5-6.6c-2.1-1.7-4.4-2.8-6.8-4c-2.7-1.3-5.5-2.6-7.9-4.6c-3-2.6-4.2-6.6-2.9-10c0.7-1.8,1.9-3.1,3.5-3.8
				c4.7-2.2,9.4-2.1,13.7,0.7c3.2,2.1,3.4,5.4,1.7,8.6c-0.2,0.3-0.3,0.4-0.6,0.2c-1-0.6-2.1-1.2-3.2-1.8c-0.2-0.1-0.4-0.3-0.3-0.6
				c0.4-0.9,0.6-1.9,0-2.8c-0.7-1-1.8-1.3-2.9-1.5c-1.8-0.3-3.6-0.1-5.3,0.7c-2.2,1.1-2.9,3.2-1.7,5.4c0.5,1,1.4,1.7,2.3,2.4
				c1.8,1.2,3.8,2.1,5.8,3.1c2.7,1.3,5.3,2.6,7.6,4.5c3,2.5,4.6,5.6,4.9,9.5c0.6,7.2-4.2,11.3-9.6,12.7c-0.7,0.2-1.4,0.3-2,0.4
				C86.6,249.4,85.6,249.5,84.7,249.5z"/>
			<path class="st0" d="M18.3,249.5c-5.6,0-10.2-2.1-13.6-6.6c-2.2-2.9-3.5-6.1-4.2-9.6c-1-5.9-0.6-11.6,1.6-17.1
				c2.6-6.2,8.3-10.1,15-10.2c3.3-0.1,6.3,0.7,8.9,3c2.7,2.4,4,5.4,4.4,9c0.2,2.3-0.1,4.4-1.2,6.4c-2.5,4.6-9.8,6.2-13.7,1.4
				c-0.7-0.9-0.7-0.9-0.1-1.8c0.5-0.8,1.1-1.5,1.6-2.3c0.4-0.6,0.5-0.6,0.8,0c0.8,1.4,2,2.3,3.6,2.3c1.7,0,2.9-0.7,3.7-2.1
				c0.5-0.9,0.6-1.8,0.6-2.8c-0.1-3.8-2.6-7.3-6.1-8c-2.8-0.6-5.5-0.2-8,1.1c-3.5,1.9-5.4,5-6.3,8.7c-1.2,4.8-1.3,9.7,0.3,14.4
				c1.4,4.2,3.9,7.5,8.3,9c5.8,1.9,11.8,0,15.5-5c0.7-1,0.7-1,1.3,0.1c0.5,1,1,2,1.5,3c0.2,0.3,0.2,0.6-0.1,0.9
				c-3,3.5-6.7,5.6-11.3,6.2C20.1,249.4,19.2,249.4,18.3,249.5z"/>
			<path class="st0" d="M149.1,228.2c0-5.1,0.7-9.4,2.8-13.4c3-5.8,7.9-8.6,14.4-8.9c3.3-0.1,6.3,0.7,8.9,3c2.7,2.4,4,5.4,4.4,9
				c0.2,2.3-0.1,4.4-1.2,6.4c-2.5,4.6-9.8,6.2-13.7,1.3c-0.5-0.6-0.6-1.1-0.1-1.8c0.6-0.8,1.1-1.6,1.7-2.4c0.3-0.4,0.4-0.5,0.7,0
				c1,1.9,2.6,2.7,4.6,2.3c1.9-0.4,3.2-1.9,3.4-4c0.4-4.3-2.7-8.6-7-9.1c-4.6-0.5-8.4,1-11.1,4.9c-1.6,2.3-2.4,5-2.8,7.8
				c-0.5,3.9-0.4,7.8,0.8,11.6c1.6,4.7,4.4,8.1,9.4,9.4c5.5,1.3,11-0.7,14.3-5.3c0.7-1,0.7-1,1.3,0.1c0.5,1,1,2,1.5,3
				c0.2,0.4,0.2,0.6-0.1,1c-3.4,4-7.8,6.1-13.1,6.3c-4.2,0.1-8.1-0.8-11.5-3.5c-3.4-2.7-5.4-6.3-6.6-10.4
				C149.4,232.9,149,230.3,149.1,228.2z"/>
		</g>
	</g>
</g>
</svg>
