<?xml version="1.0" encoding="utf-8"?>
<!-- Generator: Adobe Illustrator 21.0.0, SVG Export Plug-In . SVG Version: 6.00 Build 0)  -->
<svg version="1.1" id="Layer_1" xmlns="http://www.w3.org/2000/svg" xmlns:xlink="http://www.w3.org/1999/xlink" x="0px" y="0px"
	 viewBox="0 0 386.8 117.2" style="enable-background:new 0 0 386.8 117.2;" xml:space="preserve">
<style type="text/css">
	.st0{fill:#C9D6A6;}
	.st1{filter:url(#Adobe_OpacityMaskFilter);}
	.st2{fill:#FFFFFF;}
	.st3{mask:url(#SVGID_3_);}
	.st4{fill:#56455A;}
	.st5{fill:#CB5E4E;}
	.st6{fill:#7FB4E2;}
	.st7{fill:#4C6994;}
	.st8{fill:#5E8F81;}
	.st9{fill:#B6295D;}
	.st10{fill:#913A89;}
	.st11{fill:#D4761A;}
	.st12{filter:url(#Adobe_OpacityMaskFilter_1_);}
	.st13{mask:url(#SVGID_4_);}
	.st14{fill:#709658;}
	.st15{fill:#A5C174;}
	.st16{fill:#86A37F;}
	.st17{fill:#6F837C;}
	.st18{fill:#C0B998;}
	.st19{fill:#615A3C;}
	.st20{fill:#6A705A;}
	.st21{fill:#CCC293;}
	.st22{fill:#8E775F;}
	.st23{fill:#5C493E;}
	.st24{fill:#887B53;}
	.st25{fill:#744D3E;}
	.st26{fill:#AD4C3B;}
	.st27{fill:#09090A;}
	.st28{fill:#787158;}
	.st29{fill:#DAD39B;}
	.st30{fill:#4F4B37;}
	.st31{fill:#CC5548;}
	.st32{fill:#6F864E;}
	.st33{fill:#5C3637;}
	.st34{fill:#DE453B;}
	.st35{fill:#F48E28;}
	.st36{fill:#654D4C;}
	.st37{fill:#D3770B;}
	.st38{fill:#687E49;}
	.st39{fill:#841B09;}
	.st40{fill:#E0481D;}
	.st41{fill:#D88515;}
	.st42{fill:#F7C600;}
	.st43{fill:#9A2C31;}
	.st44{fill:#E18C36;}
	.st45{fill:#EABD26;}
	.st46{fill:#38668D;}
	.st47{fill:#5194B5;}
	.st48{fill:#B6D7D7;}
	.st49{fill:#73B8BD;}
	.st50{fill:#73170A;}
	.st51{fill:#464C5E;}
	.st52{fill:#95989D;}
	.st53{fill:#CFD8D3;}
	.st54{fill:#929B9B;}
	.st55{fill:#9B7E73;}
	.st56{fill:#CA4C3B;}
	.st57{fill:#B4E6D7;}
	.st58{fill:#A3322F;}
	.st59{fill:#C22821;}
	.st60{fill:#ED6B00;}
	.st61{fill:#574728;}
	.st62{fill:#7A6043;}
	.st63{fill:#A2A29B;}
	.st64{fill:#D1CCC3;}
	.st65{fill:#DDEDE7;}
	.st66{fill:#DEDBD3;}
	.st67{fill:#737B7B;}
	.st68{fill:#ABA69C;}
	.st69{fill:#CBC6BD;}
	.st70{fill:#E3E66F;}
</style>
<g>
	<g>
		<path class="st30" d="M198.5,27.9c0,6.6,0,13.2,0,19.8c0,1.1,0,1.1-1.1,1.1c-0.9,0-1.8,0-2.7,0c-0.6,0-0.8-0.2-0.8-0.8
			c0-3,0-5.9,0-8.9c0-0.5-0.1-1-0.4-1.5c-3.4-5.1-8.1-7.4-14.2-7.2c-0.5,0-0.6,0.2-0.5,0.7c0.4,2.5,0.8,5.1,0.8,7.7
			c0,5.2-2.9,8.7-8,9.7c-0.8,0.1-1.5,0.3-2.3,0.3c-0.4,0-0.6-0.2-0.6-0.6c0-1.2,0-2.3-0.1-3.5c0-0.5,0.3-0.6,0.7-0.6
			c0.9-0.1,1.7-0.1,2.6-0.4c2-0.6,3-2,3.1-4c0.1-2.7-0.2-5.4-0.7-8.1c-0.5-3.2-0.9-6.4-0.6-9.6c0.3-3.6,1.2-7,3.7-9.7
			c2-2.1,4.5-3.4,7.2-4.1c2.9-0.8,5.9-1.1,9-1.1c1.4,0,2.8,0,4.3,0c0.6,0,0.8,0.2,0.8,0.8c0,0.2,0,0.4,0,0.6
			C198.5,14.9,198.5,21.4,198.5,27.9z M193.8,21.2c0-2.7,0-5.5,0-8.2c0-1.3,0-1.3-1.3-1.3c-2.5,0-4.9,0.3-7.2,1.1
			c-3.1,1-5.3,2.9-6.4,6c-0.7,2.1-0.8,4.3-0.8,6.5c0,0.5,0.2,0.6,0.6,0.6c1.1,0,2.3-0.1,3.4,0c4.2,0.4,7.8,2,11.1,4.6
			c0.2,0.1,0.3,0.4,0.5,0.3c0.2-0.1,0.1-0.4,0.1-0.6C193.8,27.1,193.8,24.2,193.8,21.2z"/>
		<path class="st30" d="M265,27.9c0,6.6,0,13.2,0,19.8c0,1.1,0,1.1-1.1,1.1c-0.9,0-1.8,0-2.7,0c-0.6,0-0.8-0.2-0.8-0.8
			c0-3,0-5.9,0-8.9c0-0.5-0.1-1-0.4-1.5c-3.4-5.1-8.1-7.4-14.2-7.2c-0.5,0-0.6,0.2-0.5,0.7c0.4,2.5,0.8,5.1,0.8,7.7
			c0,5.2-2.9,8.7-8,9.7c-0.8,0.1-1.5,0.3-2.3,0.3c-0.4,0-0.6-0.1-0.6-0.5c-0.1-1.2-0.1-2.4-0.1-3.6c0-0.5,0.4-0.5,0.7-0.5
			c0.9-0.1,1.8-0.2,2.6-0.4c1.9-0.6,2.9-1.9,3-4c0.1-2.8-0.2-5.5-0.7-8.2c-0.5-3.2-0.9-6.4-0.6-9.6c0.3-3.6,1.2-7,3.7-9.7
			c2-2.1,4.5-3.4,7.2-4.1c3.6-1,7.2-1.2,10.9-1.2c0.8,0,1.6,0,2.4,0c0.5,0,0.7,0.2,0.7,0.7c0,0.6,0,1.3,0,1.9
			C265,15.8,265,21.9,265,27.9z M260.4,21.3c0-2.7,0-5.4,0-8.2c0-1.4,0-1.4-1.4-1.4c-2.4,0-4.8,0.3-7.1,1c-3.7,1.2-6,3.6-6.8,7.4
			c-0.4,1.6-0.4,3.3-0.4,4.9c0,0.6,0.2,0.8,0.8,0.8c1.1,0,2.2-0.1,3.2,0c4.2,0.4,7.8,2.1,11.1,4.6c0.2,0.1,0.3,0.4,0.5,0.3
			c0.2-0.1,0.1-0.4,0.1-0.5C260.4,27.2,260.4,24.2,260.4,21.3z"/>
		<path class="st30" d="M218.9,49.6c-4-0.1-7.9-0.9-11.2-3.3c-4.4-3.2-5.3-9.2-1.9-13.2c2-2.4,4.7-3.1,7.7-2.9
			c2.9,0.3,5.4,1.4,7.8,3c0.4,0.3,0.5,0.6,0.3,1.1c-0.4,1.1-0.8,2.2-1.2,3.2c-0.2,0.5-0.4,0.6-0.8,0.2c-1.5-1.3-3-2.3-5-2.7
			c-1.3-0.3-2.7-0.3-3.9,0.3c-2.5,1.3-3.1,4.2-1.3,6.3c0.9,1,2,1.7,3.3,2.2c3.4,1.2,6.9,1.5,10.4,0.5c3.7-1.1,5.9-3.9,5.7-7.5
			c-0.1-2.7-1.4-4.9-3.5-6.6c-2.1-1.7-4.4-2.8-6.8-4c-2.7-1.3-5.5-2.6-7.9-4.6c-3-2.6-4.2-6.6-2.9-10c0.7-1.8,1.9-3.1,3.5-3.8
			c4.7-2.2,9.4-2.1,13.7,0.7c3.2,2.1,3.4,5.4,1.7,8.6c-0.2,0.3-0.3,0.4-0.6,0.2c-1-0.6-2.1-1.2-3.2-1.8c-0.2-0.1-0.4-0.3-0.3-0.6
			c0.4-0.9,0.6-1.9,0-2.8c-0.7-1-1.8-1.3-2.9-1.5c-1.8-0.3-3.6-0.1-5.3,0.7c-2.2,1.1-2.9,3.2-1.7,5.4c0.5,1,1.4,1.7,2.3,2.4
			c1.8,1.2,3.8,2.1,5.8,3.1c2.7,1.3,5.3,2.6,7.6,4.5c3,2.5,4.6,5.6,4.9,9.5c0.6,7.2-4.2,11.3-9.6,12.7c-0.7,0.2-1.4,0.3-2,0.4
			C220.8,49.5,219.8,49.6,218.9,49.6z"/>
		<path class="st30" d="M152.5,49.6c-5.6,0-10.2-2.1-13.6-6.6c-2.2-2.9-3.5-6.1-4.2-9.6c-1-5.9-0.6-11.6,1.6-17.1
			c2.6-6.2,8.3-10.1,15-10.2c3.3-0.1,6.3,0.7,8.9,3c2.7,2.4,4,5.4,4.4,9c0.2,2.3-0.1,4.4-1.2,6.4c-2.5,4.6-9.8,6.2-13.7,1.4
			c-0.7-0.9-0.7-0.9-0.1-1.8c0.5-0.8,1.1-1.5,1.6-2.3c0.4-0.6,0.5-0.6,0.8,0c0.8,1.4,2,2.3,3.6,2.3c1.7,0,2.9-0.7,3.7-2.1
			c0.5-0.9,0.6-1.8,0.6-2.8c-0.1-3.8-2.6-7.3-6.1-8c-2.8-0.6-5.5-0.2-8,1.1c-3.5,1.9-5.4,5-6.3,8.7c-1.2,4.8-1.3,9.7,0.3,14.4
			c1.4,4.2,3.9,7.5,8.3,9c5.8,1.9,11.8,0,15.5-5c0.7-1,0.7-1,1.3,0.1c0.5,1,1,2,1.5,3c0.2,0.3,0.2,0.6-0.1,0.9
			c-3,3.5-6.7,5.6-11.3,6.2C154.3,49.5,153.4,49.5,152.5,49.6z"/>
	</g>
	<path class="st30" d="M112.1,56.3c2.8-3.9,3.6-9,2.1-13.6c-1.6-5.2-5.8-9.1-11-10.5c-1-0.3-2-0.5-3-0.6c1.6-3.5,2-7.6,0.9-11.3
		c-1.3-4.9-4.9-8.8-9.6-10.4C89.8,9.3,88,9,86.2,9c-0.5,0-1,0-1.4,0.1c-2-4.4-5.9-7.6-10.7-8.6C73,0.2,71.8,0,70.6,0
		c-4.2,0-8.1,1.7-11.1,4.6c-0.8,0.7-1.4,1.5-2.1,2.4c-2.3-3.2-5.6-5.5-9.4-6.5C46.8,0.2,45.4,0,44,0l0,0c-3.6,0-7.1,1.3-9.8,3.6
		c-1.7,1.5-3.1,3.3-4.1,5.4c-0.5,0-1-0.1-1.5-0.1c-4.3,0-8.5,1.8-11.4,5c-3.7,4-5,9.6-3.6,14.8c0.2,1,0.6,2,1,2.9
		c-3.9,0.4-7.5,2.1-10.3,4.9C0.9,40-0.7,45.1,0.3,50c0.4,2.2,1.3,4.4,2.6,6.2c-2.8,3.9-3.6,9-2.1,13.6c1.6,5.2,5.8,9.1,11,10.5
		c1,0.3,2,0.5,3,0.6c-1.6,3.5-2,7.6-1,11.3c1.3,4.9,4.9,8.8,9.6,10.4c1.7,0.6,3.5,0.9,5.2,0.9c0.5,0,1,0,1.4-0.1
		c2,4.4,6,7.6,10.7,8.6c1.1,0.2,2.3,0.4,3.5,0.4c4.2,0,8.1-1.7,11.1-4.6c0.8-0.7,1.4-1.5,2.1-2.4c2.3,3.2,5.6,5.5,9.4,6.5
		c1.3,0.3,2.7,0.5,4.1,0.5c3.6,0,7.1-1.3,9.8-3.6c1.7-1.5,3.1-3.3,4.1-5.4c0.5,0,1,0.1,1.5,0.1c4.3,0,8.5-1.8,11.4-5
		c3.7-4,5-9.5,3.6-14.7c-0.2-1-0.6-2-1-2.9c3.9-0.4,7.5-2.1,10.3-4.9C115.7,70.8,116.4,62.5,112.1,56.3L112.1,56.3z"/>
	<g>
		<path class="st31" d="M68.2,73c0.1,0,0.2,0,0.3,0c1.3,0.2,2.4,0.3,3.6,0.5c4.5,0.6,9,1.5,13.4,2.7c1.8,0.5,3.5,1.1,5.2,1.9
			c2.8,1.5,4.4,3.9,5.2,6.9c1,3.5,0.1,7.2-2.4,9.9c-1.9,2.1-4.5,3.3-7.3,3.2c-1.4,0-2.7-0.3-4-0.8c-0.5-0.2-0.9-0.4-1.4-0.6l0,0.7
			c-0.1,2.8-1.4,5.5-3.6,7.3c-1.7,1.5-4,2.4-6.3,2.4c-0.9,0-1.9-0.1-2.8-0.4c-4.6-1.2-7.9-5.2-8.3-9.9c-0.1-1.8,0.2-3.6,0.7-5.3
			c1.3-5.1,3-10.1,5-14.9l1-2.4C66.7,73.5,67.4,73,68.2,73"/>
		<path class="st31" d="M70.6,5.4c0.8,0,1.6,0.1,2.4,0.3c4.1,0.9,7.2,4.3,7.8,8.6c0.1,0.5,0.1,1,0.1,1.6l0.6-0.3
			c1.5-0.7,3.1-1.1,4.7-1.1c1.2,0,2.3,0.2,3.4,0.6c3.1,1.1,5.5,3.7,6.3,6.9c1.2,4.6-0.5,9.4-4.4,12.1c-1.5,0.9-3.2,1.6-4.9,2.1
			c-5.1,1.4-10.2,2.4-15.4,3.1l-2.6,0.4c-0.9,0.1-1.8-0.4-2.2-1.3c-0.5-1.1-0.9-2.3-1.4-3.4c-1.7-4.2-3.2-8.5-4.3-12.9
			c-0.5-1.8-0.8-3.6-0.9-5.5c-0.1-3.1,1.2-5.8,3.4-8C65.2,6.6,67.9,5.4,70.6,5.4"/>
		<path class="st31" d="M46.6,73c0.8,0,1.6,0.5,1.9,1.3c0.5,1.1,0.9,2.3,1.4,3.4c1.7,4.2,3.2,8.5,4.3,13c0.5,1.8,0.8,3.6,0.9,5.5
			c0.1,3.1-1.2,5.8-3.4,8c-1.9,2-4.6,3.1-7.4,3.1c-0.8,0-1.6-0.1-2.4-0.3c-4.1-0.9-7.3-4.3-7.8-8.5c-0.1-0.5-0.1-1-0.1-1.6l-0.6,0.3
			c-1.5,0.7-3.1,1.1-4.7,1.1c-1.2,0-2.3-0.2-3.4-0.6c-3.1-1.1-5.5-3.7-6.3-6.9c-1.2-4.6,0.5-9.4,4.4-12.1c1.5-0.9,3.2-1.6,4.9-2.1
			c5.1-1.4,10.2-2.4,15.4-3.1l2.6-0.4C46.4,73,46.5,73,46.6,73"/>
		<path class="st31" d="M44,5.4c0.9,0,1.9,0.1,2.8,0.4c4.6,1.2,7.9,5.2,8.3,9.9c0.1,1.8-0.1,3.6-0.6,5.3c-1.3,5.1-3,10.1-5,14.9
			l-1,2.4c-0.3,0.8-1.1,1.3-1.9,1.3c-0.1,0-0.2,0-0.3,0c-1.3-0.2-2.4-0.3-3.6-0.5c-4.5-0.6-9-1.5-13.4-2.7c-1.8-0.5-3.5-1.1-5.2-1.9
			c-2.8-1.5-4.4-3.9-5.2-6.9c-1-3.5-0.1-7.2,2.4-9.9c1.9-2.1,4.5-3.3,7.3-3.2c1.4,0,2.7,0.3,4,0.8c0.5,0.2,0.9,0.4,1.4,0.6l0-0.7
			c0.1-2.8,1.4-5.5,3.6-7.3C39.5,6.2,41.7,5.3,44,5.4"/>
		<path class="st31" d="M16.4,36.9c1.6,0,3.2,0.3,4.6,1c1.6,0.9,3,1.9,4.3,3.2c3.8,3.7,7.2,7.6,10.4,11.8l1.6,2.1
			c0.6,0.7,0.6,1.8,0,2.5c-0.8,1-1.5,1.9-2.3,2.9c-2.8,3.6-5.8,7-9.1,10.2c-1.3,1.3-2.7,2.5-4.3,3.5c-1.6,1-3.4,1.5-5.2,1.5
			c-1.1,0-2.3-0.2-3.4-0.5c-3.5-0.9-6.3-3.5-7.3-7c-1.3-4,0.2-8.5,3.5-11c0.4-0.3,0.8-0.6,1.3-0.9l-0.6-0.4c-2.4-1.5-4-4-4.5-6.8
			c-0.6-3.2,0.4-6.6,2.8-8.9C10.5,38.1,13.4,36.9,16.4,36.9"/>
		<path class="st31" d="M98.4,36.9c1.1,0,2.3,0.2,3.4,0.5c3.5,0.9,6.3,3.5,7.3,7c1.3,4-0.1,8.5-3.5,11c-0.4,0.3-0.8,0.6-1.3,0.9
			l0.6,0.4c2.4,1.5,4,4,4.5,6.8c0.6,3.2-0.4,6.6-2.8,8.9c-2.1,2.1-5,3.3-8.1,3.3c-1.6,0-3.2-0.3-4.6-1c-1.6-0.8-3-1.9-4.3-3.2
			c-3.8-3.7-7.2-7.6-10.4-11.8l-1.6-2.1c-0.6-0.7-0.6-1.8,0-2.5c0.8-1,1.5-1.9,2.3-2.9c2.8-3.6,5.8-7,9-10.2
			c1.3-1.3,2.7-2.5,4.3-3.5C94.7,37.4,96.5,36.9,98.4,36.9"/>
	</g>
	<g>
		<path class="st0" d="M104.6,56.2c2.1,1.4,3.7,3.4,4.5,5.8c2.6,8.8-5.5,14.9-12.8,13.4c-3.5-0.7-5.8-2.9-8-5.3
			c-1.7-1.8-3.5-3.6-5.2-5.6c-1.9-2.2-3.8-4.5-5.6-6.8c-0.8-1-0.8-2.4,0.1-3.3c4-4.6,8-9.2,12.2-13.7c2.4-2.6,5.5-4.2,9-4
			c3.7,0.2,7.1,1.6,9.2,5c2.6,4.3,2.1,9.2-1.5,13.1C105.8,55.4,105.2,55.9,104.6,56.2z M82.5,56.1c2,2.4,3.7,4.5,5.5,6.6
			c1.7,1.9,3.4,3.8,5.3,5.6c1.6,1.6,3.5,2.6,5.9,2.3c2.3-0.2,4.2-1.7,4.9-3.9c0.7-1.9,0.4-3.9-1.3-5.1c-2-1.5-4.2-2.8-6.3-4.2
			c-0.4-0.2-0.6-0.6-0.7-1c0-0.3,0.3-0.7,0.6-0.9c1.5-1.1,3.1-2,4.7-3.1c0.9-0.6,1.7-1.2,2.4-2c2.6-3-0.3-7.9-3.6-8.4
			c-2.6-0.4-4.5,0.3-6.2,2.1L82.5,56.1z M102.9,40.3l-0.2,0.4l2.3,1.3l0.3-0.5C105,40.2,103.9,40.3,102.9,40.3L102.9,40.3z
			 M102.5,59l-0.1-1.7c-0.5,0.1-1,0.3-1.4,0.6c-0.2,0.2,0,0.7,0,1.1H102.5z"/>
		<path class="st0" d="M33.9,15.7c0.4-5.1,2.9-8.5,7.1-9.8c5.1-1.5,10.5,0.8,13,5.5c2,3.7,1.5,7.2,0.4,10.8
			c-1.7,5.4-3.6,10.7-5.4,16.1c-0.7,2-2.4,1.6-3.8,1.3C40.1,38.7,35,37.8,30,36.6c-2.5-0.6-5-1.6-7.2-3c-1.5-1.1-2.7-2.7-3.3-4.5
			c-1.3-3.4-1.3-6.9,0.7-10.1c1.3-2.2,3.3-4,5.8-4.3S31.5,13.6,33.9,15.7z M38.7,16.2c0.1,2,0.3,4.1,0.4,6.1c0,0.8-1.1,1.3-1.8,0.9
			c-2.1-1.1-4.2-2.2-6.3-3.3c-1.4-0.8-3.1-0.8-4.4,0.1c-1.7,1.1-3.2,2.7-3,4.9c0.3,2.7,1.4,5.1,4.4,5.9c4.6,1.2,9.2,2.4,13.9,3.5
			c3.1,0.7,3.1,0.5,3.9-1.3c0.2-0.4,0.1-0.9,0.2-1.4c1.3-3.9,2.5-7.7,3.8-11.5c0.8-2.5,0.9-4.8-0.8-7c-1.6-2.1-5.1-3.4-7.4-1.7
			c-1.5,1.1-2.7,2.4-2.5,4.6L37.8,15l-0.3,0.4L38.7,16.2z M23.3,18.8l-2,3C23.1,21.8,24,20.4,23.3,18.8z"/>
		<path class="st0" d="M10.5,56.2c-6.2-3.5-6.8-13-0.8-17.2C13.9,36,19,35.6,23.2,39c3.6,2.9,6.5,6.6,9.6,10
			c1.7,1.9,3.2,3.9,4.8,5.8c0.8,0.9,0.8,2.2-0.1,3c-3.9,4.5-7.8,9.1-11.9,13.4c-2.4,2.5-5.2,4.7-9,4.4C11.3,75.3,7.8,74,6,68.4
			C4.5,63.5,5.4,60.1,10.5,56.2z M32.5,56.1c-3.9-4.2-7.6-8.3-11.4-12.3c-1.4-1.5-3.4-2.3-5.4-2c-2.5,0.3-4.5,2.1-5.2,4.6
			C10,48,11.2,50.6,13,51.7c2,1.4,4.2,2.7,6.4,4.1c-0.3,0.5-0.6,0.9-1,1.3c-2,1.3-4.1,2.5-6,3.9c-2.2,1.5-2.7,4.5-1.2,6.6
			c0,0.1,0.1,0.1,0.1,0.2c2.2,3,5.5,3.5,7.6,2.2c1.9-1.3,3.7-2.8,5.2-4.5C26.9,62.6,29.5,59.5,32.5,56.1z M20.4,39.3l-3.6-0.6
			l-0.2,0.4c0.6,0.5,1.2,1.2,1.9,1.3C18.9,40.5,19.6,39.8,20.4,39.3z M25.8,66.7l-0.4-0.2c-0.6,0.7-1.3,1.3-1.9,2
			c-0.2,0.2-0.1,0.6-0.1,1c0.4-0.1,0.9,0,1.1-0.2C25,68.4,25.5,67.6,25.8,66.7z"/>
		<path class="st0" d="M80.7,97c0.2,2.4-0.6,4.8-2.3,6.5c-1.8,2-3.9,3.3-6.7,3.6c-3.5,0.4-7-1-9.3-3.7c-2.4-2.5-3.4-5.9-2.7-9.3
			c1.3-6.9,3.9-13.3,6.3-19.9c0.7-1.9,2.3-1.6,3.6-1.4c4.2,0.6,8.4,1.3,12.5,2.2c2.9,0.7,5.7,1.7,8.4,2.8c5.3,2,7.4,10.8,4.5,15.3
			c-2.7,4.1-7.7,6.1-13.1,4.2C81.6,97.3,81.3,97.2,80.7,97z M70.1,78c-0.9,2.4-1.8,4.6-2.5,6.7c-0.8,2.2-1.4,4.5-2.1,6.7
			c-0.5,1.3-1.1,2.6-1.6,3.9c-0.1,0.2-0.1,0.4,0,0.6c0.8,1.3,1.6,2.5,2.4,3.8c1,1.6,2.9,2.5,4.8,2.4c1.9-0.1,3.9-1.2,4.3-3.3
			c0.6-2.5,0.8-5.2,0.8-7.8c-0.1-1.4,0.4-1.5,1.2-1.6c2.6,1.3,5.3,2.5,8,3.6c1.9,0.8,3.5-0.2,4.7-1.5c3-3.4,0.6-8.7-3-9.7
			c-2-0.5-4-1.3-6-1.7C77.4,79.3,73.7,78.7,70.1,78z M77,98.4c1.4-0.3,3.3-2,3.4-3.2c0-0.3-0.4-0.6-0.7-1.1
			C78.6,95.6,76.7,96.3,77,98.4z"/>
		<path class="st0" d="M33.4,96.7c-1,0.6-1.7,1.2-2.5,1.3c-4.7,0.9-10-1.5-11.5-6.5c-1.8-5.8,0-10.1,4.2-13.2
			c1.9-1.4,4.5-1.9,6.8-2.5c4-1,8-1.8,12.1-2.6c1.3-0.3,2.7-0.2,4.1-0.4c1.3-0.2,2.1,0.6,2.6,1.8c2.3,6,4.8,12,6,18.4
			s-1.2,11.5-7.4,13.6c-4.9,1.7-9.1,0.2-12.3-4.5c-0.1-0.2-0.2-0.4-0.3-0.7c-0.3-1.3-0.6-2.6-1-3.9C33.9,97.1,33.5,96.8,33.4,96.7z
			 M45,78.1c-1.5,0-3,0.1-4.4,0.3c-3.3,0.7-6.7,1.6-10,2.4c-2.9,0.7-5.4,1.8-6.6,4.8c-1.1,2.7,0.2,5.8,2.9,6.9
			c0.1,0.1,0.2,0.1,0.4,0.1c0.7,0.2,1.5,0.4,1.5,1.5c0.1,0.8,1.5,0.9,2,0.3l-0.5-1.1c2.3-1.4,4.4-2.7,6.7-4c0.5-0.2,1-0.3,1.5-0.1
			c0.3,0.1,0.4,0.8,0.4,1.2c0.2,2.7,0.2,5.5,0.7,8.1s3,3.7,5.8,3.2c2-0.3,4.6-3.2,4.7-5c0.2-2.7-0.5-5.3-1.3-7.9
			C47.5,85.3,46.2,81.6,45,78.1z M34.6,92.4c-0.2,0.4-0.6,1.1-0.5,1.3c0.6,0.6,1.3,1.1,2,1.5c0.1-0.3,0.4-0.8,0.3-0.9
			C35.9,93.7,35.3,93,34.6,92.4z"/>
		<path class="st0" d="M81.2,15.5c3.3-1.7,7.2-1.6,10.4,0.2c2.5,1.4,3.9,3.7,4.6,6.5c1.3,5.1-1.7,11.5-7.3,13.3
			c-4.9,1.6-9.9,2.7-15,3.4c-1.6,0.1-3.1,0.4-4.6,0.7c-1.5,0.5-2.4-0.1-2.9-1.3c-2-5.6-4.2-11.1-5.8-16.8c-1-3.4-1.4-7,0.5-10.4
			c3.6-6.1,10.9-7.8,16.8-3.1C79.4,9.4,80.8,12.6,81.2,15.5z M79.7,35.2l0.4-0.3c-0.1-0.9-0.9-2,0.7-2.4c1.7-0.4,3.4-0.9,5.1-1.3
			c2.8-0.6,4.6-2.3,5.2-5.1c0.5-1.8,0.1-3.7-1.2-5.1c-1.2-1.6-3.3-2.2-5.1-1.5c-2.4,0.8-4.5,2.3-6.8,3.4c-0.4,0.2-0.8,0.3-1.3,0.2
			c-0.3-0.1-0.4-0.7-0.4-1.1c-0.1-2.4,0-4.8-0.4-7.1c-0.2-1.9-1.5-3.5-3.2-4.1c-2.2-0.8-4-0.2-5.7,1.2c-1.9,1.5-2.7,4.1-2.1,6.4
			c1.3,5.1,2.7,10.3,5,15.1c0.2,0.4,0.7,1,0.9,0.9c2.1-0.2,4.2-0.6,6.3-1.1c1.1-0.3,1.4,0.1,1.7,0.9C79,34.6,79.4,34.9,79.7,35.2z
			 M82.7,16.8l-0.1,0.7l2.9,0.5c0-0.5,0.2-1.3,0.1-1.4C84.6,16,83.5,15.8,82.7,16.8z M93.3,30.6l0.4-2.5c-0.5,0.1-1.2-0.1-1.5,0.2
			C91.5,29.2,92.1,29.8,93.3,30.6L93.3,30.6z"/>
		<path class="st0" d="M64.6,65.6l1.7,1.4c-0.1,0.2-0.2,0.3-0.3,0.3c-2.5-0.5-3.2,1.4-4.1,3c-1.1,1.9-1.9,3.8-3,5.7
			c-0.9,1.5-2.3,1.4-3.1-0.2c-1.3-2.3-2.5-4.6-3.7-6.9c-0.9-1.7-2.2-2.1-4.1-1.9c-2.5,0.2-5.1,0.3-7.6,0.3c-1.1,0-1.6-1.4-1-2.6
			c1.5-2.5,3-5,4.6-7.4c0.5-0.6,0.6-1.5,0.1-2.1c-1.5-2.4-2.9-4.8-4.3-7.3c-0.4-0.6-0.7-1.6-0.5-2.1c0.3-0.5,1.3-0.8,2-0.8
			c2.7,0,5.4,0.2,8.1,0.3c1.1,0.1,2.1-0.5,2.5-1.5c1.3-2.5,2.7-5,4.1-7.4c1-1.6,2.1-1.5,3,0.2c1.4,2.5,2.8,4.9,4.1,7.4
			c0.6,1.2,1.6,1.3,2.8,1.3c2.6-0.1,5.2-0.3,7.8-0.3c0.6,0,1.6,0.4,1.8,0.8c0.2,0.7,0.1,1.5-0.3,2.1c-1.4,2.4-3,4.8-4.4,7.2
			c-0.3,0.6-0.3,1.4,0,2c1.4,2.5,2.9,4.9,4.3,7.4c0.4,0.6,0.5,1.4,0.3,2.1c-0.2,0.4-1.2,0.6-1.8,0.7c-1.1,0.1-2.1,0.1-3.2,0
			c-1.1,0-2.2,0.2-2.9-1.3c-0.3-0.7-1.7-0.8-2.7-1.2L64.6,65.6z"/>
	</g>
	<path class="st32" d="M53.4,51l-1-0.8c0.1-0.1,0.1-0.2,0.1-0.2c1.4,0.3,1.8-0.8,2.3-1.7c0.6-1,1.1-2.1,1.7-3.1
		c0.5-0.8,1.3-0.8,1.7,0.1c0.7,1.3,1.4,2.6,2.1,3.8c0.5,1,1.2,1.2,2.3,1.1c1.4-0.1,2.8-0.2,4.2-0.2c0.6,0,0.9,0.8,0.5,1.4
		c-0.8,1.4-1.7,2.8-2.6,4.1c-0.3,0.3-0.3,0.8,0,1.2c0.8,1.3,1.6,2.7,2.4,4c0.2,0.4,0.4,0.9,0.3,1.2c-0.3,0.3-0.7,0.5-1.1,0.4
		c-1.5,0-3-0.1-4.5-0.2c-0.6-0.1-1.2,0.3-1.4,0.8c-0.7,1.4-1.5,2.8-2.3,4.1c-0.5,0.9-1.2,0.8-1.7-0.1c-0.8-1.4-1.6-2.7-2.3-4.1
		c-0.3-0.6-0.9-0.9-1.5-0.7c-1.4,0.1-2.9,0.2-4.3,0.2c-0.4,0-0.7-0.2-1-0.5c-0.1-0.4-0.1-0.8,0.2-1.2c0.8-1.4,1.7-2.7,2.5-4
		c0.2-0.4,0.2-0.8,0-1.1c-0.8-1.4-1.6-2.7-2.4-4.1c-0.2-0.3-0.3-0.8-0.2-1.1c0.1-0.2,0.6-0.3,1-0.4c0.6,0,1.2,0,1.8,0
		c0.6,0,1.2-0.1,1.6,0.7c0.2,0.4,1,0.5,1.5,0.7L53.4,51z"/>
	<g>
		<g>
			<path class="st30" d="M327.8,63.1c0-0.7-0.1-1.5-0.1-2.2c0-1.1,1.5-1.7,3.2-1.3c0.8,0.2,1.6,0.5,2.3,0.8c1.1,0.4,2,0.3,2.9-0.2
				c0.2-0.1,0.4-0.4,0.7-0.3c0.4,0.1,0.3,0.4,0.3,0.6c-0.2,0.9,0.5,1.8-0.6,2.6C333.7,63.1,330.8,63.1,327.8,63.1z"/>
			<path class="st30" d="M273,87.9c0,6.6,0,13.2,0,19.8c0,1,0,1-1,1c-0.9,0-1.8,0-2.7,0c-0.7,0-0.9-0.2-0.9-0.9c0-3.3,0-6.5,0-9.8
				c0-0.6-0.1-1-0.5-1.5c-3.7-4.6-8.5-6.9-14.5-6.3c-1.6,0.2-1.6,0.2-1.4,1.8c0.3,2.5,0.7,5,0.7,7.5c0,1.3-0.2,2.6-0.6,3.8
				c-1.1,3.1-3.9,5.1-7.2,5.3c-4.3,0.2-7.5-1.8-10.2-4.9c-2-2.4-3.6-5.1-5.3-7.8c-0.9-1.4-1.8-2.8-3-4c-0.3-0.3-0.7-0.6-1-0.9
				c-1.4-1.1-2.9-1.5-4.6-0.4c-2.6,1.6-2.7,1.5-2.7,4.5c0,4.2,0,8.4,0,12.6c0,1,0,1-1,1c-1,0-2,0-3,0c-0.6,0-0.8-0.2-0.7-0.8
				c0-0.2,0-0.4,0-0.6c0-13.1,0-26.1,0-39.2c0-0.2,0-0.3,0-0.5c-0.1-0.6,0.2-0.9,0.8-0.8c0.3,0,0.6,0,0.9,0c4.4,0,8.8-0.1,13.2,0
				c3.8,0.1,7.1,1.6,9.4,4.8c2.3,3.3,2.2,8.4-0.1,11.4c-1.2,1.6-2.9,2.5-4.7,3.3c-1.1,0.4-2.3,0.8-3.4,1.2c-0.3,0.1-0.7,0.2-0.2,0.6
				c2.3,2.1,3.8,4.8,5.4,7.5c1.1,1.8,2.2,3.7,3.6,5.3c1.4,1.7,3.1,3,5.4,3.1c2.9,0.2,4.3-1,4.4-3.7c0.1-3.1-0.4-6.1-0.8-9.1
				c-0.5-3.6-1-7.2-0.4-10.9c0.9-5.9,4.3-9.7,9.8-11.7c2.7-1,5.6-1.4,8.5-1.6c2.3-0.2,4.6-0.1,6.8-0.1c0.9,0,0.9,0,0.9,1
				C273,74.6,273,81.2,273,87.9z M268.3,90.3c0.2-0.3,0.1-0.6,0.1-0.8c0-5.6,0-11.1,0-16.7c0-1.3,0-1.3-1.3-1.2
				c-2.8,0.1-5.6,0.3-8.3,1.2c-3.8,1.2-6.3,3.6-7.2,7.6c-0.3,1.5-0.4,3.1-0.3,4.7c0,1,0,1,1,0.8c4.4-0.7,8.5-0.1,12.4,2
				C266.1,88.6,267.2,89.5,268.3,90.3z M218.1,79.2c0,2.4,0,4.7,0,7.1c0,0.3-0.1,0.8,0.5,0.5c2.7-1.4,5.7-2.1,8.6-2.9
				c1.7-0.5,3.4-1,4.9-1.9c3.2-2,3.4-6.7,0.3-8.9c-1.6-1.1-3.4-1.5-5.3-1.5c-2.7,0-5.5,0-8.2,0c-0.6,0-0.8,0.2-0.8,0.8
				C218.2,74.6,218.1,76.9,218.1,79.2z"/>
			<path class="st30" d="M206.4,87.9c0,4.3-0.8,8.4-2.8,12.2c-2.9,5.4-7.3,8.6-13.4,9.3c-5.2,0.6-10-0.4-14-4
				c-2.8-2.5-4.6-5.7-5.7-9.3c-1.8-6.4-1.7-12.8,0.9-19c2.5-6,7-9.8,13.5-10.8c5.9-0.9,11.3,0.3,15.5,4.8c3.1,3.2,4.7,7.1,5.5,11.4
				C206.2,84.2,206.4,86,206.4,87.9z M201.7,87.8c0-3.1-0.5-6.2-1.8-9.1c-3.8-8.6-12.7-9.6-18.5-6.5c-3.3,1.8-5.2,4.7-6.4,8.2
				c-1.3,4-1.5,8-0.7,12.1c0.6,3.1,1.8,5.9,3.9,8.3c2.7,2.9,6,4.1,10,4c4.4-0.1,7.8-2,10.3-5.6C200.9,95.7,201.6,91.9,201.7,87.8z"
				/>
			<path class="st30" d="M386.8,87.5c0,4.6-0.8,8.7-2.7,12.4c-2.9,5.5-7.4,8.7-13.5,9.5c-4.9,0.6-9.4-0.3-13.4-3.5
				c-3.2-2.6-5.2-6-6.3-9.9c-1.8-6.4-1.7-12.8,0.9-19c2.5-6,7-9.8,13.5-10.8c5.9-0.9,11.3,0.4,15.5,4.8c3.1,3.2,4.7,7.1,5.5,11.4
				C386.6,84.2,386.8,86,386.8,87.5z M382.1,87.8c0-3.1-0.5-6.2-1.8-9.1c-2.4-5.6-7.7-8.7-13.6-8c-5.1,0.6-8.5,3.4-10.6,8
				c-2,4.5-2.3,9.1-1.3,13.9c0.6,3.1,1.8,5.8,3.9,8.2c2.7,2.9,6,4.1,10,4c4.4-0.1,7.9-2,10.3-5.7C381.3,95.7,382,91.8,382.1,87.8z"
				/>
			<path class="st30" d="M343.2,87.9c0,6.5,0,13,0,19.5c0,1.6,0,1.3-1.4,1.3c-0.8,0-1.6,0-2.4,0c-0.7,0-0.9-0.2-0.9-0.9
				c0-2.9,0-5.9,0-8.8c0-0.6-0.1-1-0.4-1.5c-2.4-3.8-6-5.9-10.4-6.7c-1.3-0.2-2.6-0.3-3.9-0.4c-0.5,0-0.5,0.2-0.5,0.6
				c0.4,2.4,0.7,4.9,0.8,7.4c0.2,6.1-3.6,9.4-8.9,10.2c-2.3,0.3-2.1,0.4-2.1-1.8c0-0.6,0-1.2,0-1.7c-0.1-0.7,0.2-0.9,0.9-0.9
				c0.9,0,1.8-0.1,2.7-0.4c1.8-0.6,2.7-1.7,2.8-3.6c0.1-2.8-0.2-5.7-0.6-8.5c-0.5-3.2-0.9-6.4-0.6-9.7c0.3-3.6,1.2-7,3.8-9.8
				c2-2.1,4.5-3.3,7.2-4.1c3.5-1,7-1.2,10.6-1.2c0.9,0,1.8,0,2.7,0c0.5,0,0.7,0.2,0.7,0.6c0,0.2,0,0.5,0,0.7
				C343.2,74.8,343.2,81.4,343.2,87.9z M338.6,81.2c0-2.8,0-5.5,0-8.3c0-1.3,0-1.3-1.3-1.3c-2.5,0-4.9,0.3-7.2,1
				c-3.7,1.2-6,3.6-6.8,7.4c-0.4,1.7-0.4,3.5-0.4,5.2c0,0.4,0.2,0.5,0.6,0.5c1.6-0.1,3.1-0.1,4.7,0.2c3.7,0.6,7,2.1,9.9,4.4
				c0.2,0.1,0.3,0.4,0.5,0.3c0.2-0.1,0.1-0.4,0.1-0.6C338.6,87.1,338.6,84.1,338.6,81.2z"/>
			<path class="st30" d="M297.3,109.4c-0.6,0-1.2,0-1.7,0c-0.3,0-0.7,0-0.7,0.4c0,0.4,0.4,0.3,0.6,0.3c1.7,0.1,3,1.2,3.3,2.8
				c0.3,1.6-0.3,3.2-1.7,3.9c-1.2,0.6-2.4,0.5-3.6-0.2c-0.2-0.1-0.4-0.2-0.3-0.4c0.1-0.7,0.3-1.4,0.5-2c0.1-0.4,0.4-0.2,0.7-0.1
				c0.4,0.1,0.9,0.4,1.3,0c0.5-0.4,0.5-1.3,0.2-1.8c-0.3-0.4-1.1-0.6-1.6-0.2c-0.8,0.8-1.6,0.2-2.4,0.1c-0.4,0-0.3-0.4-0.2-0.7
				c0.2-0.7,0.4-1.4,0.6-2.1c0.1-0.4,0-0.6-0.4-0.7c-6.3-2-9.9-6.6-11.7-12.6c-2-6.7-1.8-13.4,0.9-19.8c2.4-5.9,6.8-9.4,13.2-10.2
				c3.3-0.4,6.4-0.1,9.3,1.8c3.2,2.1,5,5.1,5.6,8.8c0.5,2.6,0.3,5.2-1,7.6c-2.5,4.6-9.8,6.2-13.7,1.3c-0.5-0.6-0.6-1.1-0.1-1.7
				c0.6-0.8,1.2-1.6,1.7-2.5c0.3-0.4,0.4-0.4,0.7,0c1,1.9,2.7,2.8,4.6,2.4c1.9-0.4,3.2-1.9,3.4-4c0.3-3.3-1.6-8.5-7-9.1
				c-4.6-0.5-8.4,1-11.1,4.9c-1.7,2.4-2.5,5-2.8,7.9c-0.5,3.9-0.4,7.9,0.9,11.7c1.4,4.2,3.9,7.4,8.1,8.9c5.8,2,11.9,0,15.6-4.9
				c0.7-1,0.7-1,1.3,0.1c0.5,1,1,2,1.5,3c0.2,0.3,0.2,0.6-0.1,0.9c-3,3.5-6.7,5.6-11.3,6.2C299,109.5,298.1,109.5,297.3,109.4z"/>
			<path class="st30" d="M134.1,88.2c0-5.1,0.7-9.4,2.8-13.4c3-5.8,7.9-8.6,14.4-8.9c3.3-0.1,6.3,0.7,8.9,3c2.7,2.4,4,5.4,4.4,9
				c0.2,2.3-0.1,4.4-1.2,6.4c-2.5,4.6-9.8,6.2-13.7,1.3c-0.5-0.6-0.6-1.1-0.1-1.8c0.6-0.8,1.1-1.6,1.7-2.4c0.3-0.4,0.4-0.5,0.7,0
				c1,1.9,2.6,2.7,4.6,2.3c1.9-0.4,3.2-1.9,3.4-4c0.4-4.3-2.7-8.6-7-9.1c-4.6-0.5-8.4,1-11.1,4.9c-1.6,2.3-2.4,5-2.8,7.8
				c-0.5,3.9-0.4,7.8,0.8,11.6c1.6,4.7,4.4,8.1,9.4,9.4c5.5,1.3,11-0.7,14.3-5.3c0.7-1,0.7-1,1.3,0.1c0.5,1,1,2,1.5,3
				c0.2,0.4,0.2,0.6-0.1,1c-3.4,4-7.8,6.1-13.1,6.3c-4.2,0.1-8.1-0.8-11.5-3.5c-3.4-2.7-5.4-6.3-6.6-10.4
				C134.4,92.9,134,90.3,134.1,88.2z"/>
		</g>
	</g>
</g>
</svg>
