<?xml version="1.0" encoding="utf-8"?>
<!-- Generator: Adobe Illustrator 21.0.0, SVG Export Plug-In . SVG Version: 6.00 Build 0)  -->
<svg version="1.1" id="Layer_1" xmlns="http://www.w3.org/2000/svg" xmlns:xlink="http://www.w3.org/1999/xlink" x="0px" y="0px"
	 viewBox="0 0 128.1 125.5" style="enable-background:new 0 0 128.1 125.5;" xml:space="preserve">
<style type="text/css">
	.st0{fill:#C9D6A6;}
	.st1{filter:url(#Adobe_OpacityMaskFilter);}
	.st2{fill:#FFFFFF;}
	.st3{mask:url(#SVGID_3_);}
	.st4{fill:#56455A;}
	.st5{fill:#CB5E4E;}
	.st6{fill:#7FB4E2;}
	.st7{fill:#4C6994;}
	.st8{fill:#5E8F81;}
	.st9{fill:#B6295D;}
	.st10{fill:#913A89;}
	.st11{fill:#D4761A;}
	.st12{filter:url(#Adobe_OpacityMaskFilter_1_);}
	.st13{mask:url(#SVGID_4_);}
	.st14{fill:#709658;}
	.st15{fill:#A5C174;}
	.st16{fill:#86A37F;}
	.st17{fill:#6F837C;}
	.st18{fill:#C0B998;}
	.st19{fill:#615A3C;}
	.st20{fill:#6A705A;}
	.st21{fill:#CCC293;}
	.st22{fill:#8E775F;}
	.st23{fill:#5C493E;}
	.st24{fill:#887B53;}
	.st25{fill:#744D3E;}
	.st26{fill:#AD4C3B;}
	.st27{fill:#09090A;}
	.st28{fill:#787158;}
	.st29{fill:#DAD39B;}
	.st30{fill:#4F4B37;}
	.st31{fill:#CC5548;}
	.st32{fill:#6F864E;}
	.st33{fill:#5C3637;}
	.st34{fill:#DE453B;}
	.st35{fill:#F48E28;}
	.st36{fill:#654D4C;}
	.st37{fill:#D3770B;}
	.st38{fill:#687E49;}
	.st39{fill:#841B09;}
	.st40{fill:#E0481D;}
	.st41{fill:#D88515;}
	.st42{fill:#F7C600;}
	.st43{fill:#9A2C31;}
	.st44{fill:#E18C36;}
	.st45{fill:#EABD26;}
	.st46{fill:#38668D;}
	.st47{fill:#5194B5;}
	.st48{fill:#B6D7D7;}
	.st49{fill:#73B8BD;}
	.st50{fill:#73170A;}
	.st51{fill:#464C5E;}
	.st52{fill:#95989D;}
	.st53{fill:#CFD8D3;}
	.st54{fill:#929B9B;}
	.st55{fill:#9B7E73;}
	.st56{fill:#CA4C3B;}
	.st57{fill:#B4E6D7;}
	.st58{fill:#A3322F;}
	.st59{fill:#C22821;}
	.st60{fill:#ED6B00;}
	.st61{fill:#574728;}
	.st62{fill:#7A6043;}
	.st63{fill:#A2A29B;}
	.st64{fill:#D1CCC3;}
	.st65{fill:#DDEDE7;}
	.st66{fill:#DEDBD3;}
	.st67{fill:#737B7B;}
	.st68{fill:#ABA69C;}
	.st69{fill:#CBC6BD;}
	.st70{fill:#E3E66F;}
</style>
<g>
	<path class="st30" d="M125,62.8c3.1-4.4,4-10,2.4-15.1c-1.8-5.7-6.4-10.2-12.3-11.7c-1.1-0.3-2.2-0.5-3.4-0.7c1.8-4,2.2-8.4,1-12.6
		c-1.4-5.4-5.4-9.8-10.8-11.6c-1.9-0.7-3.9-1-5.9-1c-0.5,0-1.1,0-1.6,0.1c-2.2-4.9-6.6-8.5-11.9-9.6C81.4,0.2,80.1,0,78.8,0
		c-4.6,0-9.1,1.9-12.4,5.2c-0.8,0.8-1.6,1.7-2.3,2.6c-2.5-3.6-6.2-6.2-10.5-7.3c-1.5-0.4-3-0.6-4.5-0.6l0,0c-4,0-7.9,1.5-10.9,4.1
		c-1.9,1.6-3.5,3.7-4.6,6C33.1,10,32.5,10,32,10c-4.8,0-9.4,2-12.7,5.6c-4.1,4.4-5.6,10.7-4,16.5c0.3,1.1,0.6,2.2,1.1,3.2
		c-4.3,0.4-8.4,2.3-11.4,5.4c-4,3.9-5.8,9.6-4.7,15.1c0.4,2.5,1.4,4.9,2.9,6.9c-3.1,4.4-4,10-2.4,15.1C2.6,83.6,7.3,88,13.1,89.5
		c1.1,0.3,2.2,0.5,3.4,0.7c-1.8,4-2.2,8.4-1.1,12.6c1.4,5.4,5.4,9.8,10.8,11.7c1.9,0.7,3.9,1,5.9,1c0.5,0,1.1,0,1.6-0.1
		c2.2,4.9,6.6,8.5,11.9,9.6c1.3,0.3,2.6,0.4,3.9,0.4c4.6,0,9.1-1.9,12.4-5.2c0.8-0.8,1.6-1.7,2.3-2.6c2.5,3.6,6.2,6.2,10.5,7.3
		c1.5,0.4,3,0.6,4.5,0.6c4,0,7.9-1.5,10.9-4.1c1.9-1.6,3.5-3.7,4.6-6c0.5,0.1,1.1,0.1,1.6,0.1c4.8,0,9.4-2,12.7-5.6
		c4.1-4.4,5.6-10.6,4-16.4c-0.3-1.1-0.6-2.2-1.1-3.2c4.3-0.4,8.4-2.3,11.4-5.4C129,78.9,129.8,69.6,125,62.8L125,62.8z"/>
	<g>
		<path class="st31" d="M76.1,81.4c0.1,0,0.2,0,0.3,0c1.4,0.2,2.7,0.4,4.1,0.6c5,0.7,10,1.7,14.9,3c2,0.5,3.9,1.3,5.8,2.2
			c3.1,1.6,5,4.4,5.8,7.7c1.1,3.9,0.1,8.1-2.6,11c-2.1,2.3-5.1,3.6-8.2,3.6c-1.5,0-3-0.3-4.4-0.9c-0.5-0.2-1-0.5-1.6-0.7l0,0.7
			c-0.1,3.2-1.6,6.1-4,8.2c-1.9,1.7-4.5,2.7-7,2.7c-1,0-2.1-0.1-3.1-0.4c-5.1-1.4-8.8-5.8-9.3-11c-0.1-2,0.2-4,0.7-5.9
			c1.5-5.7,3.3-11.2,5.5-16.6l1.1-2.7C74.4,82,75.2,81.4,76.1,81.4"/>
		<path class="st31" d="M78.8,6c0.9,0,1.8,0.1,2.6,0.3c4.6,1,8.1,4.8,8.7,9.5c0.1,0.5,0.1,1.1,0.2,1.7l0.7-0.3
			c1.6-0.8,3.4-1.3,5.3-1.3c1.3,0,2.6,0.2,3.8,0.7c3.5,1.2,6.1,4.1,7,7.7c1.4,5.1-0.6,10.5-4.9,13.5c-1.7,1-3.6,1.8-5.5,2.3
			C91,41.8,85.2,43,79.4,43.7l-2.9,0.4c-1,0.2-2-0.4-2.4-1.4c-0.5-1.3-1-2.5-1.5-3.8c-1.9-4.7-3.5-9.5-4.8-14.4c-0.5-2-0.9-4-1-6.1
			c-0.2-3.5,1.3-6.5,3.8-8.9C72.7,7.3,75.7,6.1,78.8,6"/>
		<path class="st31" d="M52,81.4c0.9,0,1.7,0.5,2.1,1.4c0.5,1.3,1,2.5,1.5,3.8c1.9,4.7,3.5,9.5,4.8,14.4c0.5,2,0.9,4,1,6.1
			c0.2,3.5-1.3,6.5-3.8,8.9c-2.2,2.2-5.1,3.5-8.2,3.5c-0.9,0-1.8-0.1-2.6-0.3c-4.6-1-8.1-4.8-8.7-9.5c-0.1-0.5-0.1-1.1-0.2-1.7
			l-0.7,0.3c-1.6,0.8-3.4,1.3-5.3,1.3c-1.3,0-2.6-0.2-3.8-0.7c-3.5-1.2-6.1-4.1-7-7.7c-1.4-5.1,0.6-10.5,4.9-13.5
			c1.7-1,3.6-1.8,5.5-2.3c5.6-1.6,11.4-2.7,17.2-3.5l2.9-0.4C51.7,81.4,51.9,81.4,52,81.4"/>
		<path class="st31" d="M49.1,6c1,0,2.1,0.1,3.1,0.4c5.1,1.4,8.8,5.8,9.3,11c0.1,2-0.2,4-0.7,5.9C59.3,29,57.4,34.6,55.2,40
			l-1.1,2.7c-0.3,0.8-1.2,1.4-2.1,1.4c-0.1,0-0.2,0-0.3,0c-1.4-0.2-2.7-0.4-4.1-0.6c-5-0.7-10-1.7-14.9-3c-2-0.5-3.9-1.3-5.8-2.2
			c-3.1-1.6-5-4.4-5.8-7.7c-1.1-3.9-0.1-8,2.7-11c2.1-2.3,5.1-3.6,8.2-3.6c1.5,0,3,0.3,4.4,0.9c0.5,0.2,1,0.5,1.6,0.7l0-0.8
			c0.1-3.2,1.6-6.1,4-8.2C44,6.9,46.5,6,49.1,6"/>
		<path class="st31" d="M18.3,41.1c1.8,0,3.6,0.4,5.2,1.2c1.8,1,3.4,2.2,4.8,3.6c4.2,4.1,8.1,8.5,11.6,13.1l1.8,2.3
			c0.6,0.8,0.6,2,0,2.8c-0.8,1.1-1.7,2.2-2.5,3.2c-3.1,4-6.5,7.8-10.1,11.4c-1.5,1.5-3.1,2.8-4.8,3.9c-1.7,1.1-3.8,1.7-5.8,1.7
			c-1.3,0-2.5-0.2-3.8-0.6c-3.9-1-7-3.9-8.2-7.8c-1.4-4.5,0.2-9.4,4-12.3c0.4-0.3,0.9-0.6,1.4-1l-0.6-0.4c-2.7-1.7-4.5-4.4-5.1-7.6
			c-0.7-3.6,0.5-7.3,3.1-9.9C11.7,42.5,14.9,41.1,18.3,41.1"/>
		<path class="st31" d="M109.7,41.2c1.3,0,2.5,0.2,3.8,0.6c3.9,1,7,3.9,8.2,7.8c1.4,4.5-0.2,9.4-3.9,12.3c-0.4,0.3-0.9,0.6-1.4,1
			l0.6,0.4c2.7,1.7,4.5,4.4,5.1,7.6c0.7,3.6-0.5,7.3-3.1,9.9c-2.4,2.4-5.6,3.7-9,3.7c-1.8,0-3.6-0.4-5.2-1.2
			c-1.8-0.9-3.4-2.1-4.8-3.6c-4.2-4.1-8.1-8.5-11.7-13.1l-1.8-2.3c-0.6-0.8-0.6-2,0-2.8c0.8-1.1,1.7-2.2,2.5-3.2
			c3.1-4,6.5-7.8,10.1-11.4c1.5-1.5,3.1-2.8,4.8-3.9C105.6,41.7,107.6,41.2,109.7,41.2"/>
	</g>
	<g>
		<path class="st0" d="M116.6,62.7c2.4,1.5,4.1,3.8,5,6.5c2.9,9.8-6.1,16.6-14.3,15c-3.9-0.8-6.4-3.2-9-5.9c-1.9-2.1-4-4.1-5.8-6.2
			c-2.1-2.5-4.2-5-6.2-7.6c-0.9-1.1-0.9-2.7,0.1-3.7c4.5-5.1,8.9-10.3,13.6-15.3c2.7-2.9,6.1-4.7,10.1-4.5c4.1,0.3,7.9,1.7,10.3,5.6
			c2.9,4.8,2.3,10.3-1.7,14.6C118,61.8,117.3,62.3,116.6,62.7z M92,62.6c2.2,2.7,4.1,5.1,6.2,7.3c1.9,2.1,3.8,4.2,5.9,6.2
			c1.8,1.7,3.9,2.9,6.6,2.6c2.5-0.2,4.7-1.9,5.5-4.3c0.8-2.1,0.4-4.3-1.5-5.7c-2.3-1.7-4.7-3.1-7.1-4.7c-0.4-0.3-0.7-0.7-0.8-1.1
			c0-0.3,0.3-0.8,0.6-1c1.7-1.2,3.5-2.3,5.2-3.5c1-0.6,1.9-1.3,2.7-2.2c2.9-3.4-0.3-8.8-4-9.3c-2.9-0.4-5,0.3-6.9,2.3L92,62.6z
			 M114.8,44.9l-0.2,0.5l2.6,1.4l0.3-0.6C117.1,44.8,115.9,44.9,114.8,44.9L114.8,44.9z M114.3,65.8l-0.1-1.9
			c-0.6,0.1-1.1,0.4-1.6,0.7c-0.2,0.2,0,0.7,0,1.2H114.3z"/>
		<path class="st0" d="M37.9,17.5c0.5-5.6,3.3-9.5,7.9-10.9c5.7-1.7,11.8,0.9,14.5,6.1c2.2,4.1,1.6,8,0.4,12c-1.9,6-4,12-6.1,17.9
			c-0.8,2.2-2.6,1.8-4.2,1.5c-5.7-1-11.4-1.9-17-3.2c-2.8-0.6-5.5-1.8-8-3.3c-1.7-1.3-3-3-3.7-5c-1.5-3.8-1.5-7.7,0.7-11.3
			c1.5-2.5,3.7-4.5,6.5-4.8S35.1,15.2,37.9,17.5z M43.2,18c0.1,2.2,0.3,4.5,0.4,6.8c0,0.8-1.2,1.4-2,1c-2.3-1.2-4.7-2.5-7-3.7
			c-1.5-0.9-3.4-0.9-4.9,0.1c-1.9,1.3-3.6,3-3.3,5.5c0.3,3,1.6,5.7,4.9,6.5c5.2,1.3,10.3,2.7,15.5,3.9c3.4,0.8,3.5,0.6,4.3-1.4
			c0.2-0.5,0.1-1.1,0.3-1.6c1.4-4.3,2.8-8.6,4.3-12.9c0.9-2.7,1-5.4-0.9-7.8c-1.8-2.4-5.7-3.8-8.2-1.9c-1.7,1.2-3,2.7-2.8,5.1
			l-1.4-0.9l-0.3,0.5L43.2,18z M26,20.9l-2.2,3.3C25.7,24.3,26.7,22.8,26,20.9z"/>
		<path class="st0" d="M11.7,62.6c-6.9-4-7.6-14.5-0.9-19.2c4.7-3.3,10.4-3.8,15.1,0.1c4,3.2,7.2,7.4,10.7,11.2
			c1.9,2.1,3.6,4.3,5.4,6.5c0.9,1,0.9,2.4-0.1,3.4c-4.4,5-8.7,10.2-13.3,15c-2.7,2.8-5.8,5.2-10.1,4.9c-6-0.5-9.9-1.9-11.9-8.2
			C5,70.8,6,67,11.7,62.6z M36.3,62.5c-4.3-4.7-8.5-9.2-12.7-13.7c-1.5-1.7-3.8-2.5-6-2.2c-2.8,0.4-5.1,2.4-5.8,5.1
			c-0.5,1.8,0.8,4.7,2.8,6c2.3,1.5,4.6,3,7.1,4.6c-0.3,0.5-0.7,1-1.1,1.4c-2.2,1.5-4.5,2.8-6.7,4.4c-2.4,1.7-3,5-1.3,7.4
			c0,0.1,0.1,0.1,0.1,0.2c2.5,3.4,6.1,3.9,8.5,2.4c2.1-1.4,4.1-3.1,5.8-5C30,69.8,32.9,66.4,36.3,62.5z M22.7,43.8l-4-0.6l-0.3,0.5
			c0.7,0.5,1.3,1.3,2.1,1.5C21.1,45.2,21.8,44.4,22.7,43.8z M28.8,74.4l-0.4-0.3c-0.7,0.8-1.4,1.5-2.1,2.3c-0.2,0.2-0.1,0.7-0.1,1.1
			c0.4-0.1,1.1,0,1.2-0.2C27.9,76.3,28.4,75.4,28.8,74.4z"/>
		<path class="st0" d="M90,108.2c0.3,2.7-0.7,5.3-2.5,7.3c-2,2.2-4.3,3.7-7.5,4c-3.9,0.4-7.8-1.1-10.4-4.1
			c-2.6-2.8-3.8-6.6-3.1-10.4c1.4-7.7,4.3-14.9,7-22.2c0.8-2.1,2.5-1.8,4-1.5c4.7,0.7,9.3,1.4,13.9,2.5c3.2,0.8,6.3,1.9,9.4,3.1
			c5.9,2.2,8.3,12,5,17c-3,4.6-8.6,6.8-14.6,4.7C91,108.5,90.7,108.4,90,108.2z M78.2,87c-1,2.7-2,5.1-2.8,7.5
			c-0.8,2.4-1.5,5-2.4,7.4c-0.5,1.5-1.2,2.9-1.8,4.4c-0.1,0.2-0.1,0.5,0,0.7c0.9,1.4,1.8,2.8,2.7,4.2c1.1,1.8,3.2,2.8,5.4,2.7
			c2.2-0.1,4.3-1.3,4.8-3.7c0.7-2.8,0.9-5.7,0.9-8.7c-0.1-1.6,0.4-1.7,1.3-1.8c2.9,1.5,5.9,2.8,8.9,4c2.2,0.9,4-0.2,5.3-1.7
			c3.3-3.7,0.7-9.7-3.3-10.8c-2.2-0.6-4.4-1.5-6.7-1.9C86.3,88.4,82.2,87.7,78.2,87z M85.8,109.7c1.6-0.3,3.6-2.2,3.7-3.5
			c0-0.3-0.4-0.7-0.8-1.2C87.7,106.6,85.5,107.3,85.8,109.7z"/>
		<path class="st0" d="M37.2,107.9c-1.1,0.6-1.9,1.3-2.8,1.5c-5.2,1-11.1-1.7-12.9-7.3c-2-6.5,0-11.3,4.7-14.8
			c2.1-1.5,5-2.1,7.6-2.8c4.4-1.1,8.9-2,13.4-2.9c1.5-0.3,3-0.2,4.5-0.4c1.5-0.2,2.4,0.7,2.9,2c2.6,6.7,5.3,13.4,6.7,20.5
			s-1.4,12.8-8.2,15.1c-5.5,1.9-10.2,0.2-13.7-5c-0.2-0.2-0.3-0.5-0.3-0.8c-0.4-1.5-0.7-2.9-1.1-4.4
			C37.8,108.3,37.3,107.9,37.2,107.9z M50.2,87c-1.7,0-3.3,0.1-4.9,0.4c-3.7,0.8-7.4,1.8-11.1,2.7c-3.2,0.8-6,2-7.4,5.4
			c-1.2,3,0.2,6.5,3.2,7.7c0.1,0.1,0.3,0.1,0.4,0.2c0.8,0.3,1.6,0.4,1.7,1.7c0.1,0.9,1.7,1,2.3,0.3l-0.6-1.3c2.5-1.5,5-3,7.4-4.4
			c0.5-0.3,1.1-0.3,1.6-0.1c0.3,0.1,0.4,0.9,0.5,1.4c0.3,3,0.2,6.1,0.8,9.1c0.6,2.9,3.3,4.1,6.5,3.6c2.2-0.3,5.1-3.6,5.2-5.6
			c0.2-3.1-0.5-5.9-1.5-8.8C53,95.1,51.5,91,50.2,87z M38.6,103.1c-0.2,0.4-0.7,1.3-0.5,1.4c0.7,0.6,1.4,1.2,2.2,1.7
			c0.1-0.3,0.5-0.8,0.3-1C40,104.4,39.3,103.7,38.6,103.1z"/>
		<path class="st0" d="M90.5,17.3c3.6-1.9,8-1.8,11.5,0.2c2.8,1.5,4.3,4.1,5.1,7.2c1.5,5.7-1.9,12.8-8.1,14.8
			c-5.5,1.8-11.1,3-16.8,3.8c-1.7,0.2-3.5,0.4-5.2,0.8c-1.7,0.5-2.7-0.1-3.2-1.5c-2.2-6.2-4.7-12.4-6.4-18.7
			c-1.1-3.8-1.6-7.8,0.6-11.5C72,5.7,80.2,3.7,86.7,9C88.6,10.4,90.1,14.1,90.5,17.3z M88.9,39.3l0.4-0.3c-0.1-1-1-2.2,0.8-2.7
			c1.9-0.5,3.8-1,5.7-1.5c3.1-0.7,5.1-2.5,5.8-5.7c0.6-2,0.1-4.2-1.3-5.7c-1.3-1.7-3.6-2.4-5.7-1.7c-2.6,0.9-5.1,2.5-7.6,3.8
			c-0.4,0.2-0.9,0.3-1.4,0.2c-0.3-0.1-0.4-0.8-0.5-1.2c-0.2-2.6,0-5.3-0.5-7.9c-0.2-2.1-1.6-3.9-3.6-4.6c-2.4-0.9-4.5-0.2-6.3,1.3
			c-2.1,1.7-3,4.5-2.3,7.1c1.4,5.7,3,11.4,5.6,16.8c0.2,0.4,0.7,1.1,1.1,1c2.4-0.2,4.7-0.6,7-1.2c1.2-0.3,1.5,0.1,1.9,1
			C88.1,38.6,88.5,38.9,88.9,39.3z M92.2,18.7l-0.1,0.8l3.2,0.5c0-0.5,0.3-1.4,0.1-1.5C94.3,17.8,93.2,17.6,92.2,18.7z M104.1,34.1
			l0.4-2.8c-0.6,0.1-1.3-0.1-1.6,0.2C102,32.6,102.7,33.3,104.1,34.1L104.1,34.1z"/>
		<path class="st0" d="M72.1,73.2l1.9,1.6c-0.1,0.2-0.2,0.3-0.3,0.3c-2.8-0.5-3.6,1.6-4.6,3.4c-1.2,2.1-2.2,4.3-3.4,6.3
			c-1,1.7-2.6,1.5-3.5-0.2c-1.4-2.6-2.8-5.1-4.2-7.7c-1-1.9-2.4-2.4-4.6-2.1c-2.8,0.3-5.7,0.4-8.5,0.3c-1.3,0-1.8-1.6-1.1-2.9
			c1.7-2.8,3.3-5.6,5.2-8.3c0.6-0.7,0.6-1.6,0.1-2.3c-1.6-2.7-3.3-5.4-4.8-8.1c-0.4-0.7-0.8-1.8-0.5-2.4c0.3-0.6,1.5-0.9,2.3-0.9
			c3,0,6,0.2,9,0.3c1.2,0.1,2.3-0.6,2.8-1.7c1.5-2.8,3-5.5,4.6-8.2c1.1-1.8,2.3-1.7,3.4,0.2c1.5,2.8,3.1,5.4,4.6,8.2
			c0.7,1.4,1.8,1.5,3.1,1.4c2.9-0.1,5.8-0.3,8.7-0.3c0.7,0,1.8,0.4,2,0.9c0.2,0.8,0.1,1.6-0.3,2.3c-1.6,2.7-3.4,5.3-4.9,8
			c-0.3,0.7-0.3,1.5,0,2.2c1.5,2.8,3.3,5.5,4.8,8.3c0.4,0.7,0.6,1.5,0.4,2.3c-0.2,0.5-1.3,0.7-2,0.8c-1.2,0.1-2.4,0.1-3.6,0
			c-1.2,0-2.4,0.3-3.2-1.4c-0.3-0.7-1.9-0.9-3-1.3L72.1,73.2z"/>
	</g>
	<path class="st32" d="M59.5,56.9L58.5,56c0.1-0.1,0.1-0.2,0.2-0.2c1.5,0.3,2-0.9,2.5-1.9c0.6-1.2,1.2-2.4,1.9-3.5
		c0.5-0.9,1.4-0.9,1.9,0.1c0.8,1.4,1.5,2.9,2.3,4.3c0.6,1.1,1.4,1.3,2.6,1.2c1.6-0.1,3.1-0.2,4.7-0.2c0.7,0,1,0.9,0.6,1.6
		c-0.9,1.6-1.9,3.1-2.9,4.6c-0.3,0.4-0.3,0.9,0,1.3c0.9,1.5,1.8,3,2.7,4.5c0.2,0.4,0.4,1,0.3,1.3c-0.3,0.3-0.8,0.5-1.3,0.5
		c-1.7,0-3.3-0.1-5-0.2c-0.7-0.1-1.3,0.3-1.6,0.9c-0.8,1.5-1.7,3.1-2.6,4.6c-0.6,1-1.3,0.9-1.9-0.1c-0.8-1.5-1.7-3-2.6-4.6
		c-0.3-0.6-1-0.9-1.7-0.8c-1.6,0.1-3.2,0.2-4.8,0.2c-0.4,0-0.8-0.2-1.1-0.5c-0.1-0.4-0.1-0.9,0.2-1.3c0.9-1.5,1.9-3,2.7-4.5
		c0.2-0.4,0.2-0.9,0-1.3c-0.9-1.6-1.8-3.1-2.7-4.6c-0.2-0.4-0.3-0.8-0.2-1.3c0.1-0.3,0.7-0.4,1.1-0.4c0.7,0,1.3,0,2,0
		c0.7,0,1.3-0.1,1.8,0.8c0.2,0.4,1.1,0.5,1.6,0.7L59.5,56.9z"/>
</g>
</svg>
